<?xml version="1.0" standalone="no"?>
<!DOCTYPE svg PUBLIC "-//W3C//DTD SVG 1.1//EN" "http://www.w3.org/Graphics/SVG/1.1/DTD/svg11.dtd" >
<svg>
<metadata>
Created by FontForge 20090622 at Thu Apr 27 12:43:42 2017
 By deploy user
&#194;&#169; 2015 Apple Inc. All rights reserved.
</metadata>
<defs>
<font id="SFUIText-Medium" horiz-adv-x="0" >
  <font-face 
    font-family="SF UI Text"
    font-weight="500"
    font-stretch="normal"
    units-per-em="2048"
    panose-1="0 0 6 0 0 0 0 0 0 0"
    ascent="1638"
    descent="-410"
    x-height="1089"
    cap-height="1443"
    bbox="-620 -572 2731 2197"
    underline-thickness="50"
    underline-position="-25"
    unicode-range="U+0020-U+FB02"
  />
<missing-glyph horiz-adv-x="1293" 
d="M120 0v1365h1053v-1365h-1053zM501 313q0 -47 33.5 -77t86.5 -30q55 0 88.5 29.5t33.5 77.5q0 49 -33.5 78.5t-88.5 29.5q-54 0 -87 -30t-33 -78zM339 888h169q1 59 34.5 94.5t90.5 35.5q54 0 87 -30t33 -80q0 -38 -20.5 -65.5t-82.5 -72.5q-69 -48 -96 -100t-22 -121
l1 -18h166v15q0 48 19 76t88 77q73 52 103 102t30 116q0 113 -81 181.5t-215 68.5q-143 0 -225.5 -76t-78.5 -203z" />
    <glyph glyph-name=".notdef" horiz-adv-x="1293" 
d="M120 0v1365h1053v-1365h-1053zM501 313q0 -47 33.5 -77t86.5 -30q55 0 88.5 29.5t33.5 77.5q0 49 -33.5 78.5t-88.5 29.5q-54 0 -87 -30t-33 -78zM339 888h169q1 59 34.5 94.5t90.5 35.5q54 0 87 -30t33 -80q0 -38 -20.5 -65.5t-82.5 -72.5q-69 -48 -96 -100t-22 -121
l1 -18h166v15q0 48 19 76t88 77q73 52 103 102t30 116q0 113 -81 181.5t-215 68.5q-143 0 -225.5 -76t-78.5 -203z" />
    <glyph glyph-name=".null" 
 />
    <glyph glyph-name="nonmarkingreturn" 
 />
    <glyph glyph-name="space" unicode=" " horiz-adv-x="560" 
 />
    <glyph glyph-name="exclam" unicode="!" horiz-adv-x="670" 
d="M213 1444h243l-20 -966h-202zM181 129q0 70 42.5 112t112.5 42q69 0 111 -42t42 -112q0 -68 -42 -110t-111 -42q-70 0 -112.5 42t-42.5 110z" />
    <glyph glyph-name="quotedbl" unicode="&#x22;" horiz-adv-x="938" 
d="M362 872h-193v571h193v-571zM769 872h-192v571h192v-571z" />
    <glyph glyph-name="numbersign" unicode="#" horiz-adv-x="1319" 
d="M1216 882h-214l-64 -304h213l-33 -178h-214l-82 -400h-172l83 400h-281l-82 -400h-171l82 400h-213l35 178h213l63 304h-212l34 177h212l79 384h171l-78 -384h280l79 384h172l-80 -384h214zM545 891l-66 -324h292l67 324h-293z" />
    <glyph glyph-name="dollar" unicode="$" horiz-adv-x="1359" 
d="M751 -136h-137v130q-215 14 -340.5 124t-126.5 284h212q8 -89 75.5 -147.5t179.5 -71.5v456l-89 23q-168 43 -256.5 141.5t-88.5 244.5q0 173 115.5 281.5t318.5 127.5v138h137v-138q194 -17 312 -127t123 -277h-209q-3 83 -65 141.5t-161 70.5v-431l93 -21
q188 -46 278.5 -143t90.5 -252q0 -183 -121 -293.5t-341 -129.5v-131zM1000 395q0 86 -60.5 139t-188.5 79v-432q119 7 184 63t65 151zM394 1066q0 -77 56 -129t164 -74v403q-96 -5 -158 -61.5t-62 -138.5z" />
    <glyph glyph-name="percent" unicode="%" horiz-adv-x="1643" 
d="M1250 127q61 0 98 54.5t37 146.5q0 93 -36.5 146t-98.5 53t-99 -54t-37 -145t37 -146t99 -55zM1250 -29q-141 0 -230 99.5t-89 257.5q0 157 89 256t230 99t229.5 -99t88.5 -256q0 -158 -88.5 -257.5t-229.5 -99.5zM393 760q-140 0 -229 99.5t-89 256.5q0 158 88.5 257
t229.5 99t229.5 -99t88.5 -257t-88.5 -257t-229.5 -99zM420 0h-219l549 754l480 689h218l-558 -764zM393 916q62 0 99 55t37 146q0 93 -36.5 146t-99.5 53q-62 0 -99 -54t-37 -145t37 -146t99 -55z" />
    <glyph glyph-name="ampersand" unicode="&#x26;" horiz-adv-x="1481" 
d="M1192 0l-125 132q-89 -75 -209.5 -117t-251.5 -42q-221 0 -357.5 113t-136.5 296q0 126 68.5 222t211.5 172q4 2 28 15.5t31 16.5q-99 103 -140 179t-41 155q0 142 109.5 236t274.5 94q166 0 273.5 -92t107.5 -236q0 -112 -72.5 -201t-233.5 -174l331 -344q62 116 62 333
v46h195v-54q0 -302 -120 -475l257 -275h-262zM516 654q-190 -99 -190 -255q0 -110 83 -177.5t218 -67.5q92 0 178 32t139 86l-381 404q-24 -10 -47 -22zM618 888q120 60 170.5 115.5t50.5 127.5q0 77 -51 125t-133 48q-80 0 -132 -49t-52 -125q0 -55 33 -109t114 -133z" />
    <glyph glyph-name="quotesingle" unicode="'" horiz-adv-x="531" 
d="M362 872h-193v571h193v-571z" />
    <glyph glyph-name="parenleft" unicode="(" horiz-adv-x="755" 
d="M638 -277h-196q-129 161 -199.5 390.5t-70.5 486.5q0 256 66 454.5t214 387.5h189q-109 -127 -178.5 -363t-69.5 -479q0 -234 58.5 -443.5t186.5 -433.5z" />
    <glyph glyph-name="parenright" unicode=")" horiz-adv-x="755" 
d="M116 -277q128 224 186.5 433.5t58.5 443.5q0 244 -69.5 480t-178.5 362h191q148 -189 213.5 -387t65.5 -455q0 -256 -70.5 -485t-199.5 -392h-197z" />
    <glyph glyph-name="asterisk" unicode="*" horiz-adv-x="1044" 
d="M631 1063l257 -117l-76 -138l-234 159l22 -279h-155l22 280l-234 -160l-77 138l258 117l-258 121l77 140l234 -168l-22 287h155l-23 -287l235 168l76 -140z" />
    <glyph glyph-name="plus" unicode="+" horiz-adv-x="1359" 
d="M773 484v-424h-187v424h-426v196h426v423h187v-423h427v-196h-427z" />
    <glyph glyph-name="comma" unicode="," horiz-adv-x="662" 
d="M300 -376h-180l90 598h233z" />
    <glyph glyph-name="hyphen" unicode="-" horiz-adv-x="975" 
d="M816 476h-656v211h656v-211z" />
    <glyph glyph-name="period" unicode="." horiz-adv-x="645" 
d="M323 -17q-63 0 -105 43t-42 106t42 106t105 43t105 -43t42 -106t-42 -106t-105 -43z" />
    <glyph glyph-name="slash" unicode="/" horiz-adv-x="733" 
d="M246 -309h-192l430 1752h196z" />
    <glyph glyph-name="zero" unicode="0" horiz-adv-x="1330" 
d="M666 -35q-253 0 -393.5 199t-140.5 559q0 357 141 556t393 199q250 0 391 -199.5t141 -557.5q0 -359 -140 -557.5t-392 -198.5zM666 161q148 0 227 144.5t79 417.5q0 270 -80 414.5t-226 144.5t-227 -145t-81 -414q0 -272 80 -417t228 -145z" />
    <glyph glyph-name="one" unicode="1" horiz-adv-x="989" 
d="M502 0v1202h-17l-362 -256v229l380 268h223v-1443h-224z" />
    <glyph glyph-name="two" unicode="2" horiz-adv-x="1266" 
d="M144 1026q0 199 136 325.5t349 126.5q206 0 341 -117t135 -295q0 -115 -67.5 -227.5t-248.5 -295.5l-321 -325v-17h660v-201h-972v162l488 508q144 150 192 226.5t48 156.5q0 99 -75 165t-187 66q-119 0 -192.5 -71t-73.5 -187v-3h-212v3z" />
    <glyph glyph-name="three" unicode="3" horiz-adv-x="1315" 
d="M471 648v185h175q116 0 189 64t73 166q0 101 -71 161.5t-189 60.5t-190.5 -61t-81.5 -168h-213q11 196 143 309t349 113q201 0 337.5 -109.5t136.5 -272.5q0 -127 -69.5 -217t-188.5 -117v-17q147 -17 232 -111.5t85 -239.5q0 -121 -69 -219t-190.5 -154t-269.5 -56
q-227 0 -370.5 117t-153.5 310h215q11 -105 94.5 -167t214.5 -62q132 0 216 68t84 175q0 112 -82 177t-224 65h-182z" />
    <glyph glyph-name="four" unicode="4" horiz-adv-x="1351" 
d="M820 0v279h-704v208q168 307 601 956h319v-964h199v-200h-199v-279h-216zM331 488v-14h492v772h-13q-254 -368 -479 -758z" />
    <glyph glyph-name="five" unicode="5" horiz-adv-x="1300" 
d="M656 -35q-215 0 -354 120t-149 310h213q13 -105 93 -169t199 -64q135 0 218 82t83 217t-83 219.5t-215 84.5q-92 0 -165 -39t-115 -109h-205l76 826h842v-200h-667l-38 -423h17q102 131 305 131q206 0 336.5 -135.5t130.5 -348.5q0 -224 -144.5 -363t-377.5 -139z" />
    <glyph glyph-name="six" unicode="6" horiz-adv-x="1339" 
d="M689 -35q-160 0 -281.5 77t-192.5 222q-88 173 -88 439q0 367 150.5 571t421.5 204q191 0 325 -105.5t167 -282.5h-225q-27 88 -99 139t-170 51q-166 0 -258.5 -143.5t-96.5 -404.5h17q52 104 151.5 161t227.5 57q206 0 340 -136t134 -345q0 -221 -147 -362.5
t-376 -141.5zM687 162q129 0 216 86t87 214q0 131 -84.5 215t-217.5 84q-132 0 -218 -83.5t-86 -211.5q0 -129 87 -216.5t216 -87.5z" />
    <glyph glyph-name="seven" unicode="7" horiz-adv-x="1193" 
d="M212 0l639 1227v17h-734v199h958v-203l-628 -1240h-235z" />
    <glyph glyph-name="eight" unicode="8" horiz-adv-x="1349" 
d="M674 -35q-241 0 -391.5 117t-150.5 304q0 138 83.5 239t222.5 129v17q-113 29 -180.5 115.5t-67.5 202.5q0 171 136 280t348 109t348 -109t136 -280q0 -117 -67 -203t-181 -115v-17q139 -26 223 -126.5t84 -240.5q0 -187 -151 -304.5t-392 -117.5zM674 151
q139 0 226 70.5t87 183.5t-87 184t-226 71t-226 -71t-87 -184t87 -183.5t226 -70.5zM674 843q118 0 191 62t73 162q0 101 -73 164t-191 63t-190.5 -63t-72.5 -164q0 -100 72.5 -162t190.5 -62z" />
    <glyph glyph-name="nine" unicode="9" horiz-adv-x="1339" 
d="M641 -35q-192 0 -326 106t-167 283h226q26 -88 98 -139t171 -51q166 0 258.5 143.5t95.5 404.5h-8h-5h-4q-52 -104 -151 -161.5t-227 -57.5q-206 0 -340.5 136t-134.5 345q0 221 146.5 362.5t376.5 141.5q160 0 282 -76.5t192 -221.5q89 -175 89 -439
q0 -367 -150.5 -571.5t-421.5 -204.5zM651 683q132 0 218 83t86 211q0 130 -87 217t-215 87q-129 0 -216 -86t-87 -213q0 -131 84 -215t217 -84z" />
    <glyph glyph-name="colon" unicode=":" horiz-adv-x="645" 
d="M323 -17q-63 0 -105 43t-42 106t42 106t105 43t105 -43t42 -106t-42 -106t-105 -43zM323 738q-63 0 -105 43t-42 106q0 64 42 106.5t105 42.5q64 0 105.5 -42.5t41.5 -106.5q0 -63 -42 -106t-105 -43z" />
    <glyph glyph-name="semicolon" unicode=";" horiz-adv-x="645" 
d="M300 -376h-180l90 598h233zM323 738q-63 0 -105 43t-42 106q0 64 42 106.5t105 42.5q64 0 105.5 -42.5t41.5 -106.5q0 -63 -42 -106t-105 -43z" />
    <glyph glyph-name="less" unicode="&#x3c;" horiz-adv-x="1359" 
d="M1133 236v-236l-906 503v183l906 503v-236l-690 -350v-17z" />
    <glyph glyph-name="equal" unicode="=" horiz-adv-x="1359" 
d="M1195 270h-1031v197h1031v-197zM1195 698h-1031v197h1031v-197z" />
    <glyph glyph-name="greater" unicode="&#x3e;" horiz-adv-x="1359" 
d="M227 236l689 350v17l-689 350v236l906 -503v-183l-906 -503v236z" />
    <glyph glyph-name="question" unicode="?" horiz-adv-x="1083" 
d="M79 1053q7 179 125 290.5t329 111.5q197 0 319.5 -105t122.5 -269q0 -216 -210 -342q-96 -57 -131 -105.5t-35 -124.5v-60h-207l-1 76q-4 106 42 179.5t151 136.5q92 55 128 105.5t36 125.5q0 83 -62 136.5t-164 53.5q-103 0 -166 -56.5t-70 -152.5h-207zM508 -23
q-69 0 -112 42t-43 110q0 69 43 111.5t112 42.5t111.5 -42t42.5 -112q0 -68 -42.5 -110t-111.5 -42z" />
    <glyph glyph-name="at" unicode="@" horiz-adv-x="1887" 
d="M936 858q-93 0 -145 -67.5t-52 -188.5t52 -189.5t143 -68.5q95 0 151 69.5t56 188.5q0 118 -55.5 187t-149.5 69zM970 1442q235 0 418 -93t284.5 -262t101.5 -385q0 -241 -103 -383t-279 -142q-90 0 -152.5 44.5t-74.5 117.5h-17q-31 -76 -94.5 -116t-151.5 -40
q-156 0 -251.5 116.5t-95.5 306.5q0 182 95.5 297t248.5 115q79 0 141.5 -38t91.5 -104h17v121h170v-562q0 -53 27.5 -82.5t78.5 -29.5q88 0 140.5 101.5t52.5 271.5q0 271 -182 437.5t-477 166.5q-192 0 -344 -88.5t-237 -248t-85 -361.5q0 -313 190.5 -499t510.5 -186
q94 0 180.5 11.5t131.5 30.5v-142q-135 -44 -319 -44q-388 0 -619 227t-231 607q0 183 61 338.5t170 265t264 170.5t338 61z" />
    <glyph glyph-name="A" unicode="A" horiz-adv-x="1423" 
d="M1115 0l-132 383h-550l-133 -383h-230l521 1443h241l521 -1443h-238zM700 1181l-210 -610h436l-209 610h-17z" />
    <glyph glyph-name="B" unicode="B" horiz-adv-x="1373" 
d="M774 0h-593v1443h580q203 0 318.5 -96.5t115.5 -263.5q0 -113 -73 -202.5t-180 -107.5v-17q146 -15 235.5 -110.5t89.5 -236.5q0 -191 -131 -300t-362 -109zM405 1253v-421h266q148 0 224.5 53.5t76.5 156.5q0 100 -69.5 155.5t-193.5 55.5h-304zM405 190h324
q151 0 230 60t79 175q0 113 -82 171.5t-240 58.5h-311v-465z" />
    <glyph glyph-name="C" unicode="C" horiz-adv-x="1485" 
d="M773 -35q-301 0 -476 203t-175 553q0 351 174.5 554t475.5 203q238 0 405.5 -139.5t194.5 -360.5h-223q-32 133 -133.5 212t-243.5 79q-194 0 -307.5 -147.5t-113.5 -400.5q0 -252 113.5 -399.5t308.5 -147.5q143 0 244.5 72t131.5 194h223q-30 -214 -194 -344.5
t-405 -130.5z" />
    <glyph glyph-name="D" unicode="D" horiz-adv-x="1502" 
d="M181 1443h521q321 0 500 -188.5t179 -528.5q0 -346 -178 -536t-501 -190h-521v1443zM405 1239v-1035h272q227 0 351.5 135.5t124.5 383.5q0 244 -125.5 380t-350.5 136h-272z" />
    <glyph glyph-name="E" unicode="E" horiz-adv-x="1239" 
d="M1097 204v-204h-916v1443h916v-204h-692v-408h655v-194h-655v-433h692z" />
    <glyph glyph-name="F" unicode="F" horiz-adv-x="1191" 
d="M405 0h-224v1443h901v-204h-677v-443h620v-198h-620v-598z" />
    <glyph glyph-name="G" unicode="G" horiz-adv-x="1539" 
d="M1412 571q0 -277 -169.5 -441.5t-453.5 -164.5q-307 0 -487 204t-180 553q0 345 181 550.5t484 205.5q246 0 412 -129.5t203 -348.5h-225q-42 131 -142 200t-248 69q-200 0 -318 -147.5t-118 -397.5q0 -255 118.5 -402.5t322.5 -147.5q177 0 288 99t112 259v31h-372v188
h592v-180z" />
    <glyph glyph-name="H" unicode="H" horiz-adv-x="1550" 
d="M1369 0h-223v633h-741v-633h-224v1443h224v-606h741v606h223v-1443z" />
    <glyph glyph-name="I" unicode="I" horiz-adv-x="585" 
d="M405 0h-224v1443h224v-1443z" />
    <glyph glyph-name="J" unicode="J" horiz-adv-x="1148" 
d="M82 375h220q2 -89 62 -144t156 -55q108 0 166 63.5t58 183.5v1020h224v-1021q0 -217 -118.5 -337t-327.5 -120q-197 0 -318.5 112.5t-121.5 297.5z" />
    <glyph glyph-name="K" unicode="K" horiz-adv-x="1386" 
d="M405 0h-224v1443h224v-676h16l597 676h265l-558 -627l606 -816h-280l-484 655l-162 -181v-474z" />
    <glyph glyph-name="L" unicode="L" horiz-adv-x="1183" 
d="M1081 206v-206h-900v1443h224v-1237h676z" />
    <glyph glyph-name="M" unicode="M" horiz-adv-x="1822" 
d="M389 0h-208v1443h262l459 -1096h17l460 1096h262v-1443h-208v1042h-14l-423 -1000h-170l-423 1000h-14v-1042z" />
    <glyph glyph-name="N" unicode="N" horiz-adv-x="1539" 
d="M399 0h-218v1443h202l741 -1025h16v1025h218v-1443h-202l-741 1025h-16v-1025z" />
    <glyph glyph-name="O" unicode="O" horiz-adv-x="1590" 
d="M796 1478q312 0 492 -203.5t180 -552.5t-180 -553t-492 -204q-313 0 -493.5 203.5t-180.5 553.5q0 349 181.5 552.5t492.5 203.5zM796 1269q-204 0 -324.5 -148t-120.5 -399t119 -399.5t326 -148.5q205 0 324 148.5t119 399.5q0 252 -119 399.5t-324 147.5z" />
    <glyph glyph-name="P" unicode="P" horiz-adv-x="1329" 
d="M181 1443h565q212 0 344 -133.5t132 -347.5q0 -211 -135 -343.5t-348 -132.5h-334v-486h-224v1443zM405 1245v-562h282q145 0 225.5 72.5t80.5 206.5q0 137 -79 210t-227 73h-282z" />
    <glyph glyph-name="Q" unicode="Q" horiz-adv-x="1590" 
d="M1404 -153h-234l-118 159q-115 -41 -256 -41q-312 0 -493 202.5t-181 553.5q0 350 181.5 553.5t492.5 203.5q310 0 491 -203.5t181 -553.5q0 -206 -63.5 -363.5t-181.5 -248.5zM797 174q70 0 136 18l-181 251h229l108 -134q72 62 111 168t39 244q0 252 -120 400t-323 148
q-204 0 -324 -147.5t-120 -400.5t119.5 -400t325.5 -147z" />
    <glyph glyph-name="R" unicode="R" horiz-adv-x="1368" 
d="M405 1246v-505h322q130 0 201.5 66t71.5 187q0 118 -74.5 185t-204.5 67h-316zM405 550v-550h-224v1443h571q218 0 348 -120.5t130 -323.5q0 -146 -74.5 -256.5t-205.5 -155.5l324 -587h-259l-294 550h-316z" />
    <glyph glyph-name="S" unicode="S" horiz-adv-x="1333" 
d="M113 388h222q14 -103 107.5 -163.5t238.5 -60.5q135 0 223.5 62.5t88.5 158.5q0 82 -65.5 134.5t-209.5 86.5l-186 45q-196 46 -288 143t-92 256q0 193 144.5 310.5t380.5 117.5q220 0 365 -116t155 -298h-218q-16 100 -97.5 158t-207.5 58q-133 0 -214 -59t-81 -156
q0 -77 61.5 -125t202.5 -81l159 -39q222 -52 320 -147.5t98 -258.5q0 -207 -150 -328t-406 -121q-240 0 -389.5 115t-161.5 308z" />
    <glyph glyph-name="T" unicode="T" horiz-adv-x="1317" 
d="M771 0h-224v1239h-454v204h1131v-204h-453v-1239z" />
    <glyph glyph-name="U" unicode="U" horiz-adv-x="1538" 
d="M409 1443v-926q0 -154 95.5 -248t264.5 -94q170 0 265.5 94t95.5 248v926h224v-946q0 -238 -158.5 -385t-426.5 -147t-426 147t-158 385v946h224z" />
    <glyph glyph-name="V" unicode="V" horiz-adv-x="1415" 
d="M832 0h-246l-516 1443h244l389 -1163h17l387 1163h238z" />
    <glyph glyph-name="W" unicode="W" horiz-adv-x="2013" 
d="M999 1059l-309 -1059h-212l-389 1443h233l265 -1105h14l301 1105h208l303 -1105h14l264 1105h233l-390 -1443h-211l-310 1059h-14z" />
    <glyph glyph-name="X" unicode="X" horiz-adv-x="1427" 
d="M89 0l482 726l-477 717h267l351 -544h17l357 544h252l-490 -723l481 -720h-262l-354 534h-17l-359 -534h-248z" />
    <glyph glyph-name="Y" unicode="Y" horiz-adv-x="1383" 
d="M803 0h-224v582l-508 861h249l363 -625h17l363 625h249l-509 -861v-582z" />
    <glyph glyph-name="Z" unicode="Z" horiz-adv-x="1365" 
d="M141 0v161l784 1061v17h-760v204h1041v-161l-780 -1061v-17h799v-204h-1084z" />
    <glyph glyph-name="bracketleft" unicode="[" horiz-adv-x="790" 
d="M172 1444h496v-174h-288v-1337h300v-173h-508v1684z" />
    <glyph glyph-name="backslash" unicode="\" horiz-adv-x="733" 
d="M487 -309l-433 1752h195l431 -1752h-193z" />
    <glyph glyph-name="bracketright" unicode="]" horiz-adv-x="790" 
d="M618 1444v-1684h-508v173h300v1337h-287v174h495z" />
    <glyph glyph-name="asciicircum" unicode="^" horiz-adv-x="1014" 
d="M498 1262l-206 -478h-197l304 655h215l304 -655h-196l-207 478h-17z" />
    <glyph glyph-name="underscore" unicode="_" horiz-adv-x="926" 
d="M934 -278h-941v171h941v-171z" />
    <glyph glyph-name="grave" unicode="`" horiz-adv-x="1095" 
d="M798 1271h-221l-282 344h252z" />
    <glyph glyph-name="a" unicode="a" horiz-adv-x="1158" 
d="M512 163q121 0 201.5 68t80.5 170v91l-266 -17q-112 -7 -165 -46t-53 -111t56 -113.5t146 -41.5zM457 -18q-160 0 -261.5 89.5t-101.5 236.5q0 146 105 229.5t300 95.5l295 17v94q0 87 -57 133.5t-166 46.5q-90 0 -149.5 -31.5t-77.5 -89.5h-208q16 140 137.5 223.5
t307.5 83.5q204 0 315.5 -96.5t111.5 -269.5v-744h-207v153h-17q-49 -82 -134.5 -126.5t-192.5 -44.5z" />
    <glyph glyph-name="b" unicode="b" horiz-adv-x="1285" 
d="M733 -18q-114 0 -204.5 50t-139.5 140h-16v-172h-207v1514h215v-598h17q43 89 133 140t202 51q207 0 328.5 -151.5t121.5 -410.5t-122 -411t-328 -152zM671 914q-135 0 -214 -99.5t-80 -270.5q1 -171 79.5 -270t214.5 -99t213.5 98.5t77.5 271.5q0 172 -77.5 270.5
t-213.5 98.5z" />
    <glyph glyph-name="c" unicode="c" horiz-adv-x="1167" 
d="M1078 733h-209q-20 83 -86.5 134t-170.5 51q-135 0 -212.5 -98t-77.5 -272q0 -176 77.5 -276.5t212.5 -100.5q103 0 169.5 46t87.5 133h209q-21 -168 -144 -269.5t-321 -101.5q-238 0 -374.5 151.5t-136.5 417.5q0 262 136 412t374 150q199 0 321.5 -104t144.5 -273z" />
    <glyph glyph-name="d" unicode="d" horiz-adv-x="1285" 
d="M554 -18q-208 0 -330 152t-122 411q0 258 122.5 410t329.5 152q112 0 201 -50.5t133 -140.5h16v598h215v-1514h-206v172h-17q-49 -89 -139.5 -139.5t-202.5 -50.5zM615 914q-136 0 -213.5 -98.5t-77.5 -270.5q0 -173 77.5 -271.5t213.5 -98.5t214.5 99t78.5 270
q0 170 -79 270t-214 100z" />
    <glyph glyph-name="e" unicode="e" horiz-adv-x="1192" 
d="M603 927q-119 0 -196 -77t-86 -205h550q-4 129 -76.5 205.5t-191.5 76.5zM870 294h207q-37 -147 -161.5 -231t-310.5 -84q-234 0 -368.5 150.5t-134.5 411.5t136 415t366 154q227 0 356.5 -146t129.5 -403v-75h-769v-12q5 -144 83 -228t207 -84q197 0 259 132z" />
    <glyph glyph-name="f" unicode="f" horiz-adv-x="775" 
d="M232 0v903h-179v181h179v108q0 164 84 238t257 74q60 0 121 -10v-172q-46 8 -96 8q-153 0 -153 -150v-96h241v-181h-239v-903h-215z" />
    <glyph glyph-name="g" unicode="g" horiz-adv-x="1274" 
d="M907 558q0 163 -79 259.5t-216 96.5t-213 -95.5t-76 -260.5t76 -260.5t213 -95.5t216 96t79 260zM615 -416q-202 0 -328 83.5t-143 223.5h220q14 -60 80.5 -95t173.5 -35q134 0 209.5 60.5t75.5 168.5v209h-16q-49 -88 -136 -135.5t-200 -47.5q-207 0 -328.5 147.5
t-121.5 393.5q0 250 122 400t330 150q112 0 204 -51.5t138 -140.5h17v174h206v-1098q0 -187 -136 -297t-367 -110z" />
    <glyph glyph-name="h" unicode="h" horiz-adv-x="1271" 
d="M166 0v1514h213v-600h17q40 92 130 143.5t213 51.5q184 0 284.5 -106t100.5 -300v-703h-215v650q0 262 -243 262q-131 0 -208 -75.5t-77 -200.5v-636h-215z" />
    <glyph glyph-name="i" unicode="i" horiz-adv-x="534" 
d="M160 0v1089h214v-1089h-214zM267 1280q-60 0 -99.5 37.5t-39.5 93.5t39.5 94t99.5 38t99.5 -38t39.5 -94t-39.5 -93.5t-99.5 -37.5z" />
    <glyph glyph-name="j" unicode="j" horiz-adv-x="534" 
d="M374 1089v-1149q0 -167 -86.5 -247t-264.5 -80q-43 0 -48 1v180h30q85 0 120 34t35 114v1147h214zM267 1280q-60 0 -99.5 37.5t-39.5 93.5t39.5 94t99.5 38t99.5 -38t39.5 -94t-39.5 -93.5t-99.5 -37.5z" />
    <glyph glyph-name="k" unicode="k" horiz-adv-x="1155" 
d="M398 635l432 454h254l-448 -467l478 -622h-264l-374 480l-95 -90v-390h-215v1514h215v-879h17z" />
    <glyph glyph-name="l" unicode="l" horiz-adv-x="547" 
d="M166 0v1514h215v-1514h-215z" />
    <glyph glyph-name="m" unicode="m" horiz-adv-x="1824" 
d="M156 0v1089h207v-175h16q36 93 115.5 144.5t187.5 51.5q109 0 186 -52t114 -144h17q42 90 130.5 143t200.5 53q165 0 256.5 -95t91.5 -265v-750h-215v694q0 219 -211 219q-103 0 -166.5 -65t-63.5 -163v-685h-211v715q0 92 -57 145t-153 53q-98 0 -164 -71t-66 -176v-666
h-215z" />
    <glyph glyph-name="n" unicode="n" horiz-adv-x="1249" 
d="M156 0v1089h207v-173h16q40 91 130.5 142.5t213.5 51.5q182 0 281 -105.5t99 -299.5v-705h-215v651q0 262 -238 262q-130 0 -204.5 -74t-74.5 -202v-637h-215z" />
    <glyph glyph-name="o" unicode="o" horiz-adv-x="1231" 
d="M616 170q139 0 215.5 98.5t76.5 276.5q0 177 -76.5 275.5t-215.5 98.5q-140 0 -216 -98t-76 -276q0 -179 76 -277t216 -98zM616 -21q-240 0 -377 151t-137 415q0 263 137.5 414t376.5 151q238 0 375.5 -151t137.5 -414q0 -264 -137 -415t-376 -151z" />
    <glyph glyph-name="p" unicode="p" horiz-adv-x="1275" 
d="M721 1107q208 0 330 -151.5t122 -410.5t-121.5 -411t-328.5 -152q-116 0 -204 48.5t-131 134.5h-17v-518h-215v1442h207v-180h16q49 93 140 145.5t202 52.5zM660 175q137 0 214.5 98.5t77.5 271.5t-77.5 271t-213.5 98t-215 -99.5t-79 -270.5q0 -170 79 -269.5t214 -99.5
z" />
    <glyph glyph-name="q" unicode="q" horiz-adv-x="1275" 
d="M553 1107q111 0 202.5 -53.5t138.5 -144.5h17v180h208v-1442h-216v518h-17q-102 -183 -335 -183q-207 0 -328 151.5t-121 411.5q0 257 122.5 409.5t328.5 152.5zM612 175q137 0 216 99t79 270q0 170 -79 270t-215 100t-212.5 -98t-76.5 -271q0 -174 76 -272t212 -98z" />
    <glyph glyph-name="r" unicode="r" horiz-adv-x="808" 
d="M156 0v1089h207v-167h16q23 81 105 133t188 52q60 0 95 -9v-212q-37 13 -119 13q-122 0 -199.5 -71t-77.5 -185v-643h-215z" />
    <glyph glyph-name="s" unicode="s" horiz-adv-x="1104" 
d="M131 781q0 144 119 236.5t304 92.5q184 0 297 -81t129 -225h-206q-15 61 -72.5 96t-147.5 35q-91 0 -151 -39.5t-60 -102.5q0 -49 42 -81t131 -52l181 -42q157 -36 230.5 -107t73.5 -190q0 -152 -127 -247t-324 -95q-194 0 -313.5 82.5t-133.5 227.5h215q21 -64 81 -100
t156 -36q101 0 165 41t64 106q0 95 -160 133l-190 44q-156 37 -229.5 110t-73.5 194z" />
    <glyph glyph-name="t" unicode="t" horiz-adv-x="780" 
d="M232 1353h215v-269h244v-181h-244v-560q0 -85 37 -124.5t117 -39.5q30 0 80 5v-179q-62 -11 -115 -11q-179 0 -256.5 68t-77.5 226v615h-179v181h179v269z" />
    <glyph glyph-name="u" unicode="u" horiz-adv-x="1252" 
d="M1095 1089v-1089h-206v173h-17q-40 -93 -129 -143.5t-212 -50.5q-182 0 -283.5 106t-101.5 299v705h215v-651q0 -260 240 -260q130 0 205 73t75 201v637h214z" />
    <glyph glyph-name="v" unicode="v" horiz-adv-x="1140" 
d="M62 1089h230l271 -859h17l270 859h228l-392 -1089h-231z" />
    <glyph glyph-name="w" unicode="w" horiz-adv-x="1640" 
d="M1574 1089l-299 -1089h-223l-225 802h-17l-224 -802h-221l-300 1089h218l195 -831h16l224 831h206l224 -831h17l194 831h215z" />
    <glyph glyph-name="x" unicode="x" horiz-adv-x="1117" 
d="M563 386h-16l-238 -386h-236l361 542l-364 547h251l234 -384h17l232 384h239l-359 -538l363 -551h-247z" />
    <glyph glyph-name="y" unicode="y" horiz-adv-x="1152" 
d="M264 -396q-64 0 -89 5v185q23 -4 70 -4q77 0 123 35.5t74 117.5l16 53l-394 1093h234l273 -865h17l272 865h228l-406 -1134q-70 -199 -160.5 -275t-257.5 -76z" />
    <glyph glyph-name="z" unicode="z" horiz-adv-x="1124" 
d="M131 0v146l599 744v17h-595v182h852v-157l-586 -733v-17h592v-182h-862z" />
    <glyph glyph-name="braceleft" unicode="{" horiz-adv-x="861" 
d="M317 604q94 -9 142 -72t48 -176v-301q0 -118 51.5 -167t174.5 -49h45v-175h-76q-207 0 -304 89t-97 278v258q0 118 -38 163.5t-136 45.5v229q98 0 136 46.5t38 164.5v224q0 186 97 272t304 86h76v-175h-45q-124 0 -175 -48.5t-51 -168.5v-270q0 -219 -190 -237v-17z" />
    <glyph glyph-name="bar" unicode="|" horiz-adv-x="702" 
d="M447 -310h-191v1753h191v-1753z" />
    <glyph glyph-name="braceright" unicode="}" horiz-adv-x="861" 
d="M544 604v17q-190 18 -190 237v270q0 120 -51 168.5t-175 48.5h-45v175h76q207 0 304 -86t97 -272v-224q0 -118 38 -164.5t136 -46.5v-229q-98 0 -136 -45.5t-38 -163.5v-258q0 -189 -97 -278t-304 -89h-76v175h45q123 0 174.5 49t51.5 167v301q0 113 48 176t142 72z" />
    <glyph glyph-name="asciitilde" unicode="~" horiz-adv-x="1210" 
d="M560 630q-52 52 -85 72t-67 20q-124 0 -133 -178h-184q-1 5 -1 16q-1 170 83 268t229 98q65 0 124 -30t126 -98q50 -50 84 -70.5t66 -20.5q125 0 134 179h183q1 -6 1 -16q1 -170 -82 -268t-228 -98q-66 0 -124.5 29.5t-125.5 96.5z" />
    <glyph glyph-name="nonbreakingspace" unicode="&#xa0;" horiz-adv-x="560" 
 />
    <glyph glyph-name="exclamdown" unicode="&#xa1;" horiz-adv-x="670" 
d="M213 -333l21 966h202l20 -966h-243zM181 981q0 69 42.5 111t112.5 42q69 0 111 -42t42 -111t-42 -111t-111 -42q-70 0 -112.5 42t-42.5 111z" />
    <glyph glyph-name="cent" unicode="&#xa2;" horiz-adv-x="1359" 
d="M1198 517q-20 -149 -129 -245.5t-275 -118.5v-176h-197v179q-197 34 -317 182.5t-120 375.5q0 223 120.5 371t316.5 182v178h197v-175q163 -25 273.5 -124t130.5 -246h-209q-28 86 -104 135.5t-183 49.5q-139 0 -230.5 -101.5t-91.5 -269.5q0 -171 91.5 -273.5
t230.5 -102.5q116 0 190 47t97 132h209z" />
    <glyph glyph-name="sterling" unicode="&#xa3;" horiz-adv-x="1359" 
d="M1217 199v-199h-1085v190q133 25 219 120.5t87 217.5q0 57 -18 116h-286v174h231q-61 155 -61 254q0 191 140.5 298.5t391.5 107.5q173 0 310 -38v-196q-138 39 -289 39q-152 0 -239 -62t-87 -170q0 -97 52 -233h453v-174h-399q17 -58 17 -110q2 -97 -47.5 -182.5
t-136.5 -135.5v-17h747z" />
    <glyph glyph-name="currency" unicode="&#xa4;" horiz-adv-x="1359" 
d="M427 653q0 -103 74.5 -177t178.5 -74t179 74t75 177q0 102 -75 176t-179 74q-103 0 -178 -74t-75 -176zM1190 1033l-159 -160q62 -102 62 -220q0 -119 -62 -221l159 -161l-128 -135l-161 163q-101 -66 -221 -66t-221 66l-162 -163l-127 135l160 162q-62 102 -62 220
t62 220l-160 160l127 135l162 -162q101 66 221 66t222 -66l160 162z" />
    <glyph glyph-name="yen" unicode="&#xa5;" horiz-adv-x="1359" 
d="M1066 242h-274v-242h-224v242h-275v150h275v152h-275v150h213l-447 749h249l363 -625h17l363 625h249l-446 -749h212v-150h-274v-152h274v-150z" />
    <glyph glyph-name="brokenbar" unicode="&#xa6;" horiz-adv-x="702" 
d="M447 774h-191v669h191v-669zM447 -310h-191v669h191v-669z" />
    <glyph glyph-name="section" unicode="&#xa7;" horiz-adv-x="1032" 
d="M456 424l92 -27q80 4 135 52.5t55 115.5q0 56 -41.5 96t-118.5 58l-92 27q-79 -4 -135 -53t-56 -115q0 -55 42.5 -95.5t118.5 -58.5zM519 -270q-177 0 -293.5 87.5t-125.5 227.5h204q9 -63 70.5 -102t151.5 -39q93 0 151 40t58 105q0 50 -42.5 84t-137.5 60l-154 47
q-162 48 -236.5 118t-74.5 176q0 95 58.5 165t162.5 100v17q-215 90 -215 273q0 145 114.5 234.5t300.5 89.5q172 0 283 -83.5t126 -223.5h-201q-9 60 -66.5 96.5t-144.5 36.5q-92 0 -148.5 -39.5t-56.5 -104.5q0 -50 41.5 -84t135.5 -61l152 -47q162 -49 236 -117.5
t74 -170.5q0 -100 -68 -177.5t-178 -103.5v-17q243 -70 243 -261q0 -145 -117 -235.5t-303 -90.5z" />
    <glyph glyph-name="dieresis" unicode="&#xa8;" horiz-adv-x="1122" 
d="M348 1265q-57 0 -95.5 38.5t-38.5 95.5t38.5 96t95.5 39q56 0 94.5 -39t38.5 -96t-38.5 -95.5t-94.5 -38.5zM775 1265q-56 0 -95 38.5t-39 95.5t39 96t95 39t94.5 -39t38.5 -96t-38.5 -95.5t-94.5 -38.5z" />
    <glyph glyph-name="copyright" unicode="&#xa9;" horiz-adv-x="1742" 
d="M871 -154q-164 0 -311 61.5t-252 167t-166.5 252.5t-61.5 311t61.5 311t166.5 252t252 166.5t311 61.5q220 0 401.5 -104t285.5 -285.5t104 -401.5t-104 -401.5t-285.5 -286t-401.5 -104.5zM871 -3q134 0 253 49.5t204.5 135t135 204.5t49.5 252t-49.5 252t-135 204
t-204.5 134.5t-253 49.5q-179 0 -326.5 -84.5t-231.5 -231.5t-84 -324q0 -178 84.5 -325t232 -231.5t325.5 -84.5zM1245 764h-157q-16 65 -70 104t-130 39q-105 0 -166 -72t-61 -196q0 -126 61 -198.5t166 -72.5q80 0 132 36t68 101h157q-17 -128 -113.5 -203t-243.5 -75
q-180 0 -285.5 111t-105.5 301q0 187 105.5 298t284.5 111q144 0 242 -77.5t116 -206.5z" />
    <glyph glyph-name="ordfeminine" unicode="&#xaa;" horiz-adv-x="974" 
d="M457 670q93 0 154.5 54t61.5 136v85l-206 -15q-173 -12 -173 -130q0 -60 44 -95t119 -35zM391 507q-136 0 -218 77t-82 205q0 125 89.5 196.5t258.5 81.5l231 14v77q1 64 -46.5 100t-132.5 36q-69 0 -114 -26t-55 -72h-196q10 124 110.5 196t261.5 72q174 0 272.5 -82.5
t98.5 -228.5v-624h-192v117h-17q-37 -66 -108 -102.5t-161 -36.5z" />
    <glyph glyph-name="guillemotleft" unicode="&#xab;" horiz-adv-x="1411" 
d="M890 573v-14l350 -411h-231l-348 413v8l351 414h228zM399 573v-14l350 -411h-230l-348 413v8l350 414h228z" />
    <glyph glyph-name="logicalnot" unicode="&#xac;" horiz-adv-x="1359" 
d="M1171 680v-583h-186v387h-797v196h983z" />
    <glyph glyph-name="registered" unicode="&#xae;" horiz-adv-x="1260" 
d="M630 416q-144 0 -264.5 70t-190.5 191t-70 265t70 265t190.5 191t264.5 70t265 -70t190.5 -191t69.5 -265q0 -219 -153 -372.5t-372 -153.5zM630 534q172 0 291 119t119 289q0 171 -119 289.5t-291 118.5q-171 0 -290.5 -118.5t-119.5 -289.5q0 -170 119.5 -289
t290.5 -119zM534 705h-108v494h251q77 0 127 -43.5t50 -111.5q0 -119 -112 -149l134 -190h-130l-123 175h-89v-175zM534 1103v-133h115q87 0 87 68q0 65 -85 65h-117z" />
    <glyph glyph-name="macron" unicode="&#xaf;" horiz-adv-x="1048" 
d="M872 1299h-696v155h696v-155z" />
    <glyph glyph-name="degree" unicode="&#xb0;" horiz-adv-x="896" 
d="M447 789q-141 0 -235.5 97t-94.5 236t94.5 236.5t235.5 97.5t236.5 -97.5t95.5 -236.5t-95.5 -236t-236.5 -97zM447 939q83 0 136 53.5t53 129.5q0 78 -53 131t-136 53t-135 -53t-52 -131q0 -76 52 -129.5t135 -53.5z" />
    <glyph glyph-name="plusminus" unicode="&#xb1;" horiz-adv-x="1359" 
d="M1185 94h-1011v182h1011v-182zM772 657v-267h-185v267h-413v174h413v266h185v-266h413v-174h-413z" />
    <glyph glyph-name="two.sups" unicode="&#xb2;" horiz-adv-x="857" 
d="M90 1535q0 134 92.5 217t242.5 83q145 0 235.5 -74.5t90.5 -194.5q0 -79 -46.5 -152.5t-169.5 -182.5l-160 -147v-17h390v-169h-663v144l292 279q96 91 128.5 137t32.5 92q0 53 -38.5 87t-99.5 34q-63 0 -102.5 -37.5t-39.5 -98.5v-4h-185v4z" />
    <glyph glyph-name="three.sups" unicode="&#xb3;" horiz-adv-x="888" 
d="M326 1290v146h111q63 0 102 33t39 86q0 52 -39 83.5t-103 31.5t-104 -33.5t-45 -90.5h-184q4 131 95.5 209t242.5 78q143 0 235 -69.5t92 -178.5q0 -78 -47 -134.5t-123 -70.5v-17q94 -8 149.5 -66.5t55.5 -148.5q0 -121 -101.5 -198.5t-259.5 -77.5q-157 0 -253.5 80
t-100.5 213h188q5 -56 49.5 -90t116.5 -34q71 0 115 35t44 90q0 58 -43 91t-119 33h-113z" />
    <glyph glyph-name="acute" unicode="&#xb4;" horiz-adv-x="1095" 
d="M276 1271l251 344h252l-281 -344h-222z" />
    <glyph glyph-name="paragraph" unicode="&#xb6;" horiz-adv-x="1414" 
d="M882 -237h-216v754h-20q-210 0 -351 131t-141 327q0 203 140 335.5t353 132.5h235v-1680zM1036 -237v1680h216v-1680h-216z" />
    <glyph glyph-name="periodcentered" unicode="&#xb7;" horiz-adv-x="663" 
d="M333 579q-70 0 -113.5 44t-43.5 114q0 69 43.5 113.5t113.5 44.5q69 0 112 -44.5t43 -113.5q0 -70 -43 -114t-112 -44z" />
    <glyph glyph-name="cedilla" unicode="&#xb8;" horiz-adv-x="1095" 
d="M398 -243v98l60 147h148l-52 -131q99 -2 153.5 -46t54.5 -123q0 -90 -67 -143t-185 -53q-87 0 -147 18v119q46 -14 120 -14q116 0 116 67q0 32 -33 46.5t-109 14.5h-59z" />
    <glyph glyph-name="one.sups" unicode="&#xb9;" horiz-adv-x="699" 
d="M517 898h-196v715h-17q-11 -7 -113.5 -78t-104.5 -73v188q89 67 234 162h197v-914z" />
    <glyph glyph-name="ordmasculine" unicode="&#xba;" horiz-adv-x="1054" 
d="M527 681q108 0 167.5 79.5t59.5 224.5t-59.5 224.5t-167.5 79.5t-167.5 -80t-59.5 -224q0 -145 59 -224.5t168 -79.5zM527 507q-204 0 -320.5 127.5t-116.5 350.5q0 221 117.5 349.5t319.5 128.5q203 0 319.5 -127.5t116.5 -350.5q0 -224 -116 -351t-320 -127z" />
    <glyph glyph-name="guillemotright" unicode="&#xbb;" horiz-adv-x="1411" 
d="M521 573l-350 410h228l351 -414v-8l-348 -413h-231l350 411v14zM1012 573l-350 410h228l350 -414v-8l-348 -413h-230l350 411v14z" />
    <glyph glyph-name="onequarter" unicode="&#xbc;" horiz-adv-x="2051" 
d="M1571 914h280v-595h117v-161h-120v-158h-185v154h-463v173q48 93 125.5 216t245.5 371zM1379 320v-6h285v441h-8q-210 -314 -277 -435zM517 529h-196v715h-17q-11 -7 -113.5 -78t-104.5 -73v188q89 67 234 162h197v-914zM528 0l356 754l303 689h205l-347 -730l-312 -713
h-205z" />
    <glyph glyph-name="onehalf" unicode="&#xbd;" horiz-adv-x="2055" 
d="M1288 637q0 134 92.5 217t242.5 83q145 0 235.5 -74.5t90.5 -194.5q0 -79 -46.5 -152.5t-169.5 -182.5l-160 -147v-17h390v-169h-663v144l292 279q96 91 128.5 137t32.5 92q0 53 -38.5 87t-99.5 34q-63 0 -102.5 -37.5t-39.5 -98.5v-4h-185v4zM517 529h-196v715h-17
q-11 -7 -113.5 -78t-104.5 -73v188q89 67 234 162h197v-914zM528 0l356 754l303 689h205l-347 -730l-312 -713h-205z" />
    <glyph glyph-name="threequarters" unicode="&#xbe;" horiz-adv-x="2230" 
d="M326 921v146h111q63 0 102 33t39 86q0 52 -39 83.5t-103 31.5t-104 -33.5t-45 -90.5h-184q4 131 95.5 209t242.5 78q143 0 235 -69.5t92 -178.5q0 -78 -47 -134.5t-123 -70.5v-17q94 -8 149.5 -66.5t55.5 -148.5q0 -121 -101.5 -198.5t-259.5 -77.5q-157 0 -253.5 80
t-100.5 213h188q5 -56 49.5 -90t116.5 -34q71 0 115 35t44 90q0 58 -43 91t-119 33h-113zM1751 914h280v-595h117v-161h-120v-158h-185v154h-463v173q48 93 125.5 216t245.5 371zM1559 320v-6h285v441h-8q-210 -314 -277 -435zM707 0l356 754l303 689h205l-347 -730
l-312 -713h-205z" />
    <glyph glyph-name="questiondown" unicode="&#xbf;" horiz-adv-x="1083" 
d="M1004 58q-7 -180 -125 -292t-328 -112q-198 0 -321 105.5t-123 270.5q0 214 211 340q96 58 130.5 106t34.5 125v59h207l1 -75q4 -107 -41.5 -180t-150.5 -136q-91 -56 -127.5 -106.5t-36.5 -123.5q0 -85 62 -138.5t164 -53.5q103 0 165.5 56.5t69.5 154.5h208zM576 827
q-69 0 -112 42t-43 111q0 68 43 110.5t112 42.5t111 -42.5t42 -110.5q0 -69 -42 -111t-111 -42z" />
    <glyph glyph-name="Agrave" unicode="&#xc0;" horiz-adv-x="1423" 
d="M1115 0l-132 383h-550l-133 -383h-230l521 1443h241l521 -1443h-238zM700 1181l-210 -610h436l-209 610h-17zM531 1888l298 -306h-230l-326 306h258z" />
    <glyph glyph-name="Aacute" unicode="&#xc1;" horiz-adv-x="1423" 
d="M1115 0l-132 383h-550l-133 -383h-230l521 1443h241l521 -1443h-238zM700 1181l-210 -610h436l-209 610h-17zM594 1582l297 306h258l-325 -306h-230z" />
    <glyph glyph-name="Acircumflex" unicode="&#xc2;" horiz-adv-x="1423" 
d="M1115 0l-132 383h-550l-133 -383h-230l521 1443h241l521 -1443h-238zM700 1181l-210 -610h436l-209 610h-17zM813 1896l295 -314h-225l-163 181h-16l-163 -181h-225l295 314h202z" />
    <glyph glyph-name="Atilde" unicode="&#xc3;" horiz-adv-x="1423" 
d="M1115 0l-132 383h-550l-133 -383h-230l521 1443h241l521 -1443h-238zM700 1181l-210 -610h436l-209 610h-17zM865 1576q-45 0 -82.5 16t-63 39l-48.5 45.5t-48.5 38.5t-52.5 16q-87 0 -92 -141h-153q0 138 63.5 215.5t170.5 77.5q47 0 87 -16t66.5 -38.5t49.5 -45.5
t46 -39t46 -16q86 0 92 140h153q0 -135 -64 -213.5t-170 -78.5z" />
    <glyph glyph-name="Adieresis" unicode="&#xc4;" horiz-adv-x="1423" 
d="M1115 0l-132 383h-550l-133 -383h-230l521 1443h241l521 -1443h-238zM700 1181l-210 -610h436l-209 610h-17zM499 1577q-57 0 -95.5 38.5t-38.5 95.5t38.5 96t95.5 39q56 0 94.5 -39t38.5 -96t-38.5 -95.5t-94.5 -38.5zM926 1577q-56 0 -95 38.5t-39 95.5t39 96t95 39
t94.5 -39t38.5 -96t-38.5 -95.5t-94.5 -38.5z" />
    <glyph glyph-name="Aring" unicode="&#xc5;" horiz-adv-x="1423" 
d="M1115 0l-132 383h-550l-133 -383h-230l521 1443h241l521 -1443h-238zM700 1181l-210 -610h436l-209 610h-17zM712 1574q-99 0 -168 67.5t-69 166.5t68.5 166t168.5 67t168.5 -67t68.5 -166t-69 -166.5t-168 -67.5zM712 1693q50 0 83 32.5t33 82.5q0 49 -33 81.5t-83 32.5
t-83 -32.5t-33 -81.5q0 -50 33 -82.5t83 -32.5z" />
    <glyph glyph-name="AE" unicode="&#xc6;" horiz-adv-x="1999" 
d="M987 1253h-140l-288 -647h428v647zM987 0v417h-504l-189 -417h-224l631 1443h1156v-204h-655v-415h618v-195h-618v-425h655v-204h-870z" />
    <glyph glyph-name="Ccedilla" unicode="&#xc7;" horiz-adv-x="1485" 
d="M1372 978h-223q-32 133 -133.5 212t-243.5 79q-194 0 -307.5 -147.5t-113.5 -400.5q0 -252 113.5 -399.5t308.5 -147.5q143 0 244.5 72t131.5 194h223q-28 -196 -169.5 -323.5t-353.5 -147.5l-39 -98q99 -2 153.5 -46t54.5 -123q0 -90 -67 -143t-185 -53q-87 0 -147 18
v119q46 -14 120 -14q116 0 116 67q0 32 -33 46.5t-109 14.5h-59v98l46 113q-269 25 -423.5 225t-154.5 528q0 351 174.5 554t475.5 203q238 0 405.5 -139.5t194.5 -360.5z" />
    <glyph glyph-name="Egrave" unicode="&#xc8;" horiz-adv-x="1239" 
d="M458 1888l298 -306h-230l-326 306h258zM1097 204v-204h-916v1443h916v-204h-692v-408h655v-194h-655v-433h692z" />
    <glyph glyph-name="Eacute" unicode="&#xc9;" horiz-adv-x="1239" 
d="M521 1582l297 306h258l-325 -306h-230zM1097 204v-204h-916v1443h916v-204h-692v-408h655v-194h-655v-433h692z" />
    <glyph glyph-name="Ecircumflex" unicode="&#xca;" horiz-adv-x="1239" 
d="M740 1896l295 -314h-225l-163 181h-16l-163 -181h-225l295 314h202zM1097 204v-204h-916v1443h916v-204h-692v-408h655v-194h-655v-433h692z" />
    <glyph glyph-name="Edieresis" unicode="&#xcb;" horiz-adv-x="1239" 
d="M426 1577q-57 0 -95.5 38.5t-38.5 95.5t38.5 96t95.5 39q56 0 94.5 -39t38.5 -96t-38.5 -95.5t-94.5 -38.5zM853 1577q-56 0 -95 38.5t-39 95.5t39 96t95 39t94.5 -39t38.5 -96t-38.5 -95.5t-94.5 -38.5zM1097 204v-204h-916v1443h916v-204h-692v-408h655v-194h-655v-433
h692z" />
    <glyph glyph-name="Igrave" unicode="&#xcc;" horiz-adv-x="585" 
d="M405 0h-224v1443h224v-1443zM112 1888l298 -306h-230l-326 306h258z" />
    <glyph glyph-name="Iacute" unicode="&#xcd;" horiz-adv-x="585" 
d="M405 0h-224v1443h224v-1443zM175 1582l297 306h258l-325 -306h-230z" />
    <glyph glyph-name="Icircumflex" unicode="&#xce;" horiz-adv-x="585" 
d="M405 0h-224v1443h224v-1443zM394 1896l295 -314h-225l-163 181h-16l-163 -181h-225l295 314h202z" />
    <glyph glyph-name="Idieresis" unicode="&#xcf;" horiz-adv-x="585" 
d="M405 0h-224v1443h224v-1443zM80 1577q-57 0 -95.5 38.5t-38.5 95.5t38.5 96t95.5 39q56 0 94.5 -39t38.5 -96t-38.5 -95.5t-94.5 -38.5zM507 1577q-56 0 -95 38.5t-39 95.5t39 96t95 39t94.5 -39t38.5 -96t-38.5 -95.5t-94.5 -38.5z" />
    <glyph glyph-name="Eth" unicode="&#xd0;" horiz-adv-x="1469" 
d="M405 204h272q227 0 351.5 135.5t124.5 383.5q0 244 -125.5 380t-350.5 136h-272v-405h224v-191h-224v-439zM181 1443h521q321 0 500 -188.5t179 -528.5q0 -346 -178 -536t-501 -190h-521v643h-162v191h162v609z" />
    <glyph glyph-name="Ntilde" unicode="&#xd1;" horiz-adv-x="1539" 
d="M921 1576q-45 0 -82.5 16t-63 39l-48.5 45.5t-48.5 38.5t-52.5 16q-87 0 -92 -141h-153q0 138 63.5 215.5t170.5 77.5q47 0 87 -16t66.5 -38.5t49.5 -45.5t46 -39t46 -16q86 0 92 140h153q0 -135 -64 -213.5t-170 -78.5zM399 0h-218v1443h202l741 -1025h16v1025h218
v-1443h-202l-741 1025h-16v-1025z" />
    <glyph glyph-name="Ograve" unicode="&#xd2;" horiz-adv-x="1590" 
d="M615 1888l298 -306h-230l-326 306h258zM796 1478q312 0 492 -203.5t180 -552.5t-180 -553t-492 -204q-313 0 -493.5 203.5t-180.5 553.5q0 349 181.5 552.5t492.5 203.5zM796 1269q-204 0 -324.5 -148t-120.5 -399t119 -399.5t326 -148.5q205 0 324 148.5t119 399.5
q0 252 -119 399.5t-324 147.5z" />
    <glyph glyph-name="Oacute" unicode="&#xd3;" horiz-adv-x="1590" 
d="M678 1582l297 306h258l-325 -306h-230zM796 1478q312 0 492 -203.5t180 -552.5t-180 -553t-492 -204q-313 0 -493.5 203.5t-180.5 553.5q0 349 181.5 552.5t492.5 203.5zM796 1269q-204 0 -324.5 -148t-120.5 -399t119 -399.5t326 -148.5q205 0 324 148.5t119 399.5
q0 252 -119 399.5t-324 147.5z" />
    <glyph glyph-name="Ocircumflex" unicode="&#xd4;" horiz-adv-x="1590" 
d="M897 1896l295 -314h-225l-163 181h-16l-163 -181h-225l295 314h202zM796 1478q312 0 492 -203.5t180 -552.5t-180 -553t-492 -204q-313 0 -493.5 203.5t-180.5 553.5q0 349 181.5 552.5t492.5 203.5zM796 1269q-204 0 -324.5 -148t-120.5 -399t119 -399.5t326 -148.5
q205 0 324 148.5t119 399.5q0 252 -119 399.5t-324 147.5z" />
    <glyph glyph-name="Otilde" unicode="&#xd5;" horiz-adv-x="1590" 
d="M796 1478q312 0 492 -203.5t180 -552.5t-180 -553t-492 -204q-313 0 -493.5 203.5t-180.5 553.5q0 349 181.5 552.5t492.5 203.5zM796 1269q-204 0 -324.5 -148t-120.5 -399t119 -399.5t326 -148.5q205 0 324 148.5t119 399.5q0 252 -119 399.5t-324 147.5zM949 1576
q-45 0 -82.5 16t-63 39l-48.5 45.5t-48.5 38.5t-52.5 16q-87 0 -92 -141h-153q0 138 63.5 215.5t170.5 77.5q47 0 87 -16t66.5 -38.5t49.5 -45.5t46 -39t46 -16q86 0 92 140h153q0 -135 -64 -213.5t-170 -78.5z" />
    <glyph glyph-name="Odieresis" unicode="&#xd6;" horiz-adv-x="1590" 
d="M583 1577q-57 0 -95.5 38.5t-38.5 95.5t38.5 96t95.5 39q56 0 94.5 -39t38.5 -96t-38.5 -95.5t-94.5 -38.5zM1010 1577q-56 0 -95 38.5t-39 95.5t39 96t95 39t94.5 -39t38.5 -96t-38.5 -95.5t-94.5 -38.5zM796 1478q312 0 492 -203.5t180 -552.5t-180 -553t-492 -204
q-313 0 -493.5 203.5t-180.5 553.5q0 349 181.5 552.5t492.5 203.5zM796 1269q-204 0 -324.5 -148t-120.5 -399t119 -399.5t326 -148.5q205 0 324 148.5t119 399.5q0 252 -119 399.5t-324 147.5z" />
    <glyph glyph-name="multiply" unicode="&#xd7;" horiz-adv-x="1359" 
d="M680 443l-307 -305l-130 138l306 306l-306 306l130 138l307 -305l306 305l130 -138l-306 -306l306 -306l-130 -138z" />
    <glyph glyph-name="Oslash" unicode="&#xd8;" horiz-adv-x="1566" 
d="M1133 1105l-609 -838q110 -93 272 -93q205 0 324 148.5t119 399.5q0 236 -106 383zM442 362l605 830q-105 77 -251 77q-204 0 -324.5 -148t-120.5 -399q0 -217 91 -360zM1370 1432l-100 -138q198 -204 198 -572q0 -349 -180 -553t-492 -204q-236 0 -404 121l-103 -142
l-101 71l113 155q-179 202 -179 552q0 349 181.5 552.5t492.5 203.5q223 0 382 -107l91 125z" />
    <glyph glyph-name="Ugrave" unicode="&#xd9;" horiz-adv-x="1539" 
d="M588 1888l298 -306h-230l-326 306h258zM409 1443v-926q0 -154 95.5 -248t264.5 -94q170 0 265.5 94t95.5 248v926h224v-946q0 -238 -158.5 -385t-426.5 -147t-426 147t-158 385v946h224z" />
    <glyph glyph-name="Uacute" unicode="&#xda;" horiz-adv-x="1539" 
d="M651 1582l297 306h258l-325 -306h-230zM409 1443v-926q0 -154 95.5 -248t264.5 -94q170 0 265.5 94t95.5 248v926h224v-946q0 -238 -158.5 -385t-426.5 -147t-426 147t-158 385v946h224z" />
    <glyph glyph-name="Ucircumflex" unicode="&#xdb;" horiz-adv-x="1539" 
d="M870 1896l295 -314h-225l-163 181h-16l-163 -181h-225l295 314h202zM409 1443v-926q0 -154 95.5 -248t264.5 -94q170 0 265.5 94t95.5 248v926h224v-946q0 -238 -158.5 -385t-426.5 -147t-426 147t-158 385v946h224z" />
    <glyph glyph-name="Udieresis" unicode="&#xdc;" horiz-adv-x="1539" 
d="M556 1577q-57 0 -95.5 38.5t-38.5 95.5t38.5 96t95.5 39q56 0 94.5 -39t38.5 -96t-38.5 -95.5t-94.5 -38.5zM983 1577q-56 0 -95 38.5t-39 95.5t39 96t95 39t94.5 -39t38.5 -96t-38.5 -95.5t-94.5 -38.5zM409 1443v-926q0 -154 95.5 -248t264.5 -94q170 0 265.5 94
t95.5 248v926h224v-946q0 -238 -158.5 -385t-426.5 -147t-426 147t-158 385v946h224z" />
    <glyph glyph-name="Yacute" unicode="&#xdd;" horiz-adv-x="1383" 
d="M803 0h-224v582l-508 861h249l363 -625h17l363 625h249l-509 -861v-582zM573 1582l297 306h258l-325 -306h-230z" />
    <glyph glyph-name="Thorn" unicode="&#xde;" horiz-adv-x="1315" 
d="M181 1443h224v-251h350q186 0 313.5 -118.5t127.5 -317.5q0 -132 -62 -233t-163 -152t-223 -51h-343v-320h-224v1443zM405 993v-476h287q125 0 200 61.5t75 177.5t-75 176.5t-200 60.5h-287z" />
    <glyph glyph-name="germandbls" unicode="&#xdf;" horiz-adv-x="1320" 
d="M427 0h-214v1091q0 184 122.5 291.5t325.5 107.5q196 0 320 -105t124 -271q0 -120 -63.5 -210t-161.5 -119v-19q154 -13 244.5 -108t90.5 -254q0 -184 -128 -301t-337 -117q-99 0 -158 14v191q60 -15 131 -15q131 0 203.5 65t72.5 173q0 110 -83.5 173.5t-232.5 63.5h-65
v202h50q104 0 165.5 61t61.5 172q0 92 -62 151.5t-168 59.5q-113 0 -175.5 -63t-62.5 -179v-1055z" />
    <glyph glyph-name="agrave" unicode="&#xe0;" horiz-adv-x="1158" 
d="M512 163q121 0 201.5 68t80.5 170v91l-266 -17q-112 -7 -165 -46t-53 -111t56 -113.5t146 -41.5zM457 -18q-160 0 -261.5 89.5t-101.5 236.5q0 146 105 229.5t300 95.5l295 17v94q0 87 -57 133.5t-166 46.5q-90 0 -149.5 -31.5t-77.5 -89.5h-208q16 140 137.5 223.5
t307.5 83.5q204 0 315.5 -96.5t111.5 -269.5v-744h-207v153h-17q-49 -82 -134.5 -126.5t-192.5 -44.5zM716 1271h-221l-282 344h252z" />
    <glyph glyph-name="aacute" unicode="&#xe1;" horiz-adv-x="1158" 
d="M512 163q121 0 201.5 68t80.5 170v91l-266 -17q-112 -7 -165 -46t-53 -111t56 -113.5t146 -41.5zM457 -18q-160 0 -261.5 89.5t-101.5 236.5q0 146 105 229.5t300 95.5l295 17v94q0 87 -57 133.5t-166 46.5q-90 0 -149.5 -31.5t-77.5 -89.5h-208q16 140 137.5 223.5
t307.5 83.5q204 0 315.5 -96.5t111.5 -269.5v-744h-207v153h-17q-49 -82 -134.5 -126.5t-192.5 -44.5zM452 1271l251 344h252l-281 -344h-222z" />
    <glyph glyph-name="acircumflex" unicode="&#xe2;" horiz-adv-x="1158" 
d="M512 163q121 0 201.5 68t80.5 170v91l-266 -17q-112 -7 -165 -46t-53 -111t56 -113.5t146 -41.5zM457 -18q-160 0 -261.5 89.5t-101.5 236.5q0 146 105 229.5t300 95.5l295 17v94q0 87 -57 133.5t-166 46.5q-90 0 -149.5 -31.5t-77.5 -89.5h-208q16 140 137.5 223.5
t307.5 83.5q204 0 315.5 -96.5t111.5 -269.5v-744h-207v153h-17q-49 -82 -134.5 -126.5t-192.5 -44.5zM698 1584l279 -346h-221l-167 219h-16l-167 -219h-222l280 346h234z" />
    <glyph glyph-name="atilde" unicode="&#xe3;" horiz-adv-x="1158" 
d="M512 163q121 0 201.5 68t80.5 170v91l-266 -17q-112 -7 -165 -46t-53 -111t56 -113.5t146 -41.5zM457 -18q-160 0 -261.5 89.5t-101.5 236.5q0 146 105 229.5t300 95.5l295 17v94q0 87 -57 133.5t-166 46.5q-90 0 -149.5 -31.5t-77.5 -89.5h-208q16 140 137.5 223.5
t307.5 83.5q204 0 315.5 -96.5t111.5 -269.5v-744h-207v153h-17q-49 -82 -134.5 -126.5t-192.5 -44.5zM447 1392q-49 0 -71.5 -36t-22.5 -114h-158q0 140 65 222t177 82q44 0 81.5 -15.5t63.5 -38t48 -44.5t45 -37.5t44 -15.5q49 0 71.5 35t22.5 113h158q0 -140 -65 -221
t-177 -81q-44 0 -81.5 15.5t-63.5 37.5t-48 44.5t-45 38t-44 15.5z" />
    <glyph glyph-name="adieresis" unicode="&#xe4;" horiz-adv-x="1158" 
d="M512 163q121 0 201.5 68t80.5 170v91l-266 -17q-112 -7 -165 -46t-53 -111t56 -113.5t146 -41.5zM457 -18q-160 0 -261.5 89.5t-101.5 236.5q0 146 105 229.5t300 95.5l295 17v94q0 87 -57 133.5t-166 46.5q-90 0 -149.5 -31.5t-77.5 -89.5h-208q16 140 137.5 223.5
t307.5 83.5q204 0 315.5 -96.5t111.5 -269.5v-744h-207v153h-17q-49 -82 -134.5 -126.5t-192.5 -44.5zM368 1238q-57 0 -95.5 38.5t-38.5 95.5t38.5 96t95.5 39q56 0 94.5 -39t38.5 -96t-38.5 -95.5t-94.5 -38.5zM795 1238q-56 0 -95 38.5t-39 95.5t39 96t95 39t94.5 -39
t38.5 -96t-38.5 -95.5t-94.5 -38.5z" />
    <glyph glyph-name="aring" unicode="&#xe5;" horiz-adv-x="1158" 
d="M512 163q121 0 201.5 68t80.5 170v91l-266 -17q-112 -7 -165 -46t-53 -111t56 -113.5t146 -41.5zM457 -18q-160 0 -261.5 89.5t-101.5 236.5q0 146 105 229.5t300 95.5l295 17v94q0 87 -57 133.5t-166 46.5q-90 0 -149.5 -31.5t-77.5 -89.5h-208q16 140 137.5 223.5
t307.5 83.5q204 0 315.5 -96.5t111.5 -269.5v-744h-207v153h-17q-49 -82 -134.5 -126.5t-192.5 -44.5zM581 1238q-99 0 -168 67.5t-69 166.5t68.5 166t168.5 67t168.5 -67t68.5 -166t-69 -166.5t-168 -67.5zM581 1357q50 0 83 32.5t33 82.5q0 49 -33 81.5t-83 32.5
t-83 -32.5t-33 -81.5q0 -50 33 -82.5t83 -32.5z" />
    <glyph glyph-name="ae" unicode="&#xe6;" horiz-adv-x="1865" 
d="M1297 -21q-129 0 -235.5 59.5t-152.5 156.5h-17q-56 -101 -161.5 -158.5t-244.5 -57.5q-177 0 -284.5 90t-107.5 239q0 146 105 229.5t300 95.5l295 17v94q0 87 -57 133.5t-166 46.5q-90 0 -149.5 -31.5t-77.5 -89.5h-208q16 137 136 222t298 85q125 0 215.5 -47
t135.5 -126h17q52 77 147.5 125t208.5 48q219 0 344 -143.5t125 -394.5v-79h-760v-21q5 -141 85.5 -225t210.5 -84q180 0 245 131h207q-38 -149 -157.5 -232t-296.5 -83zM1282 928q-120 0 -195.5 -75t-83.5 -201h542q-4 122 -77 199t-186 77zM520 161q117 0 195.5 72
t78.5 174v85l-266 -17q-112 -7 -165 -46t-53 -112t57.5 -114.5t152.5 -41.5z" />
    <glyph glyph-name="ccedilla" unicode="&#xe7;" horiz-adv-x="1167" 
d="M1078 733h-209q-20 83 -86.5 134t-170.5 51q-135 0 -212.5 -98t-77.5 -272q0 -176 77.5 -276.5t212.5 -100.5q103 0 169.5 46t87.5 133h209q-19 -149 -119 -247t-263 -119l-45 -113q99 -2 153.5 -46t54.5 -123q0 -90 -67 -143t-185 -53q-87 0 -147 18v119q46 -14 120 -14
q116 0 116 67q0 32 -33 46.5t-109 14.5h-59v98l52 127q-209 21 -327 170t-118 396q0 262 136 412t374 150q199 0 321.5 -104t144.5 -273z" />
    <glyph glyph-name="egrave" unicode="&#xe8;" horiz-adv-x="1192" 
d="M739 1271h-221l-282 344h252zM603 927q-119 0 -196 -77t-86 -205h550q-4 129 -76.5 205.5t-191.5 76.5zM870 294h207q-37 -147 -161.5 -231t-310.5 -84q-234 0 -368.5 150.5t-134.5 411.5t136 415t366 154q227 0 356.5 -146t129.5 -403v-75h-769v-12q5 -144 83 -228
t207 -84q197 0 259 132z" />
    <glyph glyph-name="eacute" unicode="&#xe9;" horiz-adv-x="1192" 
d="M475 1271l251 344h252l-281 -344h-222zM603 927q-119 0 -196 -77t-86 -205h550q-4 129 -76.5 205.5t-191.5 76.5zM870 294h207q-37 -147 -161.5 -231t-310.5 -84q-234 0 -368.5 150.5t-134.5 411.5t136 415t366 154q227 0 356.5 -146t129.5 -403v-75h-769v-12
q5 -144 83 -228t207 -84q197 0 259 132z" />
    <glyph glyph-name="ecircumflex" unicode="&#xea;" horiz-adv-x="1192" 
d="M721 1584l279 -346h-221l-167 219h-16l-167 -219h-222l280 346h234zM603 927q-119 0 -196 -77t-86 -205h550q-4 129 -76.5 205.5t-191.5 76.5zM870 294h207q-37 -147 -161.5 -231t-310.5 -84q-234 0 -368.5 150.5t-134.5 411.5t136 415t366 154q227 0 356.5 -146
t129.5 -403v-75h-769v-12q5 -144 83 -228t207 -84q197 0 259 132z" />
    <glyph glyph-name="edieresis" unicode="&#xeb;" horiz-adv-x="1192" 
d="M603 927q-119 0 -196 -77t-86 -205h550q-4 129 -76.5 205.5t-191.5 76.5zM870 294h207q-37 -147 -161.5 -231t-310.5 -84q-234 0 -368.5 150.5t-134.5 411.5t136 415t366 154q227 0 356.5 -146t129.5 -403v-75h-769v-12q5 -144 83 -228t207 -84q197 0 259 132zM391 1238
q-57 0 -95.5 38.5t-38.5 95.5t38.5 96t95.5 39q56 0 94.5 -39t38.5 -96t-38.5 -95.5t-94.5 -38.5zM818 1238q-56 0 -95 38.5t-39 95.5t39 96t95 39t94.5 -39t38.5 -96t-38.5 -95.5t-94.5 -38.5z" />
    <glyph glyph-name="igrave" unicode="&#xec;" horiz-adv-x="544" 
d="M407 1271h-221l-282 344h252zM164 0v1089h215v-1089h-215z" />
    <glyph glyph-name="iacute" unicode="&#xed;" horiz-adv-x="544" 
d="M143 1271l251 344h252l-281 -344h-222zM164 0v1089h215v-1089h-215z" />
    <glyph glyph-name="icircumflex" unicode="&#xee;" horiz-adv-x="544" 
d="M389 1584l279 -346h-221l-167 219h-16l-167 -219h-222l280 346h234zM164 0v1089h215v-1089h-215z" />
    <glyph glyph-name="idieresis" unicode="&#xef;" horiz-adv-x="544" 
d="M164 0v1089h215v-1089h-215zM59 1238q-57 0 -95.5 38.5t-38.5 95.5t38.5 96t95.5 39q56 0 94.5 -39t38.5 -96t-38.5 -95.5t-94.5 -38.5zM486 1238q-56 0 -95 38.5t-39 95.5t39 96t95 39t94.5 -39t38.5 -96t-38.5 -95.5t-94.5 -38.5z" />
    <glyph glyph-name="eth" unicode="&#xf0;" horiz-adv-x="1220" 
d="M614 -18q-235 0 -372.5 147t-137.5 397q0 237 125.5 383t329.5 146q97 0 182.5 -42t122.5 -108h16q-44 165 -178 321l-281 -92l-42 125l230 76q-64 67 -215 187h263q70 -56 135 -124l255 85l43 -126l-207 -68q115 -148 175.5 -328.5t60.5 -375.5q0 -277 -136.5 -440
t-368.5 -163zM617 876q-133 0 -212.5 -95t-79.5 -255t79 -255.5t213 -95.5t213.5 95t79.5 255t-80 255.5t-213 95.5z" />
    <glyph glyph-name="ntilde" unicode="&#xf1;" horiz-adv-x="1249" 
d="M507 1392q-49 0 -71.5 -36t-22.5 -114h-158q0 140 65 222t177 82q44 0 81.5 -15.5t63.5 -38t48 -44.5t45 -37.5t44 -15.5q49 0 71.5 35t22.5 113h158q0 -140 -65 -221t-177 -81q-44 0 -81.5 15.5t-63.5 37.5t-48 44.5t-45 38t-44 15.5zM156 0v1089h207v-173h16
q40 91 130.5 142.5t213.5 51.5q182 0 281 -105.5t99 -299.5v-705h-215v651q0 262 -238 262q-130 0 -204.5 -74t-74.5 -202v-637h-215z" />
    <glyph glyph-name="ograve" unicode="&#xf2;" horiz-adv-x="1231" 
d="M751 1271h-221l-282 344h252zM616 170q139 0 215.5 98.5t76.5 276.5q0 177 -76.5 275.5t-215.5 98.5q-140 0 -216 -98t-76 -276q0 -179 76 -277t216 -98zM616 -21q-240 0 -377 151t-137 415q0 263 137.5 414t376.5 151q238 0 375.5 -151t137.5 -414q0 -264 -137 -415
t-376 -151z" />
    <glyph glyph-name="oacute" unicode="&#xf3;" horiz-adv-x="1231" 
d="M487 1271l251 344h252l-281 -344h-222zM616 170q139 0 215.5 98.5t76.5 276.5q0 177 -76.5 275.5t-215.5 98.5q-140 0 -216 -98t-76 -276q0 -179 76 -277t216 -98zM616 -21q-240 0 -377 151t-137 415q0 263 137.5 414t376.5 151q238 0 375.5 -151t137.5 -414
q0 -264 -137 -415t-376 -151z" />
    <glyph glyph-name="ocircumflex" unicode="&#xf4;" horiz-adv-x="1231" 
d="M733 1584l279 -346h-221l-167 219h-16l-167 -219h-222l280 346h234zM616 170q139 0 215.5 98.5t76.5 276.5q0 177 -76.5 275.5t-215.5 98.5q-140 0 -216 -98t-76 -276q0 -179 76 -277t216 -98zM616 -21q-240 0 -377 151t-137 415q0 263 137.5 414t376.5 151
q238 0 375.5 -151t137.5 -414q0 -264 -137 -415t-376 -151z" />
    <glyph glyph-name="otilde" unicode="&#xf5;" horiz-adv-x="1231" 
d="M482 1392q-49 0 -71.5 -36t-22.5 -114h-158q0 140 65 222t177 82q44 0 81.5 -15.5t63.5 -38t48 -44.5t45 -37.5t44 -15.5q49 0 71.5 35t22.5 113h158q0 -140 -65 -221t-177 -81q-44 0 -81.5 15.5t-63.5 37.5t-48 44.5t-45 38t-44 15.5zM616 170q139 0 215.5 98.5
t76.5 276.5q0 177 -76.5 275.5t-215.5 98.5q-140 0 -216 -98t-76 -276q0 -179 76 -277t216 -98zM616 -21q-240 0 -377 151t-137 415q0 263 137.5 414t376.5 151q238 0 375.5 -151t137.5 -414q0 -264 -137 -415t-376 -151z" />
    <glyph glyph-name="odieresis" unicode="&#xf6;" horiz-adv-x="1231" 
d="M403 1238q-57 0 -95.5 38.5t-38.5 95.5t38.5 96t95.5 39q56 0 94.5 -39t38.5 -96t-38.5 -95.5t-94.5 -38.5zM830 1238q-56 0 -95 38.5t-39 95.5t39 96t95 39t94.5 -39t38.5 -96t-38.5 -95.5t-94.5 -38.5zM616 170q139 0 215.5 98.5t76.5 276.5q0 177 -76.5 275.5
t-215.5 98.5q-140 0 -216 -98t-76 -276q0 -179 76 -277t216 -98zM616 -21q-240 0 -377 151t-137 415q0 263 137.5 414t376.5 151q238 0 375.5 -151t137.5 -414q0 -264 -137 -415t-376 -151z" />
    <glyph glyph-name="divide" unicode="&#xf7;" horiz-adv-x="1359" 
d="M1200 491h-1040v182h1040v-182zM680 813q-61 0 -100.5 39.5t-39.5 101.5t39.5 101.5t100.5 39.5q62 0 101 -39.5t39 -101.5t-39 -101.5t-101 -39.5zM680 68q-61 0 -100.5 39.5t-39.5 102.5q0 61 39.5 101t100.5 40t100.5 -39.5t39.5 -101.5q0 -63 -39 -102.5t-101 -39.5z
" />
    <glyph glyph-name="oslash" unicode="&#xf8;" horiz-adv-x="1231" 
d="M849 795l-383 -586q63 -39 150 -39q139 0 215.5 98.5t76.5 276.5q0 156 -59 250zM379 300l383 582q-63 37 -146 37q-140 0 -216 -98t-76 -276q0 -152 55 -245zM1035 1080l-65 -99q159 -153 159 -436q0 -264 -137 -415t-376 -151q-147 0 -261 60l-60 -92l-104 67l65 99
q-154 151 -154 432q0 263 137.5 414t376.5 151q147 0 257 -59l60 91z" />
    <glyph glyph-name="ugrave" unicode="&#xf9;" horiz-adv-x="1257" 
d="M761 1271h-221l-282 344h252zM1095 1089v-1089h-206v173h-17q-40 -93 -129 -143.5t-212 -50.5q-182 0 -283.5 106t-101.5 299v705h215v-651q0 -260 240 -260q130 0 205 73t75 201v637h214z" />
    <glyph glyph-name="uacute" unicode="&#xfa;" horiz-adv-x="1257" 
d="M497 1271l251 344h252l-281 -344h-222zM1095 1089v-1089h-206v173h-17q-40 -93 -129 -143.5t-212 -50.5q-182 0 -283.5 106t-101.5 299v705h215v-651q0 -260 240 -260q130 0 205 73t75 201v637h214z" />
    <glyph glyph-name="ucircumflex" unicode="&#xfb;" horiz-adv-x="1257" 
d="M743 1584l279 -346h-221l-167 219h-16l-167 -219h-222l280 346h234zM1095 1089v-1089h-206v173h-17q-40 -93 -129 -143.5t-212 -50.5q-182 0 -283.5 106t-101.5 299v705h215v-651q0 -260 240 -260q130 0 205 73t75 201v637h214z" />
    <glyph glyph-name="udieresis" unicode="&#xfc;" horiz-adv-x="1257" 
d="M1095 1089v-1089h-206v173h-17q-40 -93 -129 -143.5t-212 -50.5q-182 0 -283.5 106t-101.5 299v705h215v-651q0 -260 240 -260q130 0 205 73t75 201v637h214zM413 1238q-57 0 -95.5 38.5t-38.5 95.5t38.5 96t95.5 39q56 0 94.5 -39t38.5 -96t-38.5 -95.5t-94.5 -38.5z
M840 1238q-56 0 -95 38.5t-39 95.5t39 96t95 39t94.5 -39t38.5 -96t-38.5 -95.5t-94.5 -38.5z" />
    <glyph glyph-name="yacute" unicode="&#xfd;" horiz-adv-x="1152" 
d="M264 -396q-64 0 -89 5v185q23 -4 70 -4q77 0 123 35.5t74 117.5l16 53l-394 1093h234l273 -865h17l272 865h228l-406 -1134q-70 -199 -160.5 -275t-257.5 -76zM445 1271l251 344h252l-281 -344h-222z" />
    <glyph glyph-name="thorn" unicode="&#xfe;" horiz-adv-x="1287" 
d="M730 1107q208 0 330 -151.5t122 -410.5t-122 -411t-329 -152q-116 0 -204 48.5t-131 134.5h-17v-518h-215v1859h209v-597h16q50 93 140 145.5t201 52.5zM668 175q137 0 214.5 98.5t77.5 271.5t-77.5 271t-213.5 98t-215 -99.5t-79 -270.5q0 -170 79 -269.5t214 -99.5z
" />
    <glyph glyph-name="ydieresis" unicode="&#xff;" horiz-adv-x="1152" 
d="M264 -396q-64 0 -89 5v185q23 -4 70 -4q77 0 123 35.5t74 117.5l16 53l-394 1093h234l273 -865h17l272 865h228l-406 -1134q-70 -199 -160.5 -275t-257.5 -76zM361 1238q-57 0 -95.5 38.5t-38.5 95.5t38.5 96t95.5 39q56 0 94.5 -39t38.5 -96t-38.5 -95.5t-94.5 -38.5z
M788 1238q-56 0 -95 38.5t-39 95.5t39 96t95 39t94.5 -39t38.5 -96t-38.5 -95.5t-94.5 -38.5z" />
    <glyph glyph-name="Amacron" unicode="&#x100;" horiz-adv-x="1423" 
d="M1115 0l-132 383h-550l-133 -383h-230l521 1443h241l521 -1443h-238zM700 1181l-210 -610h436l-209 610h-17zM1062 1625h-700v156h700v-156z" />
    <glyph glyph-name="amacron" unicode="&#x101;" horiz-adv-x="1158" 
d="M512 163q121 0 201.5 68t80.5 170v91l-266 -17q-112 -7 -165 -46t-53 -111t56 -113.5t146 -41.5zM457 -18q-160 0 -261.5 89.5t-101.5 236.5q0 146 105 229.5t300 95.5l295 17v94q0 87 -57 133.5t-166 46.5q-90 0 -149.5 -31.5t-77.5 -89.5h-208q16 140 137.5 223.5
t307.5 83.5q204 0 315.5 -96.5t111.5 -269.5v-744h-207v153h-17q-49 -82 -134.5 -126.5t-192.5 -44.5zM929 1299h-696v155h696v-155z" />
    <glyph glyph-name="Abreve" unicode="&#x102;" horiz-adv-x="1423" 
d="M1115 0l-132 383h-550l-133 -383h-230l521 1443h241l521 -1443h-238zM700 1181l-210 -610h436l-209 610h-17zM335 1891h173q1 -78 56 -123.5t148 -45.5t148 45.5t56 123.5h173q0 -142 -101.5 -228t-275.5 -86t-275.5 86t-101.5 228z" />
    <glyph glyph-name="abreve" unicode="&#x103;" horiz-adv-x="1158" 
d="M512 163q121 0 201.5 68t80.5 170v91l-266 -17q-112 -7 -165 -46t-53 -111t56 -113.5t146 -41.5zM457 -18q-160 0 -261.5 89.5t-101.5 236.5q0 146 105 229.5t300 95.5l295 17v94q0 87 -57 133.5t-166 46.5q-90 0 -149.5 -31.5t-77.5 -89.5h-208q16 140 137.5 223.5
t307.5 83.5q204 0 315.5 -96.5t111.5 -269.5v-744h-207v153h-17q-49 -82 -134.5 -126.5t-192.5 -44.5zM202 1576h173q1 -85 55 -137.5t149 -52.5t149 52.5t55 137.5h173q0 -150 -102 -244t-275 -94t-275 94t-102 244z" />
    <glyph glyph-name="Aogonek" unicode="&#x104;" horiz-adv-x="1423" 
d="M700 1181l-210 -610h436l-209 610h-17zM1365 -426q-42 -22 -131 -22q-113 0 -179.5 60t-66.5 161q0 142 144 248h-25l-124 362h-550l-133 -383h-230l521 1443h241l517 -1433h-21q-76 -37 -118 -89.5t-42 -110.5q0 -48 33 -76.5t89 -28.5q40 0 75 9v-140z" />
    <glyph glyph-name="aogonek" unicode="&#x105;" horiz-adv-x="1158" 
d="M516 163q118 0 198 68.5t80 169.5v100l-262 -14q-107 -7 -164.5 -49t-57.5 -113q0 -74 56 -118t150 -44zM1036 -426q-47 -22 -130 -22q-107 0 -172.5 59.5t-65.5 156.5q0 151 152 249h-19v136h-17q-49 -82 -135 -126.5t-195 -44.5q-161 0 -260.5 91.5t-99.5 241.5
q0 146 106 231t305 96l289 17v85q-1 87 -57.5 133.5t-165.5 46.5q-90 0 -149.5 -31.5t-77.5 -89.5h-208q16 140 137.5 223.5t307.5 83.5q204 0 315.5 -96.5t111.5 -269.5v-730h-15q-151 -86 -151 -197q0 -51 32.5 -81.5t85.5 -30.5q49 0 76 9v-140z" />
    <glyph glyph-name="Cacute" unicode="&#x106;" horiz-adv-x="1485" 
d="M654 1584l297 306h258l-325 -306h-230zM773 -35q-301 0 -476 203t-175 553q0 351 174.5 554t475.5 203q238 0 405.5 -139.5t194.5 -360.5h-223q-32 133 -133.5 212t-243.5 79q-194 0 -307.5 -147.5t-113.5 -400.5q0 -252 113.5 -399.5t308.5 -147.5q143 0 244.5 72
t131.5 194h223q-30 -214 -194 -344.5t-405 -130.5z" />
    <glyph glyph-name="cacute" unicode="&#x107;" horiz-adv-x="1167" 
d="M1078 733h-209q-20 83 -86.5 134t-170.5 51q-135 0 -212.5 -98t-77.5 -272q0 -176 77.5 -276.5t212.5 -100.5q103 0 169.5 46t87.5 133h209q-21 -168 -144 -269.5t-321 -101.5q-238 0 -374.5 151.5t-136.5 417.5q0 262 136 412t374 150q199 0 321.5 -104t144.5 -273z
M482 1271l251 344h252l-281 -344h-222z" />
    <glyph glyph-name="Ccircumflex" unicode="&#x108;" horiz-adv-x="1485" 
d="M773 -35q-301 0 -476 203t-175 553q0 351 174.5 554t475.5 203q238 0 405.5 -139.5t194.5 -360.5h-223q-32 133 -133.5 212t-243.5 79q-194 0 -307.5 -147.5t-113.5 -400.5q0 -252 113.5 -399.5t308.5 -147.5q143 0 244.5 72t131.5 194h223q-30 -214 -194 -344.5
t-405 -130.5zM873 1898l295 -314h-225l-163 181h-16l-163 -181h-225l295 314h202z" />
    <glyph glyph-name="ccircumflex" unicode="&#x109;" horiz-adv-x="1167" 
d="M728 1584l279 -346h-221l-167 219h-16l-167 -219h-222l280 346h234zM1078 733h-209q-20 83 -86.5 134t-170.5 51q-135 0 -212.5 -98t-77.5 -272q0 -176 77.5 -276.5t212.5 -100.5q103 0 169.5 46t87.5 133h209q-21 -168 -144 -269.5t-321 -101.5q-238 0 -374.5 151.5
t-136.5 417.5q0 262 136 412t374 150q199 0 321.5 -104t144.5 -273z" />
    <glyph glyph-name="Cdotaccent" unicode="&#x10a;" horiz-adv-x="1485" 
d="M772 1579q-57 0 -95.5 39.5t-38.5 97.5t38.5 97.5t95.5 39.5t95.5 -39.5t38.5 -97.5t-38.5 -97.5t-95.5 -39.5zM773 -35q-301 0 -476 203t-175 553q0 351 174.5 554t475.5 203q238 0 405.5 -139.5t194.5 -360.5h-223q-32 133 -133.5 212t-243.5 79q-194 0 -307.5 -147.5
t-113.5 -400.5q0 -252 113.5 -399.5t308.5 -147.5q143 0 244.5 72t131.5 194h223q-30 -214 -194 -344.5t-405 -130.5z" />
    <glyph glyph-name="cdotaccent" unicode="&#x10b;" horiz-adv-x="1167" 
d="M1078 733h-209q-20 83 -86.5 134t-170.5 51q-135 0 -212.5 -98t-77.5 -272q0 -176 77.5 -276.5t212.5 -100.5q103 0 169.5 46t87.5 133h209q-21 -168 -144 -269.5t-321 -101.5q-238 0 -374.5 151.5t-136.5 417.5q0 262 136 412t374 150q199 0 321.5 -104t144.5 -273z
M611 1283q-59 0 -99.5 41.5t-40.5 100.5t40.5 100.5t99.5 41.5q58 0 99 -41.5t41 -100.5t-41 -100.5t-99 -41.5z" />
    <glyph glyph-name="Ccaron" unicode="&#x10c;" horiz-adv-x="1485" 
d="M773 -35q-301 0 -476 203t-175 553q0 351 174.5 554t475.5 203q238 0 405.5 -139.5t194.5 -360.5h-223q-32 133 -133.5 212t-243.5 79q-194 0 -307.5 -147.5t-113.5 -400.5q0 -252 113.5 -399.5t308.5 -147.5q143 0 244.5 72t131.5 194h223q-30 -214 -194 -344.5
t-405 -130.5zM870 1584h-196l-293 306h220l162 -175h18l162 175h220z" />
    <glyph glyph-name="ccaron" unicode="&#x10d;" horiz-adv-x="1167" 
d="M728 1238h-234l-280 346h222l167 -219h16l167 219h221zM1078 733h-209q-20 83 -86.5 134t-170.5 51q-135 0 -212.5 -98t-77.5 -272q0 -176 77.5 -276.5t212.5 -100.5q103 0 169.5 46t87.5 133h209q-21 -168 -144 -269.5t-321 -101.5q-238 0 -374.5 151.5t-136.5 417.5
q0 262 136 412t374 150q199 0 321.5 -104t144.5 -273z" />
    <glyph glyph-name="Dcaron" unicode="&#x10e;" horiz-adv-x="1502" 
d="M708 1582h-196l-293 306h220l162 -175h18l162 175h220zM181 1443h521q321 0 500 -188.5t179 -528.5q0 -346 -178 -536t-501 -190h-521v1443zM405 1239v-1035h272q227 0 351.5 135.5t124.5 383.5q0 244 -125.5 380t-350.5 136h-272z" />
    <glyph glyph-name="dcaron" unicode="&#x10f;" horiz-adv-x="1416" 
d="M1240 1514h199l-50 -496h-149v496zM554 -18q-208 0 -330 152t-122 411q0 258 122.5 410t329.5 152q112 0 201 -50.5t133 -140.5h16v598h215v-1514h-206v172h-17q-49 -89 -139.5 -139.5t-202.5 -50.5zM615 914q-136 0 -213.5 -98.5t-77.5 -270.5q0 -173 77.5 -271.5
t213.5 -98.5t214.5 99t78.5 270q0 170 -79 270t-214 100z" />
    <glyph glyph-name="Dcroat" unicode="&#x110;" horiz-adv-x="1474" 
d="M405 204h272q227 0 351.5 135.5t124.5 383.5q0 244 -125.5 380t-350.5 136h-272v-405h228v-191h-228v-439zM181 1443h521q321 0 500 -188.5t179 -528.5q0 -346 -178 -536t-501 -190h-521v643h-155v191h155v609z" />
    <glyph glyph-name="dcroat" unicode="&#x111;" horiz-adv-x="1289" 
d="M619 175q136 0 214.5 99t78.5 270t-78.5 270.5t-214.5 99.5t-213.5 -98.5t-77.5 -270.5q0 -174 77.5 -272t213.5 -98zM1247 1411v-136h-124v-1275h-208v172h-17q-48 -89 -137.5 -139.5t-203.5 -50.5q-207 0 -329 152t-122 411q0 258 122.5 410t329.5 152q113 0 201.5 -51
t133.5 -140h16v359h-247v136h247v149h214v-149h124z" />
    <glyph glyph-name="Emacron" unicode="&#x112;" horiz-adv-x="1239" 
d="M1097 204v-204h-916v1443h916v-204h-692v-408h655v-194h-655v-433h692zM989 1625h-700v156h700v-156z" />
    <glyph glyph-name="emacron" unicode="&#x113;" horiz-adv-x="1192" 
d="M603 927q-119 0 -196 -77t-86 -205h550q-4 129 -76.5 205.5t-191.5 76.5zM870 294h207q-37 -147 -161.5 -231t-310.5 -84q-234 0 -368.5 150.5t-134.5 411.5t136 415t366 154q227 0 356.5 -146t129.5 -403v-75h-769v-12q5 -144 83 -228t207 -84q197 0 259 132zM952 1299
h-696v155h696v-155z" />
    <glyph glyph-name="Ebreve" unicode="&#x114;" horiz-adv-x="1239" 
d="M1097 204v-204h-916v1443h916v-204h-692v-408h655v-194h-655v-433h692zM262 1891h173q1 -78 56 -123.5t148 -45.5t148 45.5t56 123.5h173q0 -142 -101.5 -228t-275.5 -86t-275.5 86t-101.5 228z" />
    <glyph glyph-name="ebreve" unicode="&#x115;" horiz-adv-x="1192" 
d="M603 927q-119 0 -196 -77t-86 -205h550q-4 129 -76.5 205.5t-191.5 76.5zM870 294h207q-37 -147 -161.5 -231t-310.5 -84q-234 0 -368.5 150.5t-134.5 411.5t136 415t366 154q227 0 356.5 -146t129.5 -403v-75h-769v-12q5 -144 83 -228t207 -84q197 0 259 132zM225 1576
h173q1 -85 55 -137.5t149 -52.5t149 52.5t55 137.5h173q0 -150 -102 -244t-275 -94t-275 94t-102 244z" />
    <glyph glyph-name="Edotaccent" unicode="&#x116;" horiz-adv-x="1239" 
d="M639 1577q-57 0 -95.5 39.5t-38.5 97.5t38.5 97.5t95.5 39.5t95.5 -39.5t38.5 -97.5t-38.5 -97.5t-95.5 -39.5zM1097 204v-204h-916v1443h916v-204h-692v-408h655v-194h-655v-433h692z" />
    <glyph glyph-name="edotaccent" unicode="&#x117;" horiz-adv-x="1192" 
d="M604 1283q-59 0 -99.5 41.5t-40.5 100.5t40.5 100.5t99.5 41.5q58 0 99 -41.5t41 -100.5t-41 -100.5t-99 -41.5zM603 927q-119 0 -196 -77t-86 -205h550q-4 129 -76.5 205.5t-191.5 76.5zM870 294h207q-37 -147 -161.5 -231t-310.5 -84q-234 0 -368.5 150.5t-134.5 411.5
t136 415t366 154q227 0 356.5 -146t129.5 -403v-75h-769v-12q5 -144 83 -228t207 -84q197 0 259 132z" />
    <glyph glyph-name="Eogonek" unicode="&#x118;" horiz-adv-x="1239" 
d="M855 0h-674v1443h916v-204h-692v-408h655v-194h-655v-433h692v-168q-197 -91 -197 -219q0 -51 33 -81.5t89 -30.5q48 0 75 9v-140q-42 -22 -131 -22q-112 0 -179 59t-67 157q0 142 135 232z" />
    <glyph glyph-name="eogonek" unicode="&#x119;" horiz-adv-x="1192" 
d="M792 -448q-105 0 -170 56.5t-65 148.5q0 109 103 210v17q-22 -5 -61 -5q-231 2 -364 152.5t-133 409.5q0 262 136 415.5t366 153.5q227 0 356.5 -146t129.5 -403v-75h-769v-12q5 -144 83.5 -228t206.5 -84q196 0 259 132h207q-16 -66 -60.5 -126.5t-135.5 -137.5
q-81 -70 -115 -121.5t-34 -103.5q0 -45 29.5 -72.5t78.5 -27.5q46 0 83 9v-140q-41 -22 -131 -22zM603 927q-119 0 -196 -77t-86 -205h550q-4 129 -76.5 205.5t-191.5 76.5z" />
    <glyph glyph-name="Ecaron" unicode="&#x11a;" horiz-adv-x="1239" 
d="M737 1582h-196l-293 306h220l162 -175h18l162 175h220zM1097 204v-204h-916v1443h916v-204h-692v-408h655v-194h-655v-433h692z" />
    <glyph glyph-name="ecaron" unicode="&#x11b;" horiz-adv-x="1192" 
d="M721 1238h-234l-280 346h222l167 -219h16l167 219h221zM603 927q-119 0 -196 -77t-86 -205h550q-4 129 -76.5 205.5t-191.5 76.5zM870 294h207q-37 -147 -161.5 -231t-310.5 -84q-234 0 -368.5 150.5t-134.5 411.5t136 415t366 154q227 0 356.5 -146t129.5 -403v-75h-769
v-12q5 -144 83 -228t207 -84q197 0 259 132z" />
    <glyph glyph-name="Gcircumflex" unicode="&#x11c;" horiz-adv-x="1539" 
d="M888 1896l295 -314h-225l-163 181h-16l-163 -181h-225l295 314h202zM1412 571q0 -277 -169.5 -441.5t-453.5 -164.5q-307 0 -487 204t-180 553q0 345 181 550.5t484 205.5q246 0 412 -129.5t203 -348.5h-225q-42 131 -142 200t-248 69q-200 0 -318 -147.5t-118 -397.5
q0 -255 118.5 -402.5t322.5 -147.5q177 0 288 99t112 259v31h-372v188h592v-180z" />
    <glyph glyph-name="gcircumflex" unicode="&#x11d;" horiz-adv-x="1274" 
d="M729 1584l279 -346h-221l-167 219h-16l-167 -219h-222l280 346h234zM907 558q0 163 -79 259.5t-216 96.5t-213 -95.5t-76 -260.5t76 -260.5t213 -95.5t216 96t79 260zM615 -416q-202 0 -328 83.5t-143 223.5h220q14 -60 80.5 -95t173.5 -35q134 0 209.5 60.5t75.5 168.5
v209h-16q-49 -88 -136 -135.5t-200 -47.5q-207 0 -328.5 147.5t-121.5 393.5q0 250 122 400t330 150q112 0 204 -51.5t138 -140.5h17v174h206v-1098q0 -187 -136 -297t-367 -110z" />
    <glyph glyph-name="Gbreve" unicode="&#x11e;" horiz-adv-x="1539" 
d="M1412 571q0 -277 -169.5 -441.5t-453.5 -164.5q-307 0 -487 204t-180 553q0 345 181 550.5t484 205.5q246 0 412 -129.5t203 -348.5h-225q-42 131 -142 200t-248 69q-200 0 -318 -147.5t-118 -397.5q0 -255 118.5 -402.5t322.5 -147.5q177 0 288 99t112 259v31h-372v188
h592v-180zM410 1891h173q1 -78 56 -123.5t148 -45.5t148 45.5t56 123.5h173q0 -142 -101.5 -228t-275.5 -86t-275.5 86t-101.5 228z" />
    <glyph glyph-name="gbreve" unicode="&#x11f;" horiz-adv-x="1274" 
d="M233 1576h173q1 -85 55 -137.5t149 -52.5t149 52.5t55 137.5h173q0 -150 -102 -244t-275 -94t-275 94t-102 244zM907 558q0 163 -79 259.5t-216 96.5t-213 -95.5t-76 -260.5t76 -260.5t213 -95.5t216 96t79 260zM615 -416q-202 0 -328 83.5t-143 223.5h220
q14 -60 80.5 -95t173.5 -35q134 0 209.5 60.5t75.5 168.5v209h-16q-49 -88 -136 -135.5t-200 -47.5q-207 0 -328.5 147.5t-121.5 393.5q0 250 122 400t330 150q112 0 204 -51.5t138 -140.5h17v174h206v-1098q0 -187 -136 -297t-367 -110z" />
    <glyph glyph-name="Gdotaccent" unicode="&#x120;" horiz-adv-x="1539" 
d="M787 1577q-57 0 -95.5 39.5t-38.5 97.5t38.5 97.5t95.5 39.5t95.5 -39.5t38.5 -97.5t-38.5 -97.5t-95.5 -39.5zM1412 571q0 -277 -169.5 -441.5t-453.5 -164.5q-307 0 -487 204t-180 553q0 345 181 550.5t484 205.5q246 0 412 -129.5t203 -348.5h-225q-42 131 -142 200
t-248 69q-200 0 -318 -147.5t-118 -397.5q0 -255 118.5 -402.5t322.5 -147.5q177 0 288 99t112 259v31h-372v188h592v-180z" />
    <glyph glyph-name="gdotaccent" unicode="&#x121;" horiz-adv-x="1274" 
d="M612 1283q-59 0 -99.5 41.5t-40.5 100.5t40.5 100.5t99.5 41.5q58 0 99 -41.5t41 -100.5t-41 -100.5t-99 -41.5zM907 558q0 163 -79 259.5t-216 96.5t-213 -95.5t-76 -260.5t76 -260.5t213 -95.5t216 96t79 260zM615 -416q-202 0 -328 83.5t-143 223.5h220
q14 -60 80.5 -95t173.5 -35q134 0 209.5 60.5t75.5 168.5v209h-16q-49 -88 -136 -135.5t-200 -47.5q-207 0 -328.5 147.5t-121.5 393.5q0 250 122 400t330 150q112 0 204 -51.5t138 -140.5h17v174h206v-1098q0 -187 -136 -297t-367 -110z" />
    <glyph glyph-name="Gcommaaccent" unicode="&#x122;" horiz-adv-x="1539" 
d="M793 -514h-200l113 368h222zM1412 571q0 -277 -169.5 -441.5t-453.5 -164.5q-307 0 -487 204t-180 553q0 345 181 550.5t484 205.5q246 0 412 -129.5t203 -348.5h-225q-42 131 -142 200t-248 69q-200 0 -318 -147.5t-118 -397.5q0 -255 118.5 -402.5t322.5 -147.5
q177 0 288 99t112 259v31h-372v188h592v-180z" />
    <glyph glyph-name="gcommaaccent" unicode="&#x123;" horiz-adv-x="1274" 
d="M627 1657h200l-113 -368h-222zM907 558q0 163 -79 259.5t-216 96.5t-213 -95.5t-76 -260.5t76 -260.5t213 -95.5t216 96t79 260zM615 -416q-202 0 -328 83.5t-143 223.5h220q14 -60 80.5 -95t173.5 -35q134 0 209.5 60.5t75.5 168.5v209h-16q-49 -88 -136 -135.5
t-200 -47.5q-207 0 -328.5 147.5t-121.5 393.5q0 250 122 400t330 150q112 0 204 -51.5t138 -140.5h17v174h206v-1098q0 -187 -136 -297t-367 -110z" />
    <glyph glyph-name="Hcircumflex" unicode="&#x124;" horiz-adv-x="1550" 
d="M1369 0h-223v633h-741v-633h-224v1443h224v-606h741v606h223v-1443zM876 1896l295 -314h-225l-163 181h-16l-163 -181h-225l295 314h202z" />
    <glyph glyph-name="hcircumflex" unicode="&#x125;" horiz-adv-x="1271" 
d="M166 0v1514h213v-600h17q40 92 130 143.5t213 51.5q184 0 284.5 -106t100.5 -300v-703h-215v650q0 262 -243 262q-131 0 -208 -75.5t-77 -200.5v-636h-215zM374 1967l295 -314h-225l-163 181h-16l-163 -181h-225l295 314h202z" />
    <glyph glyph-name="Hbar" unicode="&#x126;" horiz-adv-x="1502" 
d="M1122 837v229h-741v-229h741zM1479 1237v-171h-134v-1066h-223v633h-741v-633h-224v1066h-133v171h133v206h224v-206h741v206h223v-206h134z" />
    <glyph glyph-name="hbar" unicode="&#x127;" horiz-adv-x="1278" 
d="M378 914h17q40 91 132 143t215 52q184 0 286.5 -106t102.5 -300v-703h-214v650q0 130 -63 196t-185 66q-131 0 -210 -76t-79 -200v-636h-215v1275h-134v136h134v152h213v-152h256v-136h-256v-361z" />
    <glyph glyph-name="Itilde" unicode="&#x128;" horiz-adv-x="585" 
d="M405 0h-224v1443h224v-1443zM446 1576q-45 0 -82.5 16t-63 39l-48.5 45.5t-48.5 38.5t-52.5 16q-87 0 -92 -141h-153q0 138 63.5 215.5t170.5 77.5q47 0 87 -16t66.5 -38.5t49.5 -45.5t46 -39t46 -16q86 0 92 140h153q0 -135 -64 -213.5t-170 -78.5z" />
    <glyph glyph-name="itilde" unicode="&#x129;" horiz-adv-x="544" 
d="M164 0v1089h215v-1089h-215zM138 1392q-49 0 -71.5 -36t-22.5 -114h-158q0 140 65 222t177 82q44 0 81.5 -15.5t63.5 -38t48 -44.5t45 -37.5t44 -15.5q49 0 71.5 35t22.5 113h158q0 -140 -65 -221t-177 -81q-44 0 -81.5 15.5t-63.5 37.5t-48 44.5t-45 38t-44 15.5z" />
    <glyph glyph-name="Imacron" unicode="&#x12a;" horiz-adv-x="585" 
d="M405 0h-224v1443h224v-1443zM643 1625h-700v156h700v-156z" />
    <glyph glyph-name="imacron" unicode="&#x12b;" horiz-adv-x="544" 
d="M164 0v1089h215v-1089h-215zM620 1299h-696v155h696v-155z" />
    <glyph glyph-name="Ibreve" unicode="&#x12c;" horiz-adv-x="585" 
d="M405 0h-224v1443h224v-1443zM-84 1891h173q1 -78 56 -123.5t148 -45.5t148 45.5t56 123.5h173q0 -142 -101.5 -228t-275.5 -86t-275.5 86t-101.5 228z" />
    <glyph glyph-name="ibreve" unicode="&#x12d;" horiz-adv-x="544" 
d="M164 0v1089h215v-1089h-215zM-107 1576h173q1 -85 55 -137.5t149 -52.5t149 52.5t55 137.5h173q0 -150 -102 -244t-275 -94t-275 94t-102 244z" />
    <glyph glyph-name="Iogonek" unicode="&#x12e;" horiz-adv-x="585" 
d="M430 -425q-49 -22 -130 -22q-107 0 -172.5 59.5t-65.5 157.5q0 146 141 247h-22v1426h224v-1436h-16q-153 -89 -153 -192q0 -49 33 -79t87 -30q40 0 74 9v-140z" />
    <glyph glyph-name="iogonek" unicode="&#x12f;" horiz-adv-x="544" 
d="M267 1280q-60 0 -99.5 37.5t-39.5 93.5t39.5 94t99.5 38t99.5 -38t39.5 -94t-39.5 -93.5t-99.5 -37.5zM402 -426q-51 -22 -130 -22q-107 0 -172.5 59.5t-65.5 156.5q0 146 146 249h-20v1072h214v-1075h-15q-151 -87 -151 -201q0 -49 33 -78.5t87 -29.5q38 0 74 9v-140z
" />
    <glyph glyph-name="Idotaccent" unicode="&#x130;" horiz-adv-x="585" 
d="M405 0h-224v1443h224v-1443zM293 1577q-57 0 -95.5 39.5t-38.5 97.5t38.5 97.5t95.5 39.5t95.5 -39.5t38.5 -97.5t-38.5 -97.5t-95.5 -39.5z" />
    <glyph glyph-name="dotlessi" unicode="&#x131;" horiz-adv-x="544" 
d="M164 0v1089h215v-1089h-215z" />
    <glyph glyph-name="u0132" unicode="&#x132;" horiz-adv-x="1734" 
d="M405 0h-224v1443h224v-1443zM667 375h220q2 -89 62 -144t156 -55q108 0 166 63.5t58 183.5v1020h224v-1021q0 -217 -118.5 -337t-327.5 -120q-197 0 -318.5 112.5t-121.5 297.5z" />
    <glyph glyph-name="u0133" unicode="&#x133;" horiz-adv-x="1090" 
d="M160 0v1089h214v-1089h-214zM267 1280q-60 0 -99.5 37.5t-39.5 93.5t39.5 94t99.5 38t99.5 -38t39.5 -94t-39.5 -93.5t-99.5 -37.5zM919 1089v-1149q0 -167 -86.5 -247t-264.5 -80q-43 0 -48 1v180h30q85 0 120 34t35 114v1147h214zM812 1280q-60 0 -99.5 37.5
t-39.5 93.5t39.5 94t99.5 38t99.5 -38t39.5 -94t-39.5 -93.5t-99.5 -37.5z" />
    <glyph glyph-name="Jcircumflex" unicode="&#x134;" horiz-adv-x="1148" 
d="M82 375h220q2 -89 62 -144t156 -55q108 0 166 63.5t58 183.5v1020h224v-1021q0 -217 -118.5 -337t-327.5 -120q-197 0 -318.5 112.5t-121.5 297.5zM957 1896l295 -314h-225l-163 181h-16l-163 -181h-225l295 314h202z" />
    <glyph glyph-name="jcircumflex" unicode="&#x135;" horiz-adv-x="534" 
d="M369 1089v-1149q0 -167 -86.5 -247t-264.5 -80q-42 0 -48 1v180h30q85 0 120 34t35 114v1147h214zM386 1584l279 -346h-221l-167 219h-16l-167 -219h-222l280 346h234z" />
    <glyph glyph-name="Kcommaaccent" unicode="&#x136;" horiz-adv-x="1386" 
d="M405 0h-224v1443h224v-676h16l597 676h265l-558 -627l606 -816h-280l-484 655l-162 -181v-474zM670 -514h-200l113 368h222z" />
    <glyph glyph-name="kcommaaccent" unicode="&#x137;" horiz-adv-x="1155" 
d="M398 635l432 454h254l-448 -467l478 -622h-264l-374 480l-95 -90v-390h-215v1514h215v-879h17zM620 -514h-200l113 368h222z" />
    <glyph glyph-name="Lacute" unicode="&#x139;" horiz-adv-x="1183" 
d="M175 1582l297 306h258l-325 -306h-230zM1081 206v-206h-900v1443h224v-1237h676z" />
    <glyph glyph-name="lacute" unicode="&#x13a;" horiz-adv-x="547" 
d="M156 1653l297 306h258l-325 -306h-230zM166 0v1514h215v-1514h-215z" />
    <glyph glyph-name="Lcommaaccent" unicode="&#x13b;" horiz-adv-x="1183" 
d="M629 -514h-200l113 368h222zM1081 206v-206h-900v1443h224v-1237h676z" />
    <glyph glyph-name="lcommaaccent" unicode="&#x13c;" horiz-adv-x="547" 
d="M274 -514h-200l113 368h222zM166 0v1514h215v-1514h-215z" />
    <glyph glyph-name="Lcaron" unicode="&#x13d;" horiz-adv-x="1183" 
d="M620 1443h197l-50 -495h-147v495zM1081 206v-206h-900v1443h224v-1237h676z" />
    <glyph glyph-name="lcaron" unicode="&#x13e;" horiz-adv-x="672" 
d="M497 1514h199l-50 -496h-149v496zM166 0v1514h215v-1514h-215z" />
    <glyph glyph-name="Lslash" unicode="&#x141;" horiz-adv-x="1143" 
d="M405 206h676v-206h-900v695l-161 -78v170l161 78v578h224v-469l272 132v-171l-272 -132v-597z" />
    <glyph glyph-name="lslash" unicode="&#x142;" horiz-adv-x="547" 
d="M508 1038v-170l-127 -65v-803h-215v692l-126 -65v170l126 65v652h215v-541z" />
    <glyph glyph-name="Nacute" unicode="&#x143;" horiz-adv-x="1539" 
d="M650 1582l297 306h258l-325 -306h-230zM399 0h-218v1443h202l741 -1025h16v1025h218v-1443h-202l-741 1025h-16v-1025z" />
    <glyph glyph-name="nacute" unicode="&#x144;" horiz-adv-x="1249" 
d="M512 1271l251 344h252l-281 -344h-222zM156 0v1089h207v-173h16q40 91 130.5 142.5t213.5 51.5q182 0 281 -105.5t99 -299.5v-705h-215v651q0 262 -238 262q-130 0 -204.5 -74t-74.5 -202v-637h-215z" />
    <glyph glyph-name="Ncommaaccent" unicode="&#x145;" horiz-adv-x="1539" 
d="M768 -514h-200l113 368h222zM399 0h-218v1443h202l741 -1025h16v1025h218v-1443h-202l-741 1025h-16v-1025z" />
    <glyph glyph-name="ncommaaccent" unicode="&#x146;" horiz-adv-x="1249" 
d="M630 -514h-200l113 368h222zM156 0v1089h207v-173h16q40 91 130.5 142.5t213.5 51.5q182 0 281 -105.5t99 -299.5v-705h-215v651q0 262 -238 262q-130 0 -204.5 -74t-74.5 -202v-637h-215z" />
    <glyph glyph-name="Ncaron" unicode="&#x147;" horiz-adv-x="1539" 
d="M866 1582h-196l-293 306h220l162 -175h18l162 175h220zM399 0h-218v1443h202l741 -1025h16v1025h218v-1443h-202l-741 1025h-16v-1025z" />
    <glyph glyph-name="ncaron" unicode="&#x148;" horiz-adv-x="1249" 
d="M758 1238h-234l-280 346h222l167 -219h16l167 219h221zM156 0v1089h207v-173h16q40 91 130.5 142.5t213.5 51.5q182 0 281 -105.5t99 -299.5v-705h-215v651q0 262 -238 262q-130 0 -204.5 -74t-74.5 -202v-637h-215z" />
    <glyph glyph-name="Omacron" unicode="&#x14c;" horiz-adv-x="1590" 
d="M796 1478q312 0 492 -203.5t180 -552.5t-180 -553t-492 -204q-313 0 -493.5 203.5t-180.5 553.5q0 349 181.5 552.5t492.5 203.5zM796 1269q-204 0 -324.5 -148t-120.5 -399t119 -399.5t326 -148.5q205 0 324 148.5t119 399.5q0 252 -119 399.5t-324 147.5zM1146 1625
h-700v156h700v-156z" />
    <glyph glyph-name="omacron" unicode="&#x14d;" horiz-adv-x="1231" 
d="M964 1299h-696v155h696v-155zM616 170q139 0 215.5 98.5t76.5 276.5q0 177 -76.5 275.5t-215.5 98.5q-140 0 -216 -98t-76 -276q0 -179 76 -277t216 -98zM616 -21q-240 0 -377 151t-137 415q0 263 137.5 414t376.5 151q238 0 375.5 -151t137.5 -414q0 -264 -137 -415
t-376 -151z" />
    <glyph glyph-name="Obreve" unicode="&#x14e;" horiz-adv-x="1590" 
d="M796 1478q312 0 492 -203.5t180 -552.5t-180 -553t-492 -204q-313 0 -493.5 203.5t-180.5 553.5q0 349 181.5 552.5t492.5 203.5zM796 1269q-204 0 -324.5 -148t-120.5 -399t119 -399.5t326 -148.5q205 0 324 148.5t119 399.5q0 252 -119 399.5t-324 147.5zM419 1891h173
q1 -78 56 -123.5t148 -45.5t148 45.5t56 123.5h173q0 -142 -101.5 -228t-275.5 -86t-275.5 86t-101.5 228z" />
    <glyph glyph-name="obreve" unicode="&#x14f;" horiz-adv-x="1231" 
d="M237 1576h173q1 -85 55 -137.5t149 -52.5t149 52.5t55 137.5h173q0 -150 -102 -244t-275 -94t-275 94t-102 244zM616 170q139 0 215.5 98.5t76.5 276.5q0 177 -76.5 275.5t-215.5 98.5q-140 0 -216 -98t-76 -276q0 -179 76 -277t216 -98zM616 -21q-240 0 -377 151
t-137 415q0 263 137.5 414t376.5 151q238 0 375.5 -151t137.5 -414q0 -264 -137 -415t-376 -151z" />
    <glyph glyph-name="Ohungarumlaut" unicode="&#x150;" horiz-adv-x="1590" 
d="M853 1582l289 306h242l-313 -306h-218zM431 1582l288 306h242l-312 -306h-218zM796 1478q312 0 492 -203.5t180 -552.5t-180 -553t-492 -204q-313 0 -493.5 203.5t-180.5 553.5q0 349 181.5 552.5t492.5 203.5zM796 1269q-204 0 -324.5 -148t-120.5 -399t119 -399.5
t326 -148.5q205 0 324 148.5t119 399.5q0 252 -119 399.5t-324 147.5z" />
    <glyph glyph-name="ohungarumlaut" unicode="&#x151;" horiz-adv-x="1231" 
d="M685 1271l238 344h228l-267 -344h-199zM272 1271l238 344h228l-267 -344h-199zM616 170q139 0 215.5 98.5t76.5 276.5q0 177 -76.5 275.5t-215.5 98.5q-140 0 -216 -98t-76 -276q0 -179 76 -277t216 -98zM616 -21q-240 0 -377 151t-137 415q0 263 137.5 414t376.5 151
q238 0 375.5 -151t137.5 -414q0 -264 -137 -415t-376 -151z" />
    <glyph glyph-name="OE" unicode="&#x152;" horiz-adv-x="2306" 
d="M808 1269q-209 0 -331 -147t-122 -400q0 -254 121.5 -401t331.5 -147q202 0 319 147t117 401t-117 400.5t-319 146.5zM1276 0v241h-16q-62 -124 -195 -200t-288 -76q-303 0 -477.5 202.5t-174.5 554.5q0 351 175 553.5t477 202.5q152 0 287 -74.5t196 -192.5h16v232h902
v-204h-707v-408h670v-194h-670v-433h707v-204h-902z" />
    <glyph glyph-name="oe" unicode="&#x153;" horiz-adv-x="1998" 
d="M1417 -21q-133 0 -239 57t-152 153h-17q-47 -96 -154 -153t-242 -57q-236 0 -372.5 151.5t-136.5 413.5q0 263 136 414.5t373 151.5q133 0 237 -56t160 -158h17q55 101 157.5 157.5t231.5 56.5q221 0 350.5 -147.5t129.5 -400.5v-76h-768v-11q5 -144 83 -228t206 -84
q198 0 259 131h207q-37 -147 -161.5 -231t-304.5 -84zM1410 928q-119 0 -196 -77t-86 -205h549q-3 128 -76 205t-191 77zM617 170q139 0 215.5 98t76.5 276q0 179 -76.5 277t-215.5 98t-215.5 -98.5t-76.5 -276.5t76.5 -276t215.5 -98z" />
    <glyph glyph-name="Racute" unicode="&#x154;" horiz-adv-x="1368" 
d="M506 1582l297 306h258l-325 -306h-230zM405 1246v-505h322q130 0 201.5 66t71.5 187q0 118 -74.5 185t-204.5 67h-316zM405 550v-550h-224v1443h571q218 0 348 -120.5t130 -323.5q0 -146 -74.5 -256.5t-205.5 -155.5l324 -587h-259l-294 550h-316z" />
    <glyph glyph-name="racute" unicode="&#x155;" horiz-adv-x="807" 
d="M274 1271l251 344h252l-281 -344h-222zM156 0v1089h207v-167h16q23 81 105 133t188 52q60 0 95 -9v-212q-37 13 -119 13q-122 0 -199.5 -71t-77.5 -185v-643h-215z" />
    <glyph glyph-name="Rcommaaccent" unicode="&#x156;" horiz-adv-x="1368" 
d="M405 1246v-505h322q130 0 201.5 66t71.5 187q0 118 -74.5 185t-204.5 67h-316zM405 550v-550h-224v1443h571q218 0 348 -120.5t130 -323.5q0 -146 -74.5 -256.5t-205.5 -155.5l324 -587h-259l-294 550h-316zM624 -514h-200l113 368h222z" />
    <glyph glyph-name="rcommaaccent" unicode="&#x157;" horiz-adv-x="807" 
d="M156 0v1089h207v-167h16q23 81 105 133t188 52q60 0 95 -9v-212q-37 13 -119 13q-122 0 -199.5 -71t-77.5 -185v-643h-215zM263 -514h-200l113 368h222z" />
    <glyph glyph-name="Rcaron" unicode="&#x158;" horiz-adv-x="1368" 
d="M405 1246v-505h322q130 0 201.5 66t71.5 187q0 118 -74.5 185t-204.5 67h-316zM405 550v-550h-224v1443h571q218 0 348 -120.5t130 -323.5q0 -146 -74.5 -256.5t-205.5 -155.5l324 -587h-259l-294 550h-316zM722 1582h-196l-293 306h220l162 -175h18l162 175h220z" />
    <glyph glyph-name="rcaron" unicode="&#x159;" horiz-adv-x="807" 
d="M520 1238h-234l-280 346h222l167 -219h16l167 219h221zM156 0v1089h207v-167h16q23 81 105 133t188 52q60 0 95 -9v-212q-37 13 -119 13q-122 0 -199.5 -71t-77.5 -185v-643h-215z" />
    <glyph glyph-name="Sacute" unicode="&#x15a;" horiz-adv-x="1333" 
d="M559 1582l297 306h258l-325 -306h-230zM113 388h222q14 -103 107.5 -163.5t238.5 -60.5q135 0 223.5 62.5t88.5 158.5q0 82 -65.5 134.5t-209.5 86.5l-186 45q-196 46 -288 143t-92 256q0 193 144.5 310.5t380.5 117.5q220 0 365 -116t155 -298h-218q-16 100 -97.5 158
t-207.5 58q-133 0 -214 -59t-81 -156q0 -77 61.5 -125t202.5 -81l159 -39q222 -52 320 -147.5t98 -258.5q0 -207 -150 -328t-406 -121q-240 0 -389.5 115t-161.5 308z" />
    <glyph glyph-name="sacute" unicode="&#x15b;" horiz-adv-x="1104" 
d="M131 781q0 144 119 236.5t304 92.5q184 0 297 -81t129 -225h-206q-15 61 -72.5 96t-147.5 35q-91 0 -151 -39.5t-60 -102.5q0 -49 42 -81t131 -52l181 -42q157 -36 230.5 -107t73.5 -190q0 -152 -127 -247t-324 -95q-194 0 -313.5 82.5t-133.5 227.5h215q21 -64 81 -100
t156 -36q101 0 165 41t64 106q0 95 -160 133l-190 44q-156 37 -229.5 110t-73.5 194zM425 1271l251 344h252l-281 -344h-222z" />
    <glyph glyph-name="Scircumflex" unicode="&#x15c;" horiz-adv-x="1333" 
d="M113 388h222q14 -103 107.5 -163.5t238.5 -60.5q135 0 223.5 62.5t88.5 158.5q0 82 -65.5 134.5t-209.5 86.5l-186 45q-196 46 -288 143t-92 256q0 193 144.5 310.5t380.5 117.5q220 0 365 -116t155 -298h-218q-16 100 -97.5 158t-207.5 58q-133 0 -214 -59t-81 -156
q0 -77 61.5 -125t202.5 -81l159 -39q222 -52 320 -147.5t98 -258.5q0 -207 -150 -328t-406 -121q-240 0 -389.5 115t-161.5 308zM778 1896l295 -314h-225l-163 181h-16l-163 -181h-225l295 314h202z" />
    <glyph glyph-name="scircumflex" unicode="&#x15d;" horiz-adv-x="1104" 
d="M671 1584l279 -346h-221l-167 219h-16l-167 -219h-222l280 346h234zM131 781q0 144 119 236.5t304 92.5q184 0 297 -81t129 -225h-206q-15 61 -72.5 96t-147.5 35q-91 0 -151 -39.5t-60 -102.5q0 -49 42 -81t131 -52l181 -42q157 -36 230.5 -107t73.5 -190
q0 -152 -127 -247t-324 -95q-194 0 -313.5 82.5t-133.5 227.5h215q21 -64 81 -100t156 -36q101 0 165 41t64 106q0 95 -160 133l-190 44q-156 37 -229.5 110t-73.5 194z" />
    <glyph glyph-name="Scedilla" unicode="&#x15e;" horiz-adv-x="1333" 
d="M643 859l159 -39q222 -52 320 -147.5t98 -258.5q0 -191 -128 -309.5t-351 -136.5l-39 -97q99 -2 153.5 -46t54.5 -123q0 -90 -67 -143t-185 -53q-87 0 -147 18v119q46 -14 120 -14q116 0 116 67q0 32 -33 46.5t-109 14.5h-59v98l46 113q-211 17 -339.5 129.5
t-139.5 290.5h222q14 -103 107.5 -163.5t238.5 -60.5q135 0 223.5 62.5t88.5 158.5q0 82 -65.5 134.5t-209.5 86.5l-186 45q-196 46 -288 143t-92 256q0 193 144.5 310.5t380.5 117.5q220 0 365 -116t155 -298h-218q-16 100 -97.5 158t-207.5 58q-133 0 -214 -59t-81 -156
q0 -77 61.5 -125t202.5 -81z" />
    <glyph glyph-name="scedilla" unicode="&#x15f;" horiz-adv-x="1104" 
d="M516 660l181 -42q157 -36 230.5 -107t73.5 -190q0 -135 -101.5 -226t-266.5 -111l-45 -113q99 -2 153.5 -46t54.5 -123q0 -90 -67 -143t-185 -53q-87 0 -147 18v119q46 -14 120 -14q116 0 116 67q0 32 -33 46.5t-109 14.5h-59v98l52 127q-167 14 -267.5 94.5
t-113.5 212.5h215q21 -64 81 -100t156 -36q101 0 165 41t64 106q0 95 -160 133l-190 44q-156 37 -229.5 110t-73.5 194q0 144 119 236.5t304 92.5q184 0 297 -81t129 -225h-206q-15 61 -72.5 96t-147.5 35q-91 0 -151 -39.5t-60 -102.5q0 -49 42 -81t131 -52z" />
    <glyph glyph-name="Scaron" unicode="&#x160;" horiz-adv-x="1333" 
d="M113 388h222q14 -103 107.5 -163.5t238.5 -60.5q135 0 223.5 62.5t88.5 158.5q0 82 -65.5 134.5t-209.5 86.5l-186 45q-196 46 -288 143t-92 256q0 193 144.5 310.5t380.5 117.5q220 0 365 -116t155 -298h-218q-16 100 -97.5 158t-207.5 58q-133 0 -214 -59t-81 -156
q0 -77 61.5 -125t202.5 -81l159 -39q222 -52 320 -147.5t98 -258.5q0 -207 -150 -328t-406 -121q-240 0 -389.5 115t-161.5 308zM775 1582h-196l-293 306h220l162 -175h18l162 175h220z" />
    <glyph glyph-name="scaron" unicode="&#x161;" horiz-adv-x="1104" 
d="M671 1238h-234l-280 346h222l167 -219h16l167 219h221zM131 781q0 144 119 236.5t304 92.5q184 0 297 -81t129 -225h-206q-15 61 -72.5 96t-147.5 35q-91 0 -151 -39.5t-60 -102.5q0 -49 42 -81t131 -52l181 -42q157 -36 230.5 -107t73.5 -190q0 -152 -127 -247t-324 -95
q-194 0 -313.5 82.5t-133.5 227.5h215q21 -64 81 -100t156 -36q101 0 165 41t64 106q0 95 -160 133l-190 44q-156 37 -229.5 110t-73.5 194z" />
    <glyph glyph-name="Tcedilla" unicode="&#x162;" horiz-adv-x="1317" 
d="M771 0h-19l-51 -129q99 -2 153.5 -46t54.5 -123q0 -90 -67 -143t-185 -53q-87 0 -147 18v119q46 -14 120 -14q116 0 116 67q0 32 -33 46.5t-109 14.5h-59v98l59 145h-57v1239h-454v204h1131v-204h-453v-1239z" />
    <glyph glyph-name="tcedilla" unicode="&#x163;" horiz-adv-x="780" 
d="M430 -494q-87 0 -147 18v120q40 -14 120 -14q117 0 117 66q0 33 -33.5 47t-109.5 14h-59v98l66 165q-80 28 -116 93t-36 175v615h-179v181h179v269h215v-269h244v-181h-244v-560q0 -85 37 -124.5t117 -39.5q30 0 80 5v-179q-62 -11 -114 -11q-8 0 -22.5 0.5t-21.5 0.5
l-49 -124q99 -2 153.5 -46t54.5 -123q0 -90 -67 -143t-185 -53z" />
    <glyph glyph-name="Tcaron" unicode="&#x164;" horiz-adv-x="1317" 
d="M756 1582h-196l-293 306h220l162 -175h18l162 175h220zM771 0h-224v1239h-454v204h1131v-204h-453v-1239z" />
    <glyph glyph-name="tcaron" unicode="&#x165;" horiz-adv-x="780" 
d="M718 1232h-149v495h199zM232 1353h215v-269h244v-181h-244v-560q0 -85 37 -124.5t117 -39.5q30 0 80 5v-179q-62 -11 -115 -11q-179 0 -256.5 68t-77.5 226v615h-179v181h179v269z" />
    <glyph glyph-name="Tbar" unicode="&#x166;" horiz-adv-x="1317" 
d="M1224 1239h-453v-443h296v-175h-296v-621h-224v621h-299v175h299v443h-454v204h1131v-204z" />
    <glyph glyph-name="tbar" unicode="&#x167;" horiz-adv-x="776" 
d="M694 494h-247v-151q0 -85 37 -124.5t117 -39.5q30 0 80 5v-179q-62 -11 -115 -11q-179 0 -256.5 68t-77.5 226v206h-176v151h176v258h-179v181h179v269h215v-269h244v-181h-244v-258h247v-151z" />
    <glyph glyph-name="Utilde" unicode="&#x168;" horiz-adv-x="1539" 
d="M409 1443v-926q0 -154 95.5 -248t264.5 -94q170 0 265.5 94t95.5 248v926h224v-946q0 -238 -158.5 -385t-426.5 -147t-426 147t-158 385v946h224zM922 1576q-45 0 -82.5 16t-63 39l-48.5 45.5t-48.5 38.5t-52.5 16q-87 0 -92 -141h-153q0 138 63.5 215.5t170.5 77.5
q47 0 87 -16t66.5 -38.5t49.5 -45.5t46 -39t46 -16q86 0 92 140h153q0 -135 -64 -213.5t-170 -78.5z" />
    <glyph glyph-name="utilde" unicode="&#x169;" horiz-adv-x="1257" 
d="M1095 1089v-1089h-206v173h-17q-40 -93 -129 -143.5t-212 -50.5q-182 0 -283.5 106t-101.5 299v705h215v-651q0 -260 240 -260q130 0 205 73t75 201v637h214zM492 1392q-49 0 -71.5 -36t-22.5 -114h-158q0 140 65 222t177 82q44 0 81.5 -15.5t63.5 -38t48 -44.5t45 -37.5
t44 -15.5q49 0 71.5 35t22.5 113h158q0 -140 -65 -221t-177 -81q-44 0 -81.5 15.5t-63.5 37.5t-48 44.5t-45 38t-44 15.5z" />
    <glyph glyph-name="Umacron" unicode="&#x16a;" horiz-adv-x="1539" 
d="M409 1443v-926q0 -154 95.5 -248t264.5 -94q170 0 265.5 94t95.5 248v926h224v-946q0 -238 -158.5 -385t-426.5 -147t-426 147t-158 385v946h224zM1119 1625h-700v156h700v-156z" />
    <glyph glyph-name="umacron" unicode="&#x16b;" horiz-adv-x="1257" 
d="M1095 1089v-1089h-206v173h-17q-40 -93 -129 -143.5t-212 -50.5q-182 0 -283.5 106t-101.5 299v705h215v-651q0 -260 240 -260q130 0 205 73t75 201v637h214zM974 1299h-696v155h696v-155z" />
    <glyph glyph-name="Ubreve" unicode="&#x16c;" horiz-adv-x="1539" 
d="M409 1443v-926q0 -154 95.5 -248t264.5 -94q170 0 265.5 94t95.5 248v926h224v-946q0 -238 -158.5 -385t-426.5 -147t-426 147t-158 385v946h224zM392 1891h173q1 -78 56 -123.5t148 -45.5t148 45.5t56 123.5h173q0 -142 -101.5 -228t-275.5 -86t-275.5 86t-101.5 228z
" />
    <glyph glyph-name="ubreve" unicode="&#x16d;" horiz-adv-x="1257" 
d="M1095 1089v-1089h-206v173h-17q-40 -93 -129 -143.5t-212 -50.5q-182 0 -283.5 106t-101.5 299v705h215v-651q0 -260 240 -260q130 0 205 73t75 201v637h214zM247 1576h173q1 -85 55 -137.5t149 -52.5t149 52.5t55 137.5h173q0 -150 -102 -244t-275 -94t-275 94t-102 244
z" />
    <glyph glyph-name="Uring" unicode="&#x16e;" horiz-adv-x="1539" 
d="M769 1574q-99 0 -168 67.5t-69 166.5t68.5 166t168.5 67t168.5 -67t68.5 -166t-69 -166.5t-168 -67.5zM769 1693q50 0 83 32.5t33 82.5q0 49 -33 81.5t-83 32.5t-83 -32.5t-33 -81.5q0 -50 33 -82.5t83 -32.5zM409 1443v-926q0 -154 95.5 -248t264.5 -94q170 0 265.5 94
t95.5 248v926h224v-946q0 -238 -158.5 -385t-426.5 -147t-426 147t-158 385v946h224z" />
    <glyph glyph-name="uring" unicode="&#x16f;" horiz-adv-x="1257" 
d="M1095 1089v-1089h-206v173h-17q-40 -93 -129 -143.5t-212 -50.5q-182 0 -283.5 106t-101.5 299v705h215v-651q0 -260 240 -260q130 0 205 73t75 201v637h214zM626 1238q-99 0 -168 67.5t-69 166.5t68.5 166t168.5 67t168.5 -67t68.5 -166t-69 -166.5t-168 -67.5z
M626 1357q50 0 83 32.5t33 82.5q0 49 -33 81.5t-83 32.5t-83 -32.5t-33 -81.5q0 -50 33 -82.5t83 -32.5z" />
    <glyph glyph-name="Uhungarumlaut" unicode="&#x170;" horiz-adv-x="1539" 
d="M409 1443v-926q0 -154 95.5 -248t264.5 -94q170 0 265.5 94t95.5 248v926h224v-946q0 -238 -158.5 -385t-426.5 -147t-426 147t-158 385v946h224zM826 1582l289 306h242l-313 -306h-218zM404 1582l288 306h242l-312 -306h-218z" />
    <glyph glyph-name="uhungarumlaut" unicode="&#x171;" horiz-adv-x="1257" 
d="M695 1271l238 344h228l-267 -344h-199zM282 1271l238 344h228l-267 -344h-199zM1095 1089v-1089h-206v173h-17q-40 -93 -129 -143.5t-212 -50.5q-182 0 -283.5 106t-101.5 299v705h215v-651q0 -260 240 -260q130 0 205 73t75 201v637h214z" />
    <glyph glyph-name="Uogonek" unicode="&#x172;" horiz-adv-x="1539" 
d="M1002 -448q-104 0 -169.5 59t-65.5 152q0 113 104 201v17q-43 -16 -101 -16q-266 0 -425.5 145.5t-159.5 386.5v946h224v-926q0 -157 97.5 -249.5t262.5 -92.5q166 0 263.5 92.5t97.5 249.5v926h224v-946q0 -90 -23 -166t-59 -127t-80 -94t-88.5 -77.5t-80.5 -67
t-59 -71.5t-23 -83q0 -46 33.5 -76t86.5 -30q37 0 75 9v-140q-47 -22 -134 -22z" />
    <glyph glyph-name="uogonek" unicode="&#x173;" horiz-adv-x="1254" 
d="M1089 -432q-50 -15 -104 -15q-107 0 -172.5 59.5t-65.5 157.5q0 150 159 247h-17v156h-17q-40 -93 -129 -143.5t-212 -50.5q-182 0 -283.5 106t-101.5 299v705h215v-651q0 -260 240 -260q130 0 205 73t75 201v637h214v-1075h-16q-76 -37 -117 -88t-41 -108
q0 -51 32.5 -81.5t85.5 -30.5q27 0 50 5v-143z" />
    <glyph glyph-name="Wcircumflex" unicode="&#x174;" horiz-adv-x="2013" 
d="M1107 1896l295 -314h-225l-163 181h-16l-163 -181h-225l295 314h202zM999 1059l-309 -1059h-212l-389 1443h233l265 -1105h14l301 1105h208l303 -1105h14l264 1105h233l-390 -1443h-211l-310 1059h-14z" />
    <glyph glyph-name="wcircumflex" unicode="&#x175;" horiz-adv-x="1640" 
d="M938 1584l279 -346h-221l-167 219h-16l-167 -219h-222l280 346h234zM1574 1089l-299 -1089h-223l-225 802h-17l-224 -802h-221l-300 1089h218l195 -831h16l224 831h206l224 -831h17l194 831h215z" />
    <glyph glyph-name="Ycircumflex" unicode="&#x176;" horiz-adv-x="1383" 
d="M803 0h-224v582l-508 861h249l363 -625h17l363 625h249l-509 -861v-582zM792 1896l295 -314h-225l-163 181h-16l-163 -181h-225l295 314h202z" />
    <glyph glyph-name="ycircumflex" unicode="&#x177;" horiz-adv-x="1152" 
d="M264 -396q-64 0 -89 5v185q23 -4 70 -4q77 0 123 35.5t74 117.5l16 53l-394 1093h234l273 -865h17l272 865h228l-406 -1134q-70 -199 -160.5 -275t-257.5 -76zM691 1584l279 -346h-221l-167 219h-16l-167 -219h-222l280 346h234z" />
    <glyph glyph-name="Ydieresis" unicode="&#x178;" horiz-adv-x="1383" 
d="M803 0h-224v582l-508 861h249l363 -625h17l363 625h249l-509 -861v-582zM478 1577q-57 0 -95.5 38.5t-38.5 95.5t38.5 96t95.5 39q56 0 94.5 -39t38.5 -96t-38.5 -95.5t-94.5 -38.5zM905 1577q-56 0 -95 38.5t-39 95.5t39 96t95 39t94.5 -39t38.5 -96t-38.5 -95.5
t-94.5 -38.5z" />
    <glyph glyph-name="Zacute" unicode="&#x179;" horiz-adv-x="1365" 
d="M565 1582l297 306h258l-325 -306h-230zM141 0v161l784 1061v17h-760v204h1041v-161l-780 -1061v-17h799v-204h-1084z" />
    <glyph glyph-name="zacute" unicode="&#x17a;" horiz-adv-x="1124" 
d="M427 1271l251 344h252l-281 -344h-222zM131 0v146l599 744v17h-595v182h852v-157l-586 -733v-17h592v-182h-862z" />
    <glyph glyph-name="Zdotaccent" unicode="&#x17b;" horiz-adv-x="1365" 
d="M683 1577q-57 0 -95.5 39.5t-38.5 97.5t38.5 97.5t95.5 39.5t95.5 -39.5t38.5 -97.5t-38.5 -97.5t-95.5 -39.5zM141 0v161l784 1061v17h-760v204h1041v-161l-780 -1061v-17h799v-204h-1084z" />
    <glyph glyph-name="zdotaccent" unicode="&#x17c;" horiz-adv-x="1124" 
d="M556 1283q-59 0 -99.5 41.5t-40.5 100.5t40.5 100.5t99.5 41.5q58 0 99 -41.5t41 -100.5t-41 -100.5t-99 -41.5zM131 0v146l599 744v17h-595v182h852v-157l-586 -733v-17h592v-182h-862z" />
    <glyph glyph-name="Zcaron" unicode="&#x17d;" horiz-adv-x="1365" 
d="M141 0v161l784 1061v17h-760v204h1041v-161l-780 -1061v-17h799v-204h-1084zM781 1582h-196l-293 306h220l162 -175h18l162 175h220z" />
    <glyph glyph-name="zcaron" unicode="&#x17e;" horiz-adv-x="1124" 
d="M673 1238h-234l-280 346h222l167 -219h16l167 219h221zM131 0v146l599 744v17h-595v182h852v-157l-586 -733v-17h592v-182h-862z" />
    <glyph glyph-name="florin" unicode="&#x192;" horiz-adv-x="1359" 
d="M305 -24q-116 0 -217 25v202q92 -31 193 -31q201 0 229 191l51 334h-329v176h354l31 210q28 186 139.5 283t298.5 97q133 0 209 -18v-195q-74 20 -182 20q-217 0 -247 -207l-29 -190h362v-176h-387l-53 -348q-28 -193 -132.5 -283t-290.5 -90z" />
    <glyph glyph-name="Ohorn" unicode="&#x1a0;" horiz-adv-x="1663" 
d="M1468 720q0 -349 -181 -552t-492 -203t-492 203.5t-181 552.5t181 553t491 204q85 0 157.5 -16t121 -39t89 -46t78 -39t69.5 -16q102 0 102 152v169h185v-237q0 -116 -49 -179t-139 -63q-16 0 -32 7l-12 -13q104 -188 104 -438zM796 1269q-205 0 -325 -148t-120 -400
q0 -251 120 -399t325 -148q204 0 323.5 148t119.5 400t-119 399.5t-324 147.5z" />
    <glyph glyph-name="ohorn" unicode="&#x1a1;" horiz-adv-x="1369" 
d="M324 544q0 -178 76.5 -276t215.5 -98t215.5 98t76.5 276t-76.5 276.5t-215.5 98.5t-215.5 -98t-76.5 -277zM1129 542q0 -262 -137.5 -412.5t-378.5 -150.5q-236 0 -373.5 151.5t-137.5 411.5q0 261 137.5 414.5t371.5 153.5q88 0 163 -24t116.5 -53t86 -53t79.5 -24
q52 0 77 31.5t25 105.5v172h184v-238q0 -110 -52 -173.5t-138 -63.5q-30 0 -57 9l-10 -11q44 -122 44 -246z" />
    <glyph glyph-name="Uhorn" unicode="&#x1af;" horiz-adv-x="1790" 
d="M1355 1360q41 -33 94 -30q55 2 79.5 37t24.5 112v161h184v-213q0 -124 -69.5 -198.5t-184.5 -74.5q-33 0 -71 9.5t-58 24.5v-691q0 -241 -160.5 -386.5t-424.5 -145.5t-424 145.5t-160 386.5v946h224v-926q0 -157 97.5 -249.5t262.5 -92.5q166 0 263.5 92.5t97.5 249.5
v926h225v-83z" />
    <glyph glyph-name="uhorn" unicode="&#x1b0;" horiz-adv-x="1465" 
d="M871 173q-40 -93 -129 -143.5t-212 -50.5q-182 0 -283.5 107t-101.5 298v705h215v-651q0 -260 240 -260q130 0 204.5 73.5t74.5 200.5v637h217v-70q42 -33 95 -28q55 2 78.5 36.5t23.5 110.5v161h185v-213q0 -124 -69.5 -198.5t-184.5 -74.5q-85 0 -130 34v-847h-206v173
h-17z" />
    <glyph glyph-name="u01C4" unicode="&#x1c4;" horiz-adv-x="2871" 
d="M181 1443h521q321 0 500 -188.5t179 -528.5q0 -346 -178 -536t-501 -190h-521v1443zM405 1239v-1035h272q227 0 351.5 135.5t124.5 383.5q0 244 -125.5 380t-350.5 136h-272zM1647 0v161l784 1061v17h-760v204h1041v-161l-780 -1061v-17h799v-204h-1084zM2287 1582h-196
l-293 306h220l162 -175h18l162 175h220z" />
    <glyph glyph-name="u01C5" unicode="&#x1c5;" horiz-adv-x="2630" 
d="M181 1443h521q321 0 500 -188.5t179 -528.5q0 -346 -178 -536t-501 -190h-521v1443zM405 1239v-1035h272q227 0 351.5 135.5t124.5 383.5q0 244 -125.5 380t-350.5 136h-272zM2179 1238h-234l-280 346h222l167 -219h16l167 219h221zM1637 0v146l599 744v17h-595v182h852
v-157l-586 -733v-17h592v-182h-862z" />
    <glyph glyph-name="u01C6" unicode="&#x1c6;" horiz-adv-x="2413" 
d="M554 -18q-208 0 -330 152t-122 411q0 258 122.5 410t329.5 152q112 0 201 -50.5t133 -140.5h16v598h215v-1514h-206v172h-17q-49 -89 -139.5 -139.5t-202.5 -50.5zM615 914q-136 0 -213.5 -98.5t-77.5 -270.5q0 -173 77.5 -271.5t213.5 -98.5t214.5 99t78.5 270
q0 170 -79 270t-214 100zM1962 1238h-234l-280 346h222l167 -219h16l167 219h221zM1420 0v146l599 744v17h-595v182h852v-157l-586 -733v-17h592v-182h-862z" />
    <glyph glyph-name="u01C7" unicode="&#x1c7;" horiz-adv-x="2329" 
d="M1263 375h220q2 -89 62 -144t156 -55q108 0 166 63.5t58 183.5v1020h224v-1021q0 -217 -118.5 -337t-327.5 -120q-197 0 -318.5 112.5t-121.5 297.5zM1081 206v-206h-900v1443h224v-1237h676z" />
    <glyph glyph-name="u01C8" unicode="&#x1c8;" horiz-adv-x="1726" 
d="M1555 1089v-1149q0 -167 -86.5 -247t-264.5 -80q-43 0 -48 1v180h30q85 0 120 34t35 114v1147h214zM1448 1280q-60 0 -99.5 37.5t-39.5 93.5t39.5 94t99.5 38t99.5 -38t39.5 -94t-39.5 -93.5t-99.5 -37.5zM1081 206v-206h-900v1443h224v-1237h676z" />
    <glyph glyph-name="u01C9" unicode="&#x1c9;" horiz-adv-x="1090" 
d="M919 1089v-1149q0 -167 -86.5 -247t-264.5 -80q-43 0 -48 1v180h30q85 0 120 34t35 114v1147h214zM812 1280q-60 0 -99.5 37.5t-39.5 93.5t39.5 94t99.5 38t99.5 -38t39.5 -94t-39.5 -93.5t-99.5 -37.5zM166 0v1514h215v-1514h-215z" />
    <glyph glyph-name="u01CA" unicode="&#x1ca;" horiz-adv-x="2688" 
d="M1621 375h220q2 -89 62 -144t156 -55q108 0 166 63.5t58 183.5v1020h224v-1021q0 -217 -118.5 -337t-327.5 -120q-197 0 -318.5 112.5t-121.5 297.5zM399 0h-218v1443h202l741 -1025h16v1025h218v-1443h-202l-741 1025h-16v-1025z" />
    <glyph glyph-name="u01CB" unicode="&#x1cb;" horiz-adv-x="2084" 
d="M1913 1089v-1149q0 -167 -86.5 -247t-264.5 -80q-43 0 -48 1v180h30q85 0 120 34t35 114v1147h214zM1806 1280q-60 0 -99.5 37.5t-39.5 93.5t39.5 94t99.5 38t99.5 -38t39.5 -94t-39.5 -93.5t-99.5 -37.5zM399 0h-218v1443h202l741 -1025h16v1025h218v-1443h-202
l-741 1025h-16v-1025z" />
    <glyph glyph-name="u01CC" unicode="&#x1cc;" horiz-adv-x="1801" 
d="M1629 1089v-1149q0 -167 -86.5 -247t-264.5 -80q-43 0 -48 1v180h30q85 0 120 34t35 114v1147h214zM1522 1280q-60 0 -99.5 37.5t-39.5 93.5t39.5 94t99.5 38t99.5 -38t39.5 -94t-39.5 -93.5t-99.5 -37.5zM156 0v1089h207v-173h16q40 91 130.5 142.5t213.5 51.5
q182 0 281 -105.5t99 -299.5v-705h-215v651q0 262 -238 262q-130 0 -204.5 -74t-74.5 -202v-637h-215z" />
    <glyph glyph-name="Acaron" unicode="&#x1cd;" horiz-adv-x="1423" 
d="M1115 0l-132 383h-550l-133 -383h-230l521 1443h241l521 -1443h-238zM700 1181l-210 -610h436l-209 610h-17zM810 1582h-196l-293 306h220l162 -175h18l162 175h220z" />
    <glyph glyph-name="acaron" unicode="&#x1ce;" horiz-adv-x="1158" 
d="M512 163q121 0 201.5 68t80.5 170v91l-266 -17q-112 -7 -165 -46t-53 -111t56 -113.5t146 -41.5zM457 -18q-160 0 -261.5 89.5t-101.5 236.5q0 146 105 229.5t300 95.5l295 17v94q0 87 -57 133.5t-166 46.5q-90 0 -149.5 -31.5t-77.5 -89.5h-208q16 140 137.5 223.5
t307.5 83.5q204 0 315.5 -96.5t111.5 -269.5v-744h-207v153h-17q-49 -82 -134.5 -126.5t-192.5 -44.5zM698 1238h-234l-280 346h222l167 -219h16l167 219h221z" />
    <glyph glyph-name="Icaron" unicode="&#x1cf;" horiz-adv-x="585" 
d="M405 0h-224v1443h224v-1443zM391 1582h-196l-293 306h220l162 -175h18l162 175h220z" />
    <glyph glyph-name="icaron" unicode="&#x1d0;" horiz-adv-x="544" 
d="M389 1238h-234l-280 346h222l167 -219h16l167 219h221zM164 0v1089h215v-1089h-215z" />
    <glyph glyph-name="Ocaron" unicode="&#x1d1;" horiz-adv-x="1590" 
d="M894 1582h-196l-293 306h220l162 -175h18l162 175h220zM796 1478q312 0 492 -203.5t180 -552.5t-180 -553t-492 -204q-313 0 -493.5 203.5t-180.5 553.5q0 349 181.5 552.5t492.5 203.5zM796 1269q-204 0 -324.5 -148t-120.5 -399t119 -399.5t326 -148.5q205 0 324 148.5
t119 399.5q0 252 -119 399.5t-324 147.5z" />
    <glyph glyph-name="ocaron" unicode="&#x1d2;" horiz-adv-x="1231" 
d="M733 1238h-234l-280 346h222l167 -219h16l167 219h221zM616 170q139 0 215.5 98.5t76.5 276.5q0 177 -76.5 275.5t-215.5 98.5q-140 0 -216 -98t-76 -276q0 -179 76 -277t216 -98zM616 -21q-240 0 -377 151t-137 415q0 263 137.5 414t376.5 151q238 0 375.5 -151
t137.5 -414q0 -264 -137 -415t-376 -151z" />
    <glyph glyph-name="Ucaron" unicode="&#x1d3;" horiz-adv-x="1539" 
d="M867 1582h-196l-293 306h220l162 -175h18l162 175h220zM409 1443v-926q0 -154 95.5 -248t264.5 -94q170 0 265.5 94t95.5 248v926h224v-946q0 -238 -158.5 -385t-426.5 -147t-426 147t-158 385v946h224z" />
    <glyph glyph-name="ucaron" unicode="&#x1d4;" horiz-adv-x="1257" 
d="M743 1238h-234l-280 346h222l167 -219h16l167 219h221zM1095 1089v-1089h-206v173h-17q-40 -93 -129 -143.5t-212 -50.5q-182 0 -283.5 106t-101.5 299v705h215v-651q0 -260 240 -260q130 0 205 73t75 201v637h214z" />
    <glyph glyph-name="Udieresismacron" unicode="&#x1d5;" horiz-adv-x="1539" 
d="M409 1443v-926q0 -154 95.5 -248t264.5 -94q170 0 265.5 94t95.5 248v926h224v-946q0 -238 -158.5 -385t-426.5 -147t-426 147t-158 385v946h224zM419 1960v147h700v-147h-700zM555 1577q-55 0 -92.5 38t-37.5 93q0 56 37.5 94t92.5 38t92.5 -38t37.5 -94t-37.5 -93.5
t-92.5 -37.5zM983 1577q-55 0 -92.5 37.5t-37.5 93.5t37.5 94t92.5 38t92.5 -38t37.5 -94q0 -55 -37.5 -93t-92.5 -38z" />
    <glyph glyph-name="udieresismacron" unicode="&#x1d6;" horiz-adv-x="1257" 
d="M1095 1089v-1089h-206v173h-17q-40 -93 -129 -143.5t-212 -50.5q-182 0 -283.5 106t-101.5 299v705h215v-651q0 -260 240 -260q130 0 205 73t75 201v637h214zM417 1238q-54 0 -90.5 37.5t-36.5 91.5q0 55 36.5 92.5t90.5 37.5t90.5 -37.5t36.5 -92.5q0 -54 -36.5 -91.5
t-90.5 -37.5zM835 1238q-54 0 -90.5 37.5t-36.5 91.5q0 55 36.5 92.5t90.5 37.5t90.5 -37.5t36.5 -92.5q0 -54 -36.5 -91.5t-90.5 -37.5zM974 1645h-696v155h696v-155z" />
    <glyph glyph-name="Udieresisacute" unicode="&#x1d7;" horiz-adv-x="1539" 
d="M669 1901l207 231h251l-258 -231h-200zM556 1577q-57 0 -95.5 38.5t-38.5 95.5t38.5 96t95.5 39q56 0 94.5 -39t38.5 -96t-38.5 -95.5t-94.5 -38.5zM983 1577q-56 0 -95 38.5t-39 95.5t39 96t95 39t94.5 -39t38.5 -96t-38.5 -95.5t-94.5 -38.5zM409 1443v-926
q0 -154 95.5 -248t264.5 -94q170 0 265.5 94t95.5 248v926h224v-946q0 -238 -158.5 -385t-426.5 -147t-426 147t-158 385v946h224z" />
    <glyph glyph-name="udieresisacute" unicode="&#x1d8;" horiz-adv-x="1257" 
d="M516 1604l196 306h228l-229 -306h-195zM413 1241q-57 0 -95.5 38.5t-38.5 95.5t38.5 96t95.5 39q56 0 94.5 -39t38.5 -96t-38.5 -95.5t-94.5 -38.5zM840 1241q-56 0 -95 38.5t-39 95.5t39 96t95 39t94.5 -39t38.5 -96t-38.5 -95.5t-94.5 -38.5zM1095 1089v-1089h-206v173
h-17q-40 -93 -129 -143.5t-212 -50.5q-182 0 -283.5 106t-101.5 299v705h215v-651q0 -260 240 -260q130 0 205 73t75 201v637h214z" />
    <glyph glyph-name="Udieresiscaron" unicode="&#x1d9;" horiz-adv-x="1539" 
d="M555 1570q-55 0 -92 37.5t-37 91.5q0 55 37 92t92 37t92.5 -37t37.5 -92q0 -54 -37.5 -91.5t-92.5 -37.5zM983 1570q-55 0 -92.5 37.5t-37.5 91.5q0 55 37.5 92t92.5 37t92 -37t37 -92q0 -54 -37 -91.5t-92 -37.5zM880 1883h-222l-289 262h237l154 -148h18l154 148h237z
M409 1443v-926q0 -154 95.5 -248t264.5 -94q170 0 265.5 94t95.5 248v926h224v-946q0 -238 -158.5 -385t-426.5 -147t-426 147t-158 385v946h224z" />
    <glyph glyph-name="udieresiscaron" unicode="&#x1da;" horiz-adv-x="1257" 
d="M417 1238q-54 0 -90.5 37.5t-36.5 91.5q0 55 36.5 92.5t90.5 37.5t90.5 -37.5t36.5 -92.5q0 -54 -36.5 -91.5t-90.5 -37.5zM835 1238q-54 0 -90.5 37.5t-36.5 91.5q0 55 36.5 92.5t90.5 37.5t90.5 -37.5t36.5 -92.5q0 -54 -36.5 -91.5t-90.5 -37.5zM740 1596h-228
l-278 331h219l165 -207h16l165 207h219zM1095 1089v-1089h-206v173h-17q-40 -93 -129 -143.5t-212 -50.5q-182 0 -283.5 106t-101.5 299v705h215v-651q0 -260 240 -260q130 0 205 73t75 201v637h214z" />
    <glyph glyph-name="Udieresisgrave" unicode="&#x1db;" horiz-adv-x="1539" 
d="M883 1901h-199l-258 231h250zM556 1577q-57 0 -95.5 38.5t-38.5 95.5t38.5 96t95.5 39q56 0 94.5 -39t38.5 -96t-38.5 -95.5t-94.5 -38.5zM983 1577q-56 0 -95 38.5t-39 95.5t39 96t95 39t94.5 -39t38.5 -96t-38.5 -95.5t-94.5 -38.5zM409 1443v-926q0 -154 95.5 -248
t264.5 -94q170 0 265.5 94t95.5 248v926h224v-946q0 -238 -158.5 -385t-426.5 -147t-426 147t-158 385v946h224z" />
    <glyph glyph-name="udieresisgrave" unicode="&#x1dc;" horiz-adv-x="1257" 
d="M736 1604h-195l-229 306h228zM413 1241q-57 0 -95.5 38.5t-38.5 95.5t38.5 96t95.5 39q56 0 94.5 -39t38.5 -96t-38.5 -95.5t-94.5 -38.5zM840 1241q-56 0 -95 38.5t-39 95.5t39 96t95 39t94.5 -39t38.5 -96t-38.5 -95.5t-94.5 -38.5zM1095 1089v-1089h-206v173h-17
q-40 -93 -129 -143.5t-212 -50.5q-182 0 -283.5 106t-101.5 299v705h215v-651q0 -260 240 -260q130 0 205 73t75 201v637h214z" />
    <glyph glyph-name="Adieresismacron" unicode="&#x1de;" horiz-adv-x="1423" 
d="M1115 0l-132 383h-550l-133 -383h-230l521 1443h241l521 -1443h-238zM700 1181l-210 -610h436l-209 610h-17zM362 1960v147h700v-147h-700zM498 1577q-55 0 -92.5 38t-37.5 93q0 56 37.5 94t92.5 38t92.5 -38t37.5 -94t-37.5 -93.5t-92.5 -37.5zM926 1577
q-55 0 -92.5 37.5t-37.5 93.5t37.5 94t92.5 38t92.5 -38t37.5 -94q0 -55 -37.5 -93t-92.5 -38z" />
    <glyph glyph-name="adieresismacron" unicode="&#x1df;" horiz-adv-x="1158" 
d="M512 163q121 0 201.5 68t80.5 170v91l-266 -17q-112 -7 -165 -46t-53 -111t56 -113.5t146 -41.5zM457 -18q-160 0 -261.5 89.5t-101.5 236.5q0 146 105 229.5t300 95.5l295 17v94q0 87 -57 133.5t-166 46.5q-90 0 -149.5 -31.5t-77.5 -89.5h-208q16 140 137.5 223.5
t307.5 83.5q204 0 315.5 -96.5t111.5 -269.5v-744h-207v153h-17q-49 -82 -134.5 -126.5t-192.5 -44.5zM372 1238q-54 0 -90.5 37.5t-36.5 91.5q0 55 36.5 92.5t90.5 37.5t90.5 -37.5t36.5 -92.5q0 -54 -36.5 -91.5t-90.5 -37.5zM790 1238q-54 0 -90.5 37.5t-36.5 91.5
q0 55 36.5 92.5t90.5 37.5t90.5 -37.5t36.5 -92.5q0 -54 -36.5 -91.5t-90.5 -37.5zM929 1645h-696v155h696v-155z" />
    <glyph glyph-name="Adotmacron" unicode="&#x1e0;" horiz-adv-x="1423" 
d="M1115 0l-132 383h-550l-133 -383h-230l521 1443h241l521 -1443h-238zM700 1181l-210 -610h436l-209 610h-17zM712 1576q-56 0 -94 38t-38 94t38 94t94 38t94 -38t38 -94t-38 -94t-94 -38zM1062 1960h-700v147h700v-147z" />
    <glyph glyph-name="adotmacron" unicode="&#x1e1;" horiz-adv-x="1158" 
d="M512 163q121 0 201.5 68t80.5 170v91l-266 -17q-112 -7 -165 -46t-53 -111t56 -113.5t146 -41.5zM457 -18q-160 0 -261.5 89.5t-101.5 236.5q0 146 105 229.5t300 95.5l295 17v94q0 87 -57 133.5t-166 46.5q-90 0 -149.5 -31.5t-77.5 -89.5h-208q16 140 137.5 223.5
t307.5 83.5q204 0 315.5 -96.5t111.5 -269.5v-744h-207v153h-17q-49 -82 -134.5 -126.5t-192.5 -44.5zM581 1238q-56 0 -93 38t-37 94q0 57 37 95t93 38t93 -38t37 -95q0 -56 -37 -94t-93 -38zM929 1645h-696v155h696v-155z" />
    <glyph glyph-name="AEmacron" unicode="&#x1e2;" horiz-adv-x="1999" 
d="M987 1253h-140l-288 -647h428v647zM987 0v417h-504l-189 -417h-224l631 1443h1156v-204h-655v-415h618v-195h-618v-425h655v-204h-870zM1819 1625h-700v156h700v-156z" />
    <glyph glyph-name="aemacron" unicode="&#x1e3;" horiz-adv-x="1868" 
d="M1297 -21q-129 0 -235.5 59.5t-152.5 156.5h-17q-56 -101 -161.5 -158.5t-244.5 -57.5q-177 0 -284.5 90t-107.5 239q0 146 105 229.5t300 95.5l295 17v94q0 87 -57 133.5t-166 46.5q-90 0 -149.5 -31.5t-77.5 -89.5h-208q16 137 136 222t298 85q125 0 215.5 -47
t135.5 -126h17q52 77 147.5 125t208.5 48q219 0 344 -143.5t125 -394.5v-79h-760v-21q5 -141 85.5 -225t210.5 -84q180 0 245 131h207q-38 -149 -157.5 -232t-296.5 -83zM1282 928q-120 0 -195.5 -75t-83.5 -201h542q-4 122 -77 199t-186 77zM520 161q117 0 195.5 72
t78.5 174v85l-266 -17q-112 -7 -165 -46t-53 -112t57.5 -114.5t152.5 -41.5zM1303 1299h-696v155h696v-155z" />
    <glyph glyph-name="Gcaron" unicode="&#x1e6;" horiz-adv-x="1539" 
d="M885 1582h-196l-293 306h220l162 -175h18l162 175h220zM1412 571q0 -277 -169.5 -441.5t-453.5 -164.5q-307 0 -487 204t-180 553q0 345 181 550.5t484 205.5q246 0 412 -129.5t203 -348.5h-225q-42 131 -142 200t-248 69q-200 0 -318 -147.5t-118 -397.5
q0 -255 118.5 -402.5t322.5 -147.5q177 0 288 99t112 259v31h-372v188h592v-180z" />
    <glyph glyph-name="gcaron" unicode="&#x1e7;" horiz-adv-x="1274" 
d="M729 1238h-234l-280 346h222l167 -219h16l167 219h221zM907 558q0 163 -79 259.5t-216 96.5t-213 -95.5t-76 -260.5t76 -260.5t213 -95.5t216 96t79 260zM615 -416q-202 0 -328 83.5t-143 223.5h220q14 -60 80.5 -95t173.5 -35q134 0 209.5 60.5t75.5 168.5v209h-16
q-49 -88 -136 -135.5t-200 -47.5q-207 0 -328.5 147.5t-121.5 393.5q0 250 122 400t330 150q112 0 204 -51.5t138 -140.5h17v174h206v-1098q0 -187 -136 -297t-367 -110z" />
    <glyph glyph-name="Kcaron" unicode="&#x1e8;" horiz-adv-x="1386" 
d="M405 0h-224v1443h224v-676h16l597 676h265l-558 -627l606 -816h-280l-484 655l-162 -181v-474zM768 1582h-196l-293 306h220l162 -175h18l162 175h220z" />
    <glyph glyph-name="kcaron" unicode="&#x1e9;" horiz-adv-x="1155" 
d="M398 635l432 454h254l-448 -467l478 -622h-264l-374 480l-95 -90v-390h-215v1514h215v-879h17zM372 1653h-196l-293 306h220l162 -175h18l162 175h220z" />
    <glyph glyph-name="Oogonek" unicode="&#x1ea;" horiz-adv-x="1590" 
d="M1029 -448q-101 0 -165 59t-64 151q0 120 102 203v17q-54 -16 -107 -16q-312 0 -492.5 203t-180.5 553q0 348 182 552t492 204q311 0 491.5 -203.5t180.5 -552.5q0 -106 -17 -197t-45.5 -157t-65.5 -122t-78 -96.5t-82 -76l-78 -66t-65.5 -60t-45.5 -64t-17 -72.5
q0 -46 32 -76t82 -30q38 0 77 9v-140q-42 -22 -136 -22zM796 1269q-204 0 -324.5 -148t-120.5 -399q0 -253 120 -400.5t325 -147.5q204 0 323.5 148t119.5 400t-119 399.5t-324 147.5z" />
    <glyph glyph-name="oogonek" unicode="&#x1eb;" horiz-adv-x="1231" 
d="M797 -448q-104 0 -168 56t-64 147q0 115 103 212v17q-35 -5 -59 -5q-236 1 -371.5 152t-135.5 415q0 262 137.5 413t376.5 151q238 0 375.5 -151t137.5 -413q0 -294 -194 -472q-120 -112 -158 -165.5t-38 -108.5q0 -43 32 -69t84 -26q42 0 75 9v-140q-58 -22 -133 -22z
M616 170q139 0 215.5 98.5t76.5 276.5t-76.5 276t-215.5 98t-215.5 -98t-76.5 -276q0 -179 76.5 -277t215.5 -98z" />
    <glyph glyph-name="Oogonekmacron" unicode="&#x1ec;" horiz-adv-x="1590" 
d="M1029 -448q-101 0 -165 59t-64 151q0 120 102 203v17q-54 -16 -107 -16q-312 0 -492.5 203t-180.5 553q0 348 182 552t492 204q311 0 491.5 -203.5t180.5 -552.5q0 -106 -17 -197t-45.5 -157t-65.5 -122t-78 -96.5t-82 -76l-78 -66t-65.5 -60t-45.5 -64t-17 -72.5
q0 -46 32 -76t82 -30q38 0 77 9v-140q-42 -22 -136 -22zM796 1269q-204 0 -324.5 -148t-120.5 -399q0 -253 120 -400.5t325 -147.5q204 0 323.5 148t119.5 400t-119 399.5t-324 147.5zM1146 1625h-700v156h700v-156z" />
    <glyph glyph-name="oogonekmacron" unicode="&#x1ed;" horiz-adv-x="1231" 
d="M797 -448q-104 0 -168 56t-64 147q0 115 103 212v17q-35 -5 -59 -5q-236 1 -371.5 152t-135.5 415q0 262 137.5 413t376.5 151q238 0 375.5 -151t137.5 -413q0 -294 -194 -472q-120 -112 -158 -165.5t-38 -108.5q0 -43 32 -69t84 -26q42 0 75 9v-140q-58 -22 -133 -22z
M616 170q139 0 215.5 98.5t76.5 276.5t-76.5 276t-215.5 98t-215.5 -98t-76.5 -276q0 -179 76.5 -277t215.5 -98zM964 1299h-696v155h696v-155z" />
    <glyph glyph-name="u01F1" unicode="&#x1f1;" horiz-adv-x="2871" 
d="M1647 0v161l784 1061v17h-760v204h1041v-161l-780 -1061v-17h799v-204h-1084zM181 1443h521q321 0 500 -188.5t179 -528.5q0 -346 -178 -536t-501 -190h-521v1443zM405 1239v-1035h272q227 0 351.5 135.5t124.5 383.5q0 244 -125.5 380t-350.5 136h-272z" />
    <glyph glyph-name="u01F2" unicode="&#x1f2;" horiz-adv-x="2630" 
d="M1637 0v146l599 744v17h-595v182h852v-157l-586 -733v-17h592v-182h-862zM181 1443h521q321 0 500 -188.5t179 -528.5q0 -346 -178 -536t-501 -190h-521v1443zM405 1239v-1035h272q227 0 351.5 135.5t124.5 383.5q0 244 -125.5 380t-350.5 136h-272z" />
    <glyph glyph-name="u01F3" unicode="&#x1f3;" horiz-adv-x="2413" 
d="M1420 0v146l599 744v17h-595v182h852v-157l-586 -733v-17h592v-182h-862zM554 -18q-208 0 -330 152t-122 411q0 258 122.5 410t329.5 152q112 0 201 -50.5t133 -140.5h16v598h215v-1514h-206v172h-17q-49 -89 -139.5 -139.5t-202.5 -50.5zM615 914q-136 0 -213.5 -98.5
t-77.5 -270.5q0 -173 77.5 -271.5t213.5 -98.5t214.5 99t78.5 270q0 170 -79 270t-214 100z" />
    <glyph glyph-name="Gacute" unicode="&#x1f4;" horiz-adv-x="1539" 
d="M669 1582l297 306h258l-325 -306h-230zM1412 571q0 -277 -169.5 -441.5t-453.5 -164.5q-307 0 -487 204t-180 553q0 345 181 550.5t484 205.5q246 0 412 -129.5t203 -348.5h-225q-42 131 -142 200t-248 69q-200 0 -318 -147.5t-118 -397.5q0 -255 118.5 -402.5
t322.5 -147.5q177 0 288 99t112 259v31h-372v188h592v-180z" />
    <glyph glyph-name="gacute" unicode="&#x1f5;" horiz-adv-x="1274" 
d="M483 1271l251 344h252l-281 -344h-222zM907 558q0 163 -79 259.5t-216 96.5t-213 -95.5t-76 -260.5t76 -260.5t213 -95.5t216 96t79 260zM615 -416q-202 0 -328 83.5t-143 223.5h220q14 -60 80.5 -95t173.5 -35q134 0 209.5 60.5t75.5 168.5v209h-16q-49 -88 -136 -135.5
t-200 -47.5q-207 0 -328.5 147.5t-121.5 393.5q0 250 122 400t330 150q112 0 204 -51.5t138 -140.5h17v174h206v-1098q0 -187 -136 -297t-367 -110z" />
    <glyph glyph-name="Ngrave" unicode="&#x1f8;" horiz-adv-x="1539" 
d="M587 1888l298 -306h-230l-326 306h258zM399 0h-218v1443h202l741 -1025h16v1025h218v-1443h-202l-741 1025h-16v-1025z" />
    <glyph glyph-name="ngrave" unicode="&#x1f9;" horiz-adv-x="1249" 
d="M776 1271h-221l-282 344h252zM156 0v1089h207v-173h16q40 91 130.5 142.5t213.5 51.5q182 0 281 -105.5t99 -299.5v-705h-215v651q0 262 -238 262q-130 0 -204.5 -74t-74.5 -202v-637h-215z" />
    <glyph glyph-name="Aringacute" unicode="&#x1fa;" horiz-adv-x="1423" 
d="M1115 0l-132 383h-550l-133 -383h-230l521 1443h241l521 -1443h-238zM700 1181l-210 -610h436l-209 610h-17zM630 1751q-6 -32 14 -59.5t55 -34.5t62 10t33 50t-14 60t-55 35q-35 7 -62.5 -10.5t-32.5 -50.5zM712 1532q-87 0 -147 58.5t-60 145.5q0 86 60 144t147 58
t147 -58t60 -144q0 -87 -60 -145.5t-147 -58.5zM754 2191h214l-160 -186h-188z" />
    <glyph glyph-name="aringacute" unicode="&#x1fb;" horiz-adv-x="1158" 
d="M512 163q121 0 201.5 68t80.5 170v91l-266 -17q-112 -7 -165 -46t-53 -111t56 -113.5t146 -41.5zM457 -18q-160 0 -261.5 89.5t-101.5 236.5q0 146 105 229.5t300 95.5l295 17v94q0 87 -57 133.5t-166 46.5q-90 0 -149.5 -31.5t-77.5 -89.5h-208q16 140 137.5 223.5
t307.5 83.5q204 0 315.5 -96.5t111.5 -269.5v-744h-207v153h-17q-49 -82 -134.5 -126.5t-192.5 -44.5zM581 1207q-89 0 -150 60t-61 148t61 148.5t150 60.5t150 -60.5t61 -148.5t-61 -148t-150 -60zM484 1415q0 -42 28 -70t69 -28t69 28t28 70q0 41 -28 69t-69 28t-69 -28
t-28 -69zM488 1707l164 231h218l-196 -231h-186z" />
    <glyph glyph-name="AEacute" unicode="&#x1fc;" horiz-adv-x="1999" 
d="M1351 1582l297 306h258l-325 -306h-230zM987 1253h-140l-288 -647h428v647zM987 0v417h-504l-189 -417h-224l631 1443h1156v-204h-655v-415h618v-195h-618v-425h655v-204h-870z" />
    <glyph glyph-name="aeacute" unicode="&#x1fd;" horiz-adv-x="1868" 
d="M826 1271l251 344h252l-281 -344h-222zM1297 -21q-129 0 -235.5 59.5t-152.5 156.5h-17q-56 -101 -161.5 -158.5t-244.5 -57.5q-177 0 -284.5 90t-107.5 239q0 146 105 229.5t300 95.5l295 17v94q0 87 -57 133.5t-166 46.5q-90 0 -149.5 -31.5t-77.5 -89.5h-208
q16 137 136 222t298 85q125 0 215.5 -47t135.5 -126h17q52 77 147.5 125t208.5 48q219 0 344 -143.5t125 -394.5v-79h-760v-21q5 -141 85.5 -225t210.5 -84q180 0 245 131h207q-38 -149 -157.5 -232t-296.5 -83zM1282 928q-120 0 -195.5 -75t-83.5 -201h542q-4 122 -77 199
t-186 77zM520 161q117 0 195.5 72t78.5 174v85l-266 -17q-112 -7 -165 -46t-53 -112t57.5 -114.5t152.5 -41.5z" />
    <glyph glyph-name="Oslashacute" unicode="&#x1fe;" horiz-adv-x="1566" 
d="M1228 1888l-325 -306h-230l297 306h258zM1133 1105l-609 -838q110 -93 272 -93q205 0 324 148.5t119 399.5q0 236 -106 383zM442 362l605 830q-105 77 -251 77q-204 0 -324.5 -148t-120.5 -399q0 -217 91 -360zM1370 1432l-100 -138q198 -204 198 -572q0 -349 -180 -553
t-492 -204q-236 0 -404 121l-103 -142l-101 71l113 155q-179 202 -179 552q0 349 181.5 552.5t492.5 203.5q223 0 382 -107l91 125z" />
    <glyph glyph-name="oslashacute" unicode="&#x1ff;" horiz-adv-x="1231" 
d="M970 1615l-281 -344h-222l251 344h252zM849 795l-383 -586q63 -39 150 -39q139 0 215.5 98.5t76.5 276.5q0 156 -59 250zM379 300l383 582q-63 37 -146 37q-140 0 -216 -98t-76 -276q0 -152 55 -245zM1035 1080l-65 -99q159 -153 159 -436q0 -264 -137 -415t-376 -151
q-147 0 -261 60l-60 -92l-104 67l65 99q-154 151 -154 432q0 263 137.5 414t376.5 151q147 0 257 -59l60 91z" />
    <glyph glyph-name="Adblgrave" unicode="&#x200;" horiz-adv-x="1423" 
d="M1115 0l-132 383h-550l-133 -383h-230l521 1443h241l521 -1443h-238zM700 1181l-210 -610h436l-209 610h-17zM622 1582h-218l-312 306h241zM1045 1582h-219l-312 306h242z" />
    <glyph glyph-name="adblgrave" unicode="&#x201;" horiz-adv-x="1158" 
d="M512 163q121 0 201.5 68t80.5 170v91l-266 -17q-112 -7 -165 -46t-53 -111t56 -113.5t146 -41.5zM457 -18q-160 0 -261.5 89.5t-101.5 236.5q0 146 105 229.5t300 95.5l295 17v94q0 87 -57 133.5t-166 46.5q-90 0 -149.5 -31.5t-77.5 -89.5h-208q16 140 137.5 223.5
t307.5 83.5q204 0 315.5 -96.5t111.5 -269.5v-744h-207v153h-17q-49 -82 -134.5 -126.5t-192.5 -44.5zM499 1271h-200l-266 344h228zM912 1271h-200l-266 344h228z" />
    <glyph glyph-name="Ainvertedbreve" unicode="&#x202;" horiz-adv-x="1423" 
d="M1115 0l-132 383h-550l-133 -383h-230l521 1443h241l521 -1443h-238zM700 1181l-210 -610h436l-209 610h-17zM335 1577q0 142 101.5 228t275.5 86t275.5 -86t101.5 -228h-173q-1 78 -56 123.5t-148 45.5t-148 -45.5t-56 -123.5h-173z" />
    <glyph glyph-name="ainvertedbreve" unicode="&#x203;" horiz-adv-x="1158" 
d="M512 163q121 0 201.5 68t80.5 170v91l-266 -17q-112 -7 -165 -46t-53 -111t56 -113.5t146 -41.5zM457 -18q-160 0 -261.5 89.5t-101.5 236.5q0 146 105 229.5t300 95.5l295 17v94q0 87 -57 133.5t-166 46.5q-90 0 -149.5 -31.5t-77.5 -89.5h-208q16 140 137.5 223.5
t307.5 83.5q204 0 315.5 -96.5t111.5 -269.5v-744h-207v153h-17q-49 -82 -134.5 -126.5t-192.5 -44.5zM204 1238q0 150 102 244t275 94t275 -94t102 -244h-173q-1 85 -55 137.5t-149 52.5t-149 -52.5t-55 -137.5h-173z" />
    <glyph glyph-name="Edblgrave" unicode="&#x204;" horiz-adv-x="1239" 
d="M549 1582h-218l-312 306h241zM972 1582h-219l-312 306h242zM1097 204v-204h-916v1443h916v-204h-692v-408h655v-194h-655v-433h692z" />
    <glyph glyph-name="edblgrave" unicode="&#x205;" horiz-adv-x="1192" 
d="M603 927q-119 0 -196 -77t-86 -205h550q-4 129 -76.5 205.5t-191.5 76.5zM870 294h207q-37 -147 -161.5 -231t-310.5 -84q-234 0 -368.5 150.5t-134.5 411.5t136 415t366 154q227 0 356.5 -146t129.5 -403v-75h-769v-12q5 -144 83 -228t207 -84q197 0 259 132zM522 1271
h-200l-266 344h228zM935 1271h-200l-266 344h228z" />
    <glyph glyph-name="Einvertedbreve" unicode="&#x206;" horiz-adv-x="1239" 
d="M1097 204v-204h-916v1443h916v-204h-692v-408h655v-194h-655v-433h692zM262 1577q0 142 101.5 228t275.5 86t275.5 -86t101.5 -228h-173q-1 78 -56 123.5t-148 45.5t-148 -45.5t-56 -123.5h-173z" />
    <glyph glyph-name="einvertedbreve" unicode="&#x207;" horiz-adv-x="1192" 
d="M603 927q-119 0 -196 -77t-86 -205h550q-4 129 -76.5 205.5t-191.5 76.5zM870 294h207q-37 -147 -161.5 -231t-310.5 -84q-234 0 -368.5 150.5t-134.5 411.5t136 415t366 154q227 0 356.5 -146t129.5 -403v-75h-769v-12q5 -144 83 -228t207 -84q197 0 259 132zM227 1238
q0 150 102 244t275 94t275 -94t102 -244h-173q-1 85 -55 137.5t-149 52.5t-149 -52.5t-55 -137.5h-173z" />
    <glyph glyph-name="Idblgrave" unicode="&#x208;" horiz-adv-x="585" 
d="M405 0h-224v1443h224v-1443zM203 1582h-218l-312 306h241zM626 1582h-219l-312 306h242z" />
    <glyph glyph-name="idblgrave" unicode="&#x209;" horiz-adv-x="544" 
d="M164 0v1089h215v-1089h-215zM190 1271h-200l-266 344h228zM603 1271h-200l-266 344h228z" />
    <glyph glyph-name="Iinvertedbreve" unicode="&#x20a;" horiz-adv-x="585" 
d="M405 0h-224v1443h224v-1443zM-84 1577q0 142 101.5 228t275.5 86t275.5 -86t101.5 -228h-173q-1 78 -56 123.5t-148 45.5t-148 -45.5t-56 -123.5h-173z" />
    <glyph glyph-name="iinvertedbreve" unicode="&#x20b;" horiz-adv-x="544" 
d="M164 0v1089h215v-1089h-215zM-105 1238q0 150 102 244t275 94t275 -94t102 -244h-173q-1 85 -55 137.5t-149 52.5t-149 -52.5t-55 -137.5h-173z" />
    <glyph glyph-name="Odblgrave" unicode="&#x20c;" horiz-adv-x="1590" 
d="M706 1582h-218l-312 306h241zM1129 1582h-219l-312 306h242zM796 1478q312 0 492 -203.5t180 -552.5t-180 -553t-492 -204q-313 0 -493.5 203.5t-180.5 553.5q0 349 181.5 552.5t492.5 203.5zM796 1269q-204 0 -324.5 -148t-120.5 -399t119 -399.5t326 -148.5
q205 0 324 148.5t119 399.5q0 252 -119 399.5t-324 147.5z" />
    <glyph glyph-name="odblgrave" unicode="&#x20d;" horiz-adv-x="1231" 
d="M616 170q139 0 215.5 98.5t76.5 276.5q0 177 -76.5 275.5t-215.5 98.5q-140 0 -216 -98t-76 -276q0 -179 76 -277t216 -98zM616 -21q-240 0 -377 151t-137 415q0 263 137.5 414t376.5 151q238 0 375.5 -151t137.5 -414q0 -264 -137 -415t-376 -151zM534 1271h-200
l-266 344h228zM947 1271h-200l-266 344h228z" />
    <glyph glyph-name="Oinvertedbreve" unicode="&#x20e;" horiz-adv-x="1590" 
d="M419 1577q0 142 101.5 228t275.5 86t275.5 -86t101.5 -228h-173q-1 78 -56 123.5t-148 45.5t-148 -45.5t-56 -123.5h-173zM796 1478q312 0 492 -203.5t180 -552.5t-180 -553t-492 -204q-313 0 -493.5 203.5t-180.5 553.5q0 349 181.5 552.5t492.5 203.5zM796 1269
q-204 0 -324.5 -148t-120.5 -399t119 -399.5t326 -148.5q205 0 324 148.5t119 399.5q0 252 -119 399.5t-324 147.5z" />
    <glyph glyph-name="oinvertedbreve" unicode="&#x20f;" horiz-adv-x="1231" 
d="M616 170q139 0 215.5 98.5t76.5 276.5q0 177 -76.5 275.5t-215.5 98.5q-140 0 -216 -98t-76 -276q0 -179 76 -277t216 -98zM616 -21q-240 0 -377 151t-137 415q0 263 137.5 414t376.5 151q238 0 375.5 -151t137.5 -414q0 -264 -137 -415t-376 -151zM239 1238
q0 150 102 244t275 94t275 -94t102 -244h-173q-1 85 -55 137.5t-149 52.5t-149 -52.5t-55 -137.5h-173z" />
    <glyph glyph-name="Rdblgrave" unicode="&#x210;" horiz-adv-x="1368" 
d="M534 1582h-218l-312 306h241zM957 1582h-219l-312 306h242zM405 1246v-505h322q130 0 201.5 66t71.5 187q0 118 -74.5 185t-204.5 67h-316zM405 550v-550h-224v1443h571q218 0 348 -120.5t130 -323.5q0 -146 -74.5 -256.5t-205.5 -155.5l324 -587h-259l-294 550h-316z
" />
    <glyph glyph-name="rdblgrave" unicode="&#x211;" horiz-adv-x="807" 
d="M156 0v1089h207v-167h16q23 81 105 133t188 52q60 0 95 -9v-212q-37 13 -119 13q-122 0 -199.5 -71t-77.5 -185v-643h-215zM321 1271h-200l-266 344h228zM734 1271h-200l-266 344h228z" />
    <glyph glyph-name="Rinvertedbreve" unicode="&#x212;" horiz-adv-x="1368" 
d="M405 1246v-505h322q130 0 201.5 66t71.5 187q0 118 -74.5 185t-204.5 67h-316zM405 550v-550h-224v1443h571q218 0 348 -120.5t130 -323.5q0 -146 -74.5 -256.5t-205.5 -155.5l324 -587h-259l-294 550h-316zM247 1577q0 142 101.5 228t275.5 86t275.5 -86t101.5 -228
h-173q-1 78 -56 123.5t-148 45.5t-148 -45.5t-56 -123.5h-173z" />
    <glyph glyph-name="rinvertedbreve" unicode="&#x213;" horiz-adv-x="807" 
d="M156 0v1089h207v-167h16q23 81 105 133t188 52q60 0 95 -9v-212q-37 13 -119 13q-122 0 -199.5 -71t-77.5 -185v-643h-215zM26 1238q0 150 102 244t275 94t275 -94t102 -244h-173q-1 85 -55 137.5t-149 52.5t-149 -52.5t-55 -137.5h-173z" />
    <glyph glyph-name="Udblgrave" unicode="&#x214;" horiz-adv-x="1539" 
d="M679 1582h-218l-312 306h241zM1102 1582h-219l-312 306h242zM409 1443v-926q0 -154 95.5 -248t264.5 -94q170 0 265.5 94t95.5 248v926h224v-946q0 -238 -158.5 -385t-426.5 -147t-426 147t-158 385v946h224z" />
    <glyph glyph-name="udblgrave" unicode="&#x215;" horiz-adv-x="1257" 
d="M1095 1089v-1089h-206v173h-17q-40 -93 -129 -143.5t-212 -50.5q-182 0 -283.5 106t-101.5 299v705h215v-651q0 -260 240 -260q130 0 205 73t75 201v637h214zM544 1271h-200l-266 344h228zM957 1271h-200l-266 344h228z" />
    <glyph glyph-name="Uinvertedbreve" unicode="&#x216;" horiz-adv-x="1539" 
d="M409 1443v-926q0 -154 95.5 -248t264.5 -94q170 0 265.5 94t95.5 248v926h224v-946q0 -238 -158.5 -385t-426.5 -147t-426 147t-158 385v946h224zM392 1577q0 142 101.5 228t275.5 86t275.5 -86t101.5 -228h-173q-1 78 -56 123.5t-148 45.5t-148 -45.5t-56 -123.5h-173z
" />
    <glyph glyph-name="uinvertedbreve" unicode="&#x217;" horiz-adv-x="1257" 
d="M1095 1089v-1089h-206v173h-17q-40 -93 -129 -143.5t-212 -50.5q-182 0 -283.5 106t-101.5 299v705h215v-651q0 -260 240 -260q130 0 205 73t75 201v637h214zM249 1238q0 150 102 244t275 94t275 -94t102 -244h-173q-1 85 -55 137.5t-149 52.5t-149 -52.5t-55 -137.5
h-173z" />
    <glyph glyph-name="Scommaaccent" unicode="&#x218;" horiz-adv-x="1333" 
d="M113 388h222q14 -103 107.5 -163.5t238.5 -60.5q135 0 223.5 62.5t88.5 158.5q0 82 -65.5 134.5t-209.5 86.5l-186 45q-196 46 -288 143t-92 256q0 193 144.5 310.5t380.5 117.5q220 0 365 -116t155 -298h-218q-16 100 -97.5 158t-207.5 58q-133 0 -214 -59t-81 -156
q0 -77 61.5 -125t202.5 -81l159 -39q222 -52 320 -147.5t98 -258.5q0 -207 -150 -328t-406 -121q-240 0 -389.5 115t-161.5 308zM664 -514h-200l113 368h222z" />
    <glyph glyph-name="scommaaccent" unicode="&#x219;" horiz-adv-x="1104" 
d="M131 781q0 144 119 236.5t304 92.5q184 0 297 -81t129 -225h-206q-15 61 -72.5 96t-147.5 35q-91 0 -151 -39.5t-60 -102.5q0 -49 42 -81t131 -52l181 -42q157 -36 230.5 -107t73.5 -190q0 -152 -127 -247t-324 -95q-194 0 -313.5 82.5t-133.5 227.5h215q21 -64 81 -100
t156 -36q101 0 165 41t64 106q0 95 -160 133l-190 44q-156 37 -229.5 110t-73.5 194zM550 -514h-200l113 368h222z" />
    <glyph glyph-name="Tcommaaccent" unicode="&#x21a;" horiz-adv-x="1317" 
d="M658 -514h-200l113 368h222zM771 0h-224v1239h-454v204h1131v-204h-453v-1239z" />
    <glyph glyph-name="tcommaaccent" unicode="&#x21b;" horiz-adv-x="780" 
d="M440 -514h-200l113 368h222zM232 1353h215v-269h244v-181h-244v-560q0 -85 37 -124.5t117 -39.5q30 0 80 5v-179q-62 -11 -115 -11q-179 0 -256.5 68t-77.5 226v615h-179v181h179v269z" />
    <glyph glyph-name="Hcaron" unicode="&#x21e;" horiz-adv-x="1550" 
d="M1369 0h-223v633h-741v-633h-224v1443h224v-606h741v606h223v-1443zM873 1582h-196l-293 306h220l162 -175h18l162 175h220z" />
    <glyph glyph-name="hcaron" unicode="&#x21f;" horiz-adv-x="1271" 
d="M166 0v1514h213v-600h17q40 92 130 143.5t213 51.5q184 0 284.5 -106t100.5 -300v-703h-215v650q0 262 -243 262q-131 0 -208 -75.5t-77 -200.5v-636h-215zM371 1653h-196l-293 306h220l162 -175h18l162 175h220z" />
    <glyph glyph-name="Adotaccent" unicode="&#x226;" horiz-adv-x="1423" 
d="M1115 0l-132 383h-550l-133 -383h-230l521 1443h241l521 -1443h-238zM700 1181l-210 -610h436l-209 610h-17zM712 1577q-57 0 -95.5 39.5t-38.5 97.5t38.5 97.5t95.5 39.5t95.5 -39.5t38.5 -97.5t-38.5 -97.5t-95.5 -39.5z" />
    <glyph glyph-name="adotaccent" unicode="&#x227;" horiz-adv-x="1158" 
d="M512 163q121 0 201.5 68t80.5 170v91l-266 -17q-112 -7 -165 -46t-53 -111t56 -113.5t146 -41.5zM457 -18q-160 0 -261.5 89.5t-101.5 236.5q0 146 105 229.5t300 95.5l295 17v94q0 87 -57 133.5t-166 46.5q-90 0 -149.5 -31.5t-77.5 -89.5h-208q16 140 137.5 223.5
t307.5 83.5q204 0 315.5 -96.5t111.5 -269.5v-744h-207v153h-17q-49 -82 -134.5 -126.5t-192.5 -44.5zM581 1283q-59 0 -99.5 41.5t-40.5 100.5t40.5 100.5t99.5 41.5q58 0 99 -41.5t41 -100.5t-41 -100.5t-99 -41.5z" />
    <glyph glyph-name="Ecedilla" unicode="&#x228;" horiz-adv-x="1239" 
d="M1097 1239h-692v-408h655v-194h-655v-433h692v-204h-369l-51 -129q99 -2 153.5 -46t54.5 -123q0 -90 -67 -143t-185 -53q-87 0 -147 18v119q46 -14 120 -14q116 0 116 67q0 32 -33 46.5t-109 14.5h-59v98l59 145h-399v1443h916v-204z" />
    <glyph glyph-name="ecedilla" unicode="&#x229;" horiz-adv-x="1192" 
d="M321 645h550q-4 129 -76.5 205.5t-191.5 76.5t-196 -77t-86 -205zM1090 486h-769v-12q5 -144 83 -228t207 -84q197 0 259 132h207q-32 -129 -133.5 -210.5t-254.5 -99.5l-45 -113q99 -2 153.5 -46t54.5 -123q0 -90 -67 -143t-185 -53q-87 0 -147 18v119q46 -14 120 -14
q116 0 116 67q0 32 -33 46.5t-109 14.5h-59v98l52 127q-205 21 -321.5 169t-116.5 390q0 261 136 415t366 154q227 0 356.5 -146t129.5 -403v-75z" />
    <glyph glyph-name="Odieresismacron" unicode="&#x22a;" horiz-adv-x="1590" 
d="M796 1478q312 0 492 -203.5t180 -552.5t-180 -553t-492 -204q-313 0 -493.5 203.5t-180.5 553.5q0 349 181.5 552.5t492.5 203.5zM796 1269q-204 0 -324.5 -148t-120.5 -399t119 -399.5t326 -148.5q205 0 324 148.5t119 399.5q0 252 -119 399.5t-324 147.5zM446 1960v147
h700v-147h-700zM582 1577q-55 0 -92.5 38t-37.5 93q0 56 37.5 94t92.5 38t92.5 -38t37.5 -94t-37.5 -93.5t-92.5 -37.5zM1010 1577q-55 0 -92.5 37.5t-37.5 93.5t37.5 94t92.5 38t92.5 -38t37.5 -94q0 -55 -37.5 -93t-92.5 -38z" />
    <glyph glyph-name="odieresismacron" unicode="&#x22b;" horiz-adv-x="1231" 
d="M407 1238q-54 0 -90.5 37.5t-36.5 91.5q0 55 36.5 92.5t90.5 37.5t90.5 -37.5t36.5 -92.5q0 -54 -36.5 -91.5t-90.5 -37.5zM825 1238q-54 0 -90.5 37.5t-36.5 91.5q0 55 36.5 92.5t90.5 37.5t90.5 -37.5t36.5 -92.5q0 -54 -36.5 -91.5t-90.5 -37.5zM964 1645h-696v155
h696v-155zM616 170q139 0 215.5 98.5t76.5 276.5q0 177 -76.5 275.5t-215.5 98.5q-140 0 -216 -98t-76 -276q0 -179 76 -277t216 -98zM616 -21q-240 0 -377 151t-137 415q0 263 137.5 414t376.5 151q238 0 375.5 -151t137.5 -414q0 -264 -137 -415t-376 -151z" />
    <glyph glyph-name="Otildemacron" unicode="&#x22c;" horiz-adv-x="1590" 
d="M1146 1956h-700v151h700v-151zM941 1577q-46 0 -82.5 13t-59 31.5t-42 36.5t-43.5 31t-52 13q-86 0 -91 -111h-153q0 118 64.5 189t168.5 71q46 0 82.5 -13t59 -31.5t42 -36.5t43.5 -31t52 -13q38 0 63 27t29 82h152q0 -113 -65 -185.5t-168 -72.5zM796 1478
q312 0 492 -203.5t180 -552.5t-180 -553t-492 -204q-313 0 -493.5 203.5t-180.5 553.5q0 349 181.5 552.5t492.5 203.5zM796 1269q-204 0 -324.5 -148t-120.5 -399t119 -399.5t326 -148.5q205 0 324 148.5t119 399.5q0 252 -119 399.5t-324 147.5z" />
    <glyph glyph-name="otildemacron" unicode="&#x22d;" horiz-adv-x="1231" 
d="M478 1392q-49 0 -71.5 -36t-22.5 -114h-158q0 140 65 222t177 82q44 0 81.5 -15.5t63.5 -38t48 -44.5t45 -37.5t44 -15.5q49 0 71.5 35t22.5 113h158q0 -140 -65 -221t-177 -81q-44 0 -81.5 15.5t-63.5 37.5t-48 44.5t-45 38t-44 15.5zM964 1650h-696v155h696v-155z
M616 170q139 0 215.5 98.5t76.5 276.5q0 177 -76.5 275.5t-215.5 98.5q-140 0 -216 -98t-76 -276q0 -179 76 -277t216 -98zM616 -21q-240 0 -377 151t-137 415q0 263 137.5 414t376.5 151q238 0 375.5 -151t137.5 -414q0 -264 -137 -415t-376 -151z" />
    <glyph glyph-name="Odotaccent" unicode="&#x22e;" horiz-adv-x="1590" 
d="M796 1577q-57 0 -95.5 39.5t-38.5 97.5t38.5 97.5t95.5 39.5t95.5 -39.5t38.5 -97.5t-38.5 -97.5t-95.5 -39.5zM796 1478q312 0 492 -203.5t180 -552.5t-180 -553t-492 -204q-313 0 -493.5 203.5t-180.5 553.5q0 349 181.5 552.5t492.5 203.5zM796 1269
q-204 0 -324.5 -148t-120.5 -399t119 -399.5t326 -148.5q205 0 324 148.5t119 399.5q0 252 -119 399.5t-324 147.5z" />
    <glyph glyph-name="odotaccent" unicode="&#x22f;" horiz-adv-x="1231" 
d="M616 1283q-59 0 -99.5 41.5t-40.5 100.5t40.5 100.5t99.5 41.5q58 0 99 -41.5t41 -100.5t-41 -100.5t-99 -41.5zM616 170q139 0 215.5 98.5t76.5 276.5q0 177 -76.5 275.5t-215.5 98.5q-140 0 -216 -98t-76 -276q0 -179 76 -277t216 -98zM616 -21q-240 0 -377 151
t-137 415q0 263 137.5 414t376.5 151q238 0 375.5 -151t137.5 -414q0 -264 -137 -415t-376 -151z" />
    <glyph glyph-name="Odotaccentmacron" unicode="&#x230;" horiz-adv-x="1590" 
d="M796 1576q-56 0 -94 38t-38 94t38 94t94 38t94 -38t38 -94t-38 -94t-94 -38zM1146 1960h-700v147h700v-147zM796 1478q312 0 492 -203.5t180 -552.5t-180 -553t-492 -204q-313 0 -493.5 203.5t-180.5 553.5q0 349 181.5 552.5t492.5 203.5zM796 1269q-204 0 -324.5 -148
t-120.5 -399t119 -399.5t326 -148.5q205 0 324 148.5t119 399.5q0 252 -119 399.5t-324 147.5z" />
    <glyph glyph-name="odotaccentmacron" unicode="&#x231;" horiz-adv-x="1231" 
d="M616 170q139 0 215.5 98.5t76.5 276.5q0 177 -76.5 275.5t-215.5 98.5q-140 0 -216 -98t-76 -276q0 -179 76 -277t216 -98zM616 -21q-240 0 -377 151t-137 415q0 263 137.5 414t376.5 151q238 0 375.5 -151t137.5 -414q0 -264 -137 -415t-376 -151zM616 1238
q-56 0 -93 38t-37 94q0 57 37 95t93 38t93 -38t37 -95q0 -56 -37 -94t-93 -38zM964 1645h-696v155h696v-155z" />
    <glyph glyph-name="Ymacron" unicode="&#x232;" horiz-adv-x="1383" 
d="M803 0h-224v582l-508 861h249l363 -625h17l363 625h249l-509 -861v-582zM1041 1625h-700v156h700v-156z" />
    <glyph glyph-name="ymacron" unicode="&#x233;" horiz-adv-x="1152" 
d="M264 -396q-64 0 -89 5v185q23 -4 70 -4q77 0 123 35.5t74 117.5l16 53l-394 1093h234l273 -865h17l272 865h228l-406 -1134q-70 -199 -160.5 -275t-257.5 -76zM922 1299h-696v155h696v-155z" />
    <glyph glyph-name="dotlessj" unicode="&#x237;" horiz-adv-x="534" 
d="M374 1089v-1149q0 -167 -86.5 -247t-264.5 -80q-42 0 -48 1v180h30q85 0 120 34t35 114v1147h214z" />
    <glyph glyph-name="circumflex" unicode="&#x2c6;" horiz-adv-x="1096" 
d="M665 1584l279 -346h-221l-167 219h-16l-167 -219h-222l280 346h234z" />
    <glyph glyph-name="caron" unicode="&#x2c7;" horiz-adv-x="1096" 
d="M665 1238h-234l-280 346h222l167 -219h16l167 219h221z" />
    <glyph glyph-name="breve" unicode="&#x2d8;" horiz-adv-x="1048" 
d="M147 1576h173q1 -85 55 -137.5t149 -52.5t149 52.5t55 137.5h173q0 -150 -102 -244t-275 -94t-275 94t-102 244z" />
    <glyph glyph-name="dotaccent" unicode="&#x2d9;" horiz-adv-x="1048" 
d="M524 1283q-59 0 -99.5 41.5t-40.5 100.5t40.5 100.5t99.5 41.5q58 0 99 -41.5t41 -100.5t-41 -100.5t-99 -41.5z" />
    <glyph glyph-name="ring" unicode="&#x2da;" horiz-adv-x="1096" 
d="M548 1238q-99 0 -168 67.5t-69 166.5t68.5 166t168.5 67t168.5 -67t68.5 -166t-69 -166.5t-168 -67.5zM548 1357q50 0 83 32.5t33 82.5q0 49 -33 81.5t-83 32.5t-83 -32.5t-33 -81.5q0 -50 33 -82.5t83 -32.5z" />
    <glyph glyph-name="ogonek" unicode="&#x2db;" horiz-adv-x="1048" 
d="M712 -285v-140q-46 -22 -137 -22q-103 0 -166 56t-63 147q0 166 183 303l134 -19q-65 -50 -104 -112.5t-39 -116.5q0 -49 29.5 -77t79.5 -28q45 0 83 9z" />
    <glyph glyph-name="tilde" unicode="&#x2dc;" horiz-adv-x="1095" 
d="M411 1416q-49 0 -71.5 -36t-22.5 -114h-158q0 140 65 222t177 82q44 0 81.5 -15.5t63.5 -38t48 -44.5t45 -37.5t44 -15.5q49 0 71.5 35t22.5 113h158q0 -140 -65 -221t-177 -81q-44 0 -81.5 15.5t-63.5 37.5t-48 44.5t-45 38t-44 15.5z" />
    <glyph glyph-name="hungarumlaut" unicode="&#x2dd;" horiz-adv-x="1048" 
d="M491 1271l238 344h228l-267 -344h-199zM78 1271l238 344h228l-267 -344h-199z" />
    <glyph glyph-name="gravecmb" unicode="&#x300;" 
d="M135 1271h-221l-282 344h252z" />
    <glyph glyph-name="acutecmb" unicode="&#x301;" 
d="M-129 1271l251 344h252l-281 -344h-222z" />
    <glyph glyph-name="circumflexcmb" unicode="&#x302;" 
d="M117 1584l279 -346h-221l-167 219h-16l-167 -219h-222l280 346h234z" />
    <glyph glyph-name="tildecmb" unicode="&#x303;" 
d="M-134 1392q-49 0 -71.5 -36t-22.5 -114h-158q0 140 65 222t177 82q44 0 81.5 -15.5t63.5 -38t48 -44.5t45 -37.5t44 -15.5q49 0 71.5 35t22.5 113h158q0 -140 -65 -221t-177 -81q-44 0 -81.5 15.5t-63.5 37.5t-48 44.5t-45 38t-44 15.5z" />
    <glyph glyph-name="macroncmb" unicode="&#x304;" 
d="M348 1299h-696v155h696v-155z" />
    <glyph glyph-name="brevecmb" unicode="&#x306;" 
d="M-379 1576h173q1 -85 55 -137.5t149 -52.5t149 52.5t55 137.5h173q0 -150 -102 -244t-275 -94t-275 94t-102 244z" />
    <glyph glyph-name="dotaccentcmb" unicode="&#x307;" 
d="M0 1283q-59 0 -99.5 41.5t-40.5 100.5t40.5 100.5t99.5 41.5q58 0 99 -41.5t41 -100.5t-41 -100.5t-99 -41.5z" />
    <glyph glyph-name="dieresiscmb" unicode="&#x308;" 
d="M-213 1238q-57 0 -95.5 38.5t-38.5 95.5t38.5 96t95.5 39q56 0 94.5 -39t38.5 -96t-38.5 -95.5t-94.5 -38.5zM214 1238q-56 0 -95 38.5t-39 95.5t39 96t95 39t94.5 -39t38.5 -96t-38.5 -95.5t-94.5 -38.5z" />
    <glyph glyph-name="hookabovecmb" unicode="&#x309;" 
d="M-156 1471v137q58 23 142 23q108 0 172 -53t64 -143q0 -75 -52.5 -138t-138.5 -94l-82 106q49 16 80 45.5t31 61.5q0 33 -29 54.5t-75 21.5q-70 0 -112 -21z" />
    <glyph glyph-name="ringcmb" unicode="&#x30a;" 
d="M0 1238q-99 0 -168 67.5t-69 166.5t68.5 166t168.5 67t168.5 -67t68.5 -166t-69 -166.5t-168 -67.5zM0 1357q50 0 83 32.5t33 82.5q0 49 -33 81.5t-83 32.5t-83 -32.5t-33 -81.5q0 -50 33 -82.5t83 -32.5z" />
    <glyph glyph-name="hungarumlautcmb" unicode="&#x30b;" 
d="M69 1271l238 344h228l-267 -344h-199zM-344 1271l238 344h228l-267 -344h-199z" />
    <glyph glyph-name="caroncmb" unicode="&#x30c;" 
d="M117 1238h-234l-280 346h222l167 -219h16l167 219h221z" />
    <glyph glyph-name="dblgravecmb" unicode="&#x30f;" 
d="M-82 1271h-200l-266 344h228zM331 1271h-200l-266 344h228z" />
    <glyph glyph-name="invertedbrevecmb" unicode="&#x311;" 
d="M-377 1238q0 150 102 244t275 94t275 -94t102 -244h-173q-1 85 -55 137.5t-149 52.5t-149 -52.5t-55 -137.5h-173z" />
    <glyph glyph-name="horncmb" unicode="&#x31b;" 
d="M0 945v169q36 -33 92 -33q57 2 82 37.5t25 114.5v157h185v-209q0 -123 -68.5 -198t-180.5 -75q-84 0 -135 37z" />
    <glyph glyph-name="dotbelowcmb" unicode="&#x323;" 
d="M0 -409q-58 0 -96 37t-38 92t38 92t96 37t96 -37t38 -92t-38 -92t-96 -37z" />
    <glyph glyph-name="dieresisbelowcmb" unicode="&#x324;" 
d="M-213 -432q-58 0 -96 37t-38 92t38 92t96 37q57 0 95 -37t38 -92t-38 -92t-95 -37zM213 -432q-57 0 -95 37t-38 92t38 92t95 37q58 0 96 -37t38 -92t-38 -92t-96 -37z" />
    <glyph glyph-name="ringbelowcmb" unicode="&#x325;" 
d="M0 -572q-99 0 -168 67.5t-69 166.5t68.5 166t168.5 67t168.5 -67t68.5 -166t-69 -166.5t-168 -67.5zM0 -453q50 0 83 32.5t33 82.5q0 49 -33 81.5t-83 32.5t-83 -32.5t-33 -81.5q0 -50 33 -82.5t83 -32.5z" />
    <glyph glyph-name="commabelowcmb" unicode="&#x326;" 
d="M0 -514h-200l113 368h222z" />
    <glyph glyph-name="cedillacmb" unicode="&#x327;" 
d="M-118 -243v98l60 147h148l-52 -131q99 -2 153.5 -46t54.5 -123q0 -90 -67 -143t-185 -53q-87 0 -147 18v119q46 -14 120 -14q116 0 116 67q0 32 -33 46.5t-109 14.5h-59z" />
    <glyph glyph-name="ogonekcmb" unicode="&#x328;" 
d="M134 -286v-140q-46 -22 -137 -22q-103 0 -166 56t-63 147q0 166 183 303l134 -19q-65 -50 -104 -112.5t-39 -116.5q0 -49 29.5 -77t79.5 -28q45 0 83 9z" />
    <glyph glyph-name="circumflexbelowcmb" unicode="&#x32d;" 
d="M106 -146l295 -286h-232l-161 164h-16l-161 -164h-232l295 286h212z" />
    <glyph glyph-name="brevebelowcmb" unicode="&#x32e;" 
d="M-377 -125h174q0 -75 54.5 -120t148.5 -45t148.5 45t54.5 120h174q0 -137 -101.5 -222t-275.5 -85t-275.5 85t-101.5 222z" />
    <glyph glyph-name="tildebelowcmb" unicode="&#x330;" 
d="M153 -425q-45 0 -82.5 15.5t-63 38t-48 45t-48.5 38t-54 15.5q-43 0 -66 -31.5t-25 -104.5h-153q0 136 63.5 211t170.5 75q47 0 87 -15.5t66.5 -38t49.5 -45t46.5 -38t46.5 -15.5q86 0 92 134h152q0 -132 -64 -208t-170 -76z" />
    <glyph glyph-name="macronbelowcmb" unicode="&#x331;" 
d="M350 -372h-700v156h700v-156z" />
    <glyph glyph-name="greekquestionmark" unicode="&#x37e;" horiz-adv-x="645" 
d="M300 -376h-180l90 598h233zM323 738q-63 0 -105 43t-42 106q0 64 42 106.5t105 42.5q64 0 105.5 -42.5t41.5 -106.5q0 -63 -42 -106t-105 -43z" />
    <glyph glyph-name="tonosgreek" unicode="&#x384;" horiz-adv-x="920" 
d="M278 1265l86 355h240l-139 -355h-187z" />
    <glyph glyph-name="dieresistonosgreek" unicode="&#x385;" horiz-adv-x="1384" 
d="M344 1265q-55 0 -92.5 37.5t-37.5 92.5t37.5 92t92.5 37t92.5 -37t37.5 -92t-37.5 -92.5t-92.5 -37.5zM1040 1265q-55 0 -92 37.5t-37 92.5t37 92t92 37t92.5 -37t37.5 -92t-37 -92.5t-93 -37.5zM576 1265l33 355h224l-84 -355h-173z" />
    <glyph glyph-name="Alphatonosgreek" unicode="&#x386;" horiz-adv-x="1446" 
d="M1137 0l-132 383h-550l-133 -383h-230l521 1443h241l521 -1443h-238zM722 1181l-210 -610h436l-209 610h-17zM83 1087l86 356h240l-139 -356h-187z" />
    <glyph glyph-name="anoteleia" unicode="&#x387;" horiz-adv-x="663" 
d="M333 777q-70 0 -113.5 44t-43.5 114q0 69 43.5 113.5t113.5 44.5q69 0 112 -44.5t43 -113.5q0 -70 -43 -114t-112 -44z" />
    <glyph glyph-name="Epsilontonosgreek" unicode="&#x388;" horiz-adv-x="1659" 
d="M93 1087l86 356h240l-139 -356h-187zM1516 204v-204h-916v1443h916v-204h-692v-408h655v-194h-655v-433h692z" />
    <glyph glyph-name="Etatonosgreek" unicode="&#x389;" horiz-adv-x="1970" 
d="M93 1087l86 356h240l-139 -356h-187zM1788 0h-223v633h-741v-633h-224v1443h224v-606h741v606h223v-1443z" />
    <glyph glyph-name="Iotatonosgreek" unicode="&#x38a;" horiz-adv-x="1005" 
d="M824 0h-224v1443h224v-1443zM93 1087l86 356h240l-139 -356h-187z" />
    <glyph glyph-name="Omicrontonosgreek" unicode="&#x38c;" horiz-adv-x="1881" 
d="M1087 1478q312 0 492 -203.5t180 -552.5t-180 -553t-492 -204q-313 0 -493.5 203.5t-180.5 553.5q0 349 181.5 552.5t492.5 203.5zM1087 1269q-204 0 -324.5 -148t-120.5 -399t119 -399.5t326 -148.5q205 0 324 148.5t119 399.5q0 252 -119 399.5t-324 147.5zM93 1087
l86 356h240l-139 -356h-187z" />
    <glyph glyph-name="Upsilontonosgreek" unicode="&#x38e;" horiz-adv-x="1802" 
d="M93 1087l86 356h240l-139 -356h-187zM1222 0h-224v582l-508 861h249l363 -625h17l363 625h249l-509 -861v-582z" />
    <glyph glyph-name="Omegatonosgreek" unicode="&#x38f;" horiz-adv-x="1890" 
d="M412 0v199h301v17q-142 87 -221.5 242.5t-79.5 344.5q0 301 186.5 488t487.5 187t487.5 -187t186.5 -488q0 -189 -79.5 -344.5t-220.5 -242.5v-17h300v-199h-544v252q162 96 239 227.5t77 310.5q0 222 -119.5 350.5t-326.5 128.5t-326.5 -128.5t-119.5 -350.5
q0 -179 77.5 -310.5t239.5 -227.5v-252h-545zM93 1087l86 356h240l-139 -356h-187z" />
    <glyph glyph-name="iotadieresistonosgreek" unicode="&#x390;" horiz-adv-x="664" 
d="M475 -6q-179 0 -256 68t-77 227v800h215v-746q0 -86 37 -125t118 -39q44 0 94 5v-179q-53 -11 -131 -11zM-68 1265q-55 0 -92.5 37.5t-37.5 92.5t37.5 92t92.5 37t92.5 -37t37.5 -92t-37.5 -92.5t-92.5 -37.5zM628 1265q-55 0 -92 37.5t-37 92.5t37 92t92 37t92.5 -37
t37.5 -92t-37 -92.5t-93 -37.5zM164 1265l33 355h224l-84 -355h-173z" />
    <glyph glyph-name="Alphagreek" unicode="&#x391;" horiz-adv-x="1423" 
d="M1115 0l-132 383h-550l-133 -383h-230l521 1443h241l521 -1443h-238zM700 1181l-210 -610h436l-209 610h-17z" />
    <glyph glyph-name="Betagreek" unicode="&#x392;" horiz-adv-x="1373" 
d="M774 0h-593v1443h580q203 0 318.5 -96.5t115.5 -263.5q0 -113 -73 -202.5t-180 -107.5v-17q146 -15 235.5 -110.5t89.5 -236.5q0 -191 -131 -300t-362 -109zM405 1253v-421h266q148 0 224.5 53.5t76.5 156.5q0 100 -69.5 155.5t-193.5 55.5h-304zM405 190h324
q151 0 230 60t79 175q0 113 -82 171.5t-240 58.5h-311v-465z" />
    <glyph glyph-name="Gammagreek" unicode="&#x393;" horiz-adv-x="1162" 
d="M181 0v1443h881v-204h-657v-1239h-224z" />
    <glyph glyph-name="Deltagreek" unicode="&#x394;" horiz-adv-x="1434" 
d="M107 0v149l489 1294h242l490 -1294v-149h-1221zM351 204h724v17l-353 970h-16l-355 -970v-17z" />
    <glyph glyph-name="Epsilongreek" unicode="&#x395;" horiz-adv-x="1239" 
d="M1097 204v-204h-916v1443h916v-204h-692v-408h655v-194h-655v-433h692z" />
    <glyph glyph-name="Zetagreek" unicode="&#x396;" horiz-adv-x="1365" 
d="M141 0v161l784 1061v17h-760v204h1041v-161l-780 -1061v-17h799v-204h-1084z" />
    <glyph glyph-name="Etagreek" unicode="&#x397;" horiz-adv-x="1550" 
d="M1369 0h-223v633h-741v-633h-224v1443h224v-606h741v606h223v-1443z" />
    <glyph glyph-name="Thetagreek" unicode="&#x398;" horiz-adv-x="1632" 
d="M530 617v202h571v-202h-571zM817 172q213 0 336 144.5t123 405.5t-123 405t-336 144q-212 0 -336.5 -144t-124.5 -405t123 -405.5t338 -144.5zM817 -35q-323 0 -507.5 199.5t-184.5 557.5q0 359 185.5 557.5t506.5 198.5q322 0 505.5 -198.5t183.5 -557.5
q0 -358 -184 -557.5t-505 -199.5z" />
    <glyph glyph-name="Iotagreek" unicode="&#x399;" horiz-adv-x="585" 
d="M405 0h-224v1443h224v-1443z" />
    <glyph glyph-name="Kappagreek" unicode="&#x39a;" horiz-adv-x="1386" 
d="M405 0h-224v1443h224v-676h16l597 676h265l-558 -627l606 -816h-280l-484 655l-162 -181v-474z" />
    <glyph glyph-name="Lambdagreek" unicode="&#x39b;" horiz-adv-x="1406" 
d="M81 0l501 1443h242l501 -1443h-239l-378 1171h-17l-379 -1171h-231z" />
    <glyph glyph-name="Mugreek" unicode="&#x39c;" horiz-adv-x="1822" 
d="M389 0h-208v1443h262l459 -1096h17l460 1096h262v-1443h-208v1042h-14l-423 -1000h-170l-423 1000h-14v-1042z" />
    <glyph glyph-name="Nugreek" unicode="&#x39d;" horiz-adv-x="1539" 
d="M399 0h-218v1443h202l741 -1025h16v1025h218v-1443h-202l-741 1025h-16v-1025z" />
    <glyph glyph-name="Xigreek" unicode="&#x39e;" horiz-adv-x="1354" 
d="M142 0v210h1069v-210h-1069zM229 631v201h895v-201h-895zM142 1233v210h1069v-210h-1069z" />
    <glyph glyph-name="Omicrongreek" unicode="&#x39f;" horiz-adv-x="1597" 
d="M800 1478q312 0 492 -203.5t180 -552.5t-180 -553t-492 -204q-313 0 -493.5 203.5t-180.5 553.5q0 349 181.5 552.5t492.5 203.5zM800 1269q-204 0 -324.5 -148t-120.5 -399t119 -399.5t326 -148.5q205 0 324 148.5t119 399.5q0 252 -119 399.5t-324 147.5z" />
    <glyph glyph-name="Pigreek" unicode="&#x3a0;" horiz-adv-x="1530" 
d="M181 0v1443h1168v-1443h-223v1239h-721v-1239h-224z" />
    <glyph glyph-name="Rhogreek" unicode="&#x3a1;" horiz-adv-x="1329" 
d="M181 1443h565q212 0 344 -133.5t132 -347.5q0 -211 -135 -343.5t-348 -132.5h-334v-486h-224v1443zM405 1245v-562h282q145 0 225.5 72.5t80.5 206.5q0 137 -79 210t-227 73h-282z" />
    <glyph glyph-name="Sigmagreek" unicode="&#x3a3;" horiz-adv-x="1339" 
d="M149 0v158l406 566l-388 535v184h1012v-204h-725v-17l336 -469v-34l-358 -498v-17h774v-204h-1057z" />
    <glyph glyph-name="Taugreek" unicode="&#x3a4;" horiz-adv-x="1317" 
d="M771 0h-224v1239h-454v204h1131v-204h-453v-1239z" />
    <glyph glyph-name="Upsilongreek" unicode="&#x3a5;" horiz-adv-x="1383" 
d="M803 0h-224v582l-508 861h249l363 -625h17l363 625h249l-509 -861v-582z" />
    <glyph glyph-name="Phigreek" unicode="&#x3a6;" horiz-adv-x="1776" 
d="M781 -81v147q-300 14 -483 190t-183 460t183 460t483 190v149h215v-149q197 -9 347.5 -90.5t234 -226t83.5 -333.5t-83.5 -333.5t-234 -226t-347.5 -90.5v-147h-215zM781 264v904q-203 -11 -322 -128.5t-119 -323.5t119 -323t322 -129zM996 264q203 12 322 129t119 323
t-119.5 323.5t-321.5 128.5v-904z" />
    <glyph glyph-name="Chigreek" unicode="&#x3a7;" horiz-adv-x="1427" 
d="M89 0l482 726l-477 717h267l351 -544h17l357 544h252l-490 -723l481 -720h-262l-354 534h-17l-359 -534h-248z" />
    <glyph glyph-name="Psigreek" unicode="&#x3a8;" horiz-adv-x="1713" 
d="M747 0v325q-266 2 -426 159t-160 416v543h219v-541q0 -175 94.5 -270.5t272.5 -102.5v914h219v-914q178 7 272.5 102.5t94.5 270.5v541h219v-543q0 -260 -160 -417t-426 -158v-325h-219z" />
    <glyph glyph-name="Omegagreek" unicode="&#x3a9;" horiz-adv-x="1607" 
d="M129 0v199h301v17q-142 87 -221.5 242.5t-79.5 344.5q0 301 186.5 488t487.5 187t487.5 -187t186.5 -488q0 -189 -79.5 -344.5t-220.5 -242.5v-17h300v-199h-544v252q162 96 239 227.5t77 310.5q0 222 -119.5 350.5t-326.5 128.5t-326.5 -128.5t-119.5 -350.5
q0 -179 77.5 -310.5t239.5 -227.5v-252h-545z" />
    <glyph glyph-name="Iotadieresisgreek" unicode="&#x3aa;" horiz-adv-x="585" 
d="M405 0h-224v1443h224v-1443zM80 1577q-57 0 -95.5 38.5t-38.5 95.5t38.5 96t95.5 39q56 0 94.5 -39t38.5 -96t-38.5 -95.5t-94.5 -38.5zM507 1577q-56 0 -95 38.5t-39 95.5t39 96t95 39t94.5 -39t38.5 -96t-38.5 -95.5t-94.5 -38.5z" />
    <glyph glyph-name="Upsilondieresisgreek" unicode="&#x3ab;" horiz-adv-x="1383" 
d="M803 0h-224v582l-508 861h249l363 -625h17l363 625h249l-509 -861v-582zM478 1577q-57 0 -95.5 38.5t-38.5 95.5t38.5 96t95.5 39q56 0 94.5 -39t38.5 -96t-38.5 -95.5t-94.5 -38.5zM905 1577q-56 0 -95 38.5t-39 95.5t39 96t95 39t94.5 -39t38.5 -96t-38.5 -95.5
t-94.5 -38.5z" />
    <glyph glyph-name="alphatonosgreek" unicode="&#x3ac;" horiz-adv-x="1315" 
d="M533 -18q-210 0 -332.5 151.5t-122.5 411.5q0 259 122.5 410.5t330.5 151.5q116 0 198.5 -56t122.5 -162h17v200h210v-788q0 -72 22.5 -98.5t83.5 -26.5q24 0 51 5v-178q-44 -13 -111 -13q-220 0 -248 183l-4 17h-16q-41 -100 -125 -154t-199 -54zM569 175
q135 0 215.5 100.5t80.5 268.5q0 166 -76.5 268t-200.5 102q-135 0 -211.5 -98.5t-76.5 -270.5q0 -170 72.5 -270t196.5 -100zM469 1265l86 355h240l-139 -355h-187z" />
    <glyph glyph-name="epsilontonosgreek" unicode="&#x3ad;" horiz-adv-x="1133" 
d="M493 1265l86 355h240l-139 -355h-187zM576 -23q-216 0 -344 85t-128 230q0 183 188 246v17q-167 67 -167 234q0 145 124 232t330 87q210 0 332.5 -86t146.5 -252h-215q-39 150 -262 150q-114 0 -180.5 -39t-66.5 -107q0 -65 61 -100.5t172 -35.5h150v-181h-150
q-116 0 -179 -37.5t-63 -106.5q0 -70 66.5 -108.5t186.5 -38.5q113 0 187.5 45.5t96.5 129.5h219q-25 -161 -166.5 -262.5t-338.5 -101.5z" />
    <glyph glyph-name="etatonosgreek" unicode="&#x3ae;" horiz-adv-x="1324" 
d="M244 0v788q0 70 -23.5 97.5t-84.5 27.5q-30 0 -51 -5v178q46 13 110 13q212 0 249 -173l3 -18h17q39 94 129.5 148t206.5 54q184 0 283 -105.5t99 -301.5v-1056h-215v1003q0 133 -59.5 198t-181.5 65q-121 0 -194 -76t-73 -201v-636h-215zM493 1265l86 355h240l-139 -355
h-187z" />
    <glyph glyph-name="iotatonosgreek" unicode="&#x3af;" horiz-adv-x="664" 
d="M475 -6q-179 0 -256 68t-77 227v800h215v-746q0 -86 37 -125t118 -39q44 0 94 5v-179q-53 -11 -131 -11zM160 1265l86 355h240l-139 -355h-187z" />
    <glyph glyph-name="upsilondieresistonosgreek" unicode="&#x3b0;" horiz-adv-x="1189" 
d="M225 1265q-55 0 -92.5 37.5t-37.5 92.5t37.5 92t92.5 37t92.5 -37t37.5 -92t-37.5 -92.5t-92.5 -37.5zM921 1265q-55 0 -92 37.5t-37 92.5t37 92t92 37t92.5 -37t37.5 -92t-37.5 -92.5t-92.5 -37.5zM457 1265l33 355h224l-84 -355h-173zM587 -21q-217 0 -332 116.5
t-115 335.5v658h210v-637q0 -140 57.5 -207t178.5 -67q130 0 201.5 97.5t71.5 271.5q0 169 -21.5 285t-80.5 257h216q47 -95 74.5 -237t27.5 -287q0 -277 -130 -431.5t-358 -154.5z" />
    <glyph glyph-name="alphagreek" unicode="&#x3b1;" horiz-adv-x="1315" 
d="M533 -18q-210 0 -332.5 151.5t-122.5 411.5q0 259 122.5 410.5t330.5 151.5q116 0 198.5 -56t122.5 -162h17v200h210v-788q0 -72 22.5 -98.5t83.5 -26.5q24 0 51 5v-178q-44 -13 -111 -13q-220 0 -248 183l-4 17h-16q-41 -100 -125 -154t-199 -54zM569 175
q135 0 215.5 100.5t80.5 268.5q0 166 -76.5 268t-200.5 102q-135 0 -211.5 -98.5t-76.5 -270.5q0 -170 72.5 -270t196.5 -100z" />
    <glyph glyph-name="betagreek" unicode="&#x3b2;" horiz-adv-x="1283" 
d="M154 -353v1369q0 250 125.5 384.5t356.5 134.5q210 0 330 -104t120 -286q0 -101 -54.5 -183.5t-148.5 -122.5v-17q152 -38 229.5 -137t77.5 -255q0 -200 -127 -324t-330 -124q-120 0 -214 49.5t-133 133.5h-17v-518h-215zM695 175q119 0 196 74.5t77 190.5
q0 137 -87 207.5t-257 70.5h-85v184h86q122 0 188 57t66 163q0 102 -64.5 162t-173.5 60q-134 0 -203 -81t-69 -239v-502q0 -163 86.5 -255t239.5 -92z" />
    <glyph glyph-name="gammagreek" unicode="&#x3b3;" horiz-adv-x="1173" 
d="M442 -346v307l-383 1128h227l278 -888h17q135 194 203 359.5t68 328.5q0 123 -18 200h204q19 -90 19 -200q0 -208 -99.5 -430.5t-302.5 -490.5v-314h-213z" />
    <glyph glyph-name="deltagreek" unicode="&#x3b4;" horiz-adv-x="1194" 
d="M591 -21q-232 0 -370.5 140t-138.5 376q0 185 104.5 318.5t278.5 171.5v19q-105 49 -155 112.5t-50 147.5q0 124 104.5 197.5t279.5 73.5q226 0 358 -82v-182q-169 83 -350 83q-83 0 -127.5 -26.5t-44.5 -76.5q0 -43 40 -75.5t159 -88.5q224 -116 326 -253t102 -330
q0 -233 -142.5 -379t-373.5 -146zM592 159q134 0 213.5 93.5t79.5 252.5q0 156 -82.5 252.5t-215.5 96.5q-128 0 -206.5 -96t-78.5 -253q0 -158 79 -252t211 -94z" />
    <glyph glyph-name="epsilongreek" unicode="&#x3b5;" horiz-adv-x="1133" 
d="M576 -21q-216 0 -344 85t-128 230q0 183 188 246v17q-167 67 -167 234q0 145 124 232t330 87q210 0 332.5 -86t146.5 -252h-215q-39 150 -262 150q-114 0 -180.5 -39t-66.5 -107q0 -65 61 -100.5t172 -35.5h150v-181h-150q-116 0 -179 -37.5t-63 -106.5
q0 -70 66.5 -108.5t186.5 -38.5q113 0 187.5 45.5t96.5 129.5h219q-25 -161 -166.5 -262.5t-338.5 -101.5z" />
    <glyph glyph-name="zetagreek" unicode="&#x3b6;" horiz-adv-x="963" 
d="M843 -376l-168 61q72 114 72 194q0 64 -40.5 96.5t-175.5 76.5q-248 84 -346 197t-98 320q0 186 126.5 372t374.5 362v17h-416v194h757v-173q-316 -196 -469.5 -380.5t-153.5 -377.5q0 -134 65 -203t249 -130q195 -67 264 -134.5t69 -191.5q0 -144 -110 -300z" />
    <glyph glyph-name="etagreek" unicode="&#x3b7;" horiz-adv-x="1324" 
d="M244 0v788q0 70 -23.5 97.5t-84.5 27.5q-30 0 -51 -5v178q46 13 110 13q212 0 249 -173l3 -18h17q39 94 129.5 148t206.5 54q184 0 283 -105.5t99 -301.5v-1056h-215v1003q0 133 -59.5 198t-181.5 65q-121 0 -194 -76t-73 -201v-636h-215z" />
    <glyph glyph-name="thetagreek" unicode="&#x3b8;" horiz-adv-x="1253" 
d="M626 -21q-250 0 -384 199t-134 580q0 379 134.5 578t383.5 199t383.5 -198t134.5 -581q0 -379 -134 -578t-384 -199zM626 164q143 0 218 120.5t82 385.5h-599q7 -265 81.5 -385.5t217.5 -120.5zM328 859h597q-18 491 -299 491q-279 0 -298 -491z" />
    <glyph glyph-name="iotagreek" unicode="&#x3b9;" horiz-adv-x="664" 
d="M475 -6q-179 0 -256 68t-77 227v800h215v-746q0 -86 37 -125t118 -39q44 0 94 5v-179q-53 -11 -131 -11z" />
    <glyph glyph-name="kappagreek" unicode="&#x3ba;" horiz-adv-x="1228" 
d="M154 0v1089h213v-529h17l313 357q90 105 154 143.5t151 38.5q53 0 98 -13v-178q-22 5 -61 5q-55 0 -94.5 -24.5t-104.5 -98.5l-126 -148l424 -642h-236l-324 493l-211 -221v-272h-213z" />
    <glyph glyph-name="lambdagreek" unicode="&#x3bb;" horiz-adv-x="1220" 
d="M33 0l445 1027l-34 92q-31 80 -50.5 121t-46 68t-54.5 34t-76 7q-20 0 -51 -5v178q50 13 104 13q73 0 122 -16.5t92.5 -63t79 -119t78.5 -194.5l308 -855q22 -63 54.5 -87t92.5 -24q22 0 50 5v-178q-44 -13 -106 -13q-115 0 -174.5 47t-103.5 175l-190 530h-16l-300 -742
h-224z" />
    <glyph glyph-name="mugreek" unicode="&#x3bc;" horiz-adv-x="1347" 
d="M154 -353v1442h215v-650q0 -261 232 -261q130 0 205 73.5t75 199.5v638h214v-788q0 -72 22.5 -98.5t83.5 -26.5q24 0 51 5v-178q-43 -13 -107 -13q-114 0 -170 40t-74 136l-3 13h-17q-77 -200 -294 -200q-147 0 -201 107h-17v-439h-215z" />
    <glyph glyph-name="nugreek" unicode="&#x3bd;" horiz-adv-x="1173" 
d="M679 0h-248l-372 1089h227l278 -889h17q136 195 203.5 360.5t67.5 329.5q0 117 -18 199h204q19 -90 19 -197q0 -204 -93 -416.5t-285 -475.5z" />
    <glyph glyph-name="xigreek" unicode="&#x3be;" horiz-adv-x="994" 
d="M845 -375l-168 61q40 66 56 108.5t16 84.5q0 66 -42.5 99t-189.5 81q-237 79 -333 166t-96 225q0 120 71.5 202t207.5 119v16q-112 44 -164 109t-52 162q0 91 59 158t157 88v16h-212v194h771v-169l-112 -13q-248 -28 -352 -85.5t-104 -166.5q0 -93 81.5 -136t258.5 -43
h154v-189h-161q-183 0 -283.5 -57.5t-100.5 -163.5q0 -60 25.5 -96t90.5 -68t206 -79q189 -65 257.5 -132t68.5 -188q0 -76 -24.5 -144t-85.5 -159z" />
    <glyph glyph-name="omicrongreek" unicode="&#x3bf;" horiz-adv-x="1207" 
d="M603 -21q-235 0 -372 151t-137 415q0 263 138 414t371 151q234 0 372 -150.5t138 -414.5t-137.5 -415t-372.5 -151zM603 170q136 0 212 98.5t76 276.5q0 177 -76.5 275.5t-211.5 98.5q-134 0 -211 -98.5t-77 -275.5t76.5 -276t211.5 -99z" />
    <glyph glyph-name="pigreek" unicode="&#x3c0;" horiz-adv-x="1440" 
d="M278 0v895h-197v194h1244v-194h-220v-594q0 -73 24 -99t88 -26q29 0 52 5v-178q-46 -13 -110 -13q-144 0 -202.5 66.5t-58.5 221.5v617h-413v-895h-207z" />
    <glyph glyph-name="rhogreek" unicode="&#x3c1;" horiz-adv-x="1236" 
d="M125 -353v893q0 269 135.5 419.5t371.5 150.5q243 0 376.5 -149.5t133.5 -404.5q0 -268 -123 -421t-336 -153q-113 0 -198 48t-128 135h-17v-518h-215zM624 175q142 0 219.5 100t77.5 284q0 174 -76 267t-215 93t-216.5 -101t-77.5 -284q0 -162 79.5 -260.5t208.5 -98.5z
" />
    <glyph glyph-name="sigmafinalgreek" unicode="&#x3c2;" horiz-adv-x="1136" 
d="M850 -374l-168 61q72 114 72 193q0 64 -41.5 97t-176.5 77q-245 81 -343.5 199t-98.5 319q0 246 140.5 392t367.5 146q189 0 309 -99.5t143 -277.5h-210q-47 185 -245 185q-126 0 -205.5 -90t-79.5 -244q0 -134 63.5 -203t249.5 -130q196 -67 265 -134t69 -192
q0 -143 -111 -299z" />
    <glyph glyph-name="sigmagreek" unicode="&#x3c3;" horiz-adv-x="1338" 
d="M600 -21q-233 0 -369.5 149.5t-136.5 403.5t149.5 405.5t400.5 151.5h613v-194h-297v-17q67 -53 105 -145.5t38 -201.5q0 -250 -138 -401t-365 -151zM602 168q136 0 212.5 98.5t76.5 270.5q0 165 -78.5 260.5t-209.5 95.5t-209.5 -96.5t-78.5 -259.5q0 -173 77 -271
t210 -98z" />
    <glyph glyph-name="taugreek" unicode="&#x3c4;" horiz-adv-x="1114" 
d="M746 -6q-188 0 -266.5 68t-78.5 227v606h-337v194h953v-194h-401v-552q0 -87 38.5 -125.5t129.5 -38.5q57 0 104 5v-179q-59 -11 -142 -11z" />
    <glyph glyph-name="upsilongreek" unicode="&#x3c5;" horiz-adv-x="1189" 
d="M587 -21q-217 0 -332 116.5t-115 335.5v658h210v-637q0 -140 57.5 -207t178.5 -67q130 0 201.5 97.5t71.5 271.5q0 169 -21.5 285t-80.5 257h216q47 -95 74.5 -237t27.5 -287q0 -277 -130 -431.5t-358 -154.5z" />
    <glyph glyph-name="phigreek" unicode="&#x3c6;" horiz-adv-x="1552" 
d="M675 -353v332q-267 11 -425 162t-158 404q0 252 158.5 403.5t424.5 162.5v280h202v-280q266 -11 424.5 -162.5t158.5 -403.5q0 -253 -158 -404t-425 -162v-332h-202zM677 160v768q-175 -12 -274 -113t-99 -270q0 -170 98.5 -270.5t274.5 -114.5zM875 160
q176 14 274.5 114.5t98.5 270.5q0 169 -99 270t-274 113v-768z" />
    <glyph glyph-name="chigreek" unicode="&#x3c7;" horiz-adv-x="1178" 
d="M76 -353l403 714l-225 438q-33 67 -68 90.5t-96 23.5q-29 0 -48 -5v178q42 13 105 13q106 0 165.5 -42t116.5 -156l169 -330h17l275 517h222l-410 -735l218 -419q32 -64 67 -88t96 -24q23 0 48 6v-178q-44 -13 -108 -13q-100 0 -158.5 38t-107.5 136l-175 334h-17
l-267 -498h-222z" />
    <glyph glyph-name="psigreek" unicode="&#x3c8;" horiz-adv-x="1524" 
d="M654 -353v332q-243 0 -378.5 119.5t-135.5 333.5v657h210v-617q0 -150 75.5 -222t228.5 -72v1213h206v-1212q162 0 248 96.5t86 277.5q0 161 -24 287t-78 249h216q45 -90 73.5 -232t28.5 -277q0 -285 -145 -443t-405 -158v-332h-206z" />
    <glyph glyph-name="omegagreek" unicode="&#x3c9;" horiz-adv-x="1610" 
d="M491 -21q-185 0 -285 137t-100 393q0 167 47 321.5t129 258.5h225q-95 -134 -140 -274.5t-45 -303.5q0 -333 192 -333q87 0 137.5 65.5t50.5 179.5v354h206v-354q0 -114 50 -179.5t136 -65.5q98 0 146 82t48 251q0 164 -45 304t-141 274h226q82 -104 129 -258.5
t47 -321.5q0 -256 -100 -393t-285 -137q-215 0 -306 222h-16q-91 -222 -306 -222z" />
    <glyph glyph-name="iotadieresisgreek" unicode="&#x3ca;" horiz-adv-x="664" 
d="M475 -6q-179 0 -256 68t-77 227v800h215v-746q0 -86 37 -125t118 -39q44 0 94 5v-179q-53 -11 -131 -11zM42 1238q-57 0 -95.5 38.5t-38.5 95.5t38.5 96t95.5 39q56 0 94.5 -39t38.5 -96t-38.5 -95.5t-94.5 -38.5zM469 1238q-56 0 -95 38.5t-39 95.5t39 96t95 39
t94.5 -39t38.5 -96t-38.5 -95.5t-94.5 -38.5z" />
    <glyph glyph-name="upsilondieresisgreek" unicode="&#x3cb;" horiz-adv-x="1189" 
d="M351 1238q-57 0 -95.5 38.5t-38.5 95.5t38.5 96t95.5 39q56 0 94.5 -39t38.5 -96t-38.5 -95.5t-94.5 -38.5zM778 1238q-56 0 -95 38.5t-39 95.5t39 96t95 39t94.5 -39t38.5 -96t-38.5 -95.5t-94.5 -38.5zM587 -21q-217 0 -332 116.5t-115 335.5v658h210v-637
q0 -140 57.5 -207t178.5 -67q130 0 201.5 97.5t71.5 271.5q0 169 -21.5 285t-80.5 257h216q47 -95 74.5 -237t27.5 -287q0 -277 -130 -431.5t-358 -154.5z" />
    <glyph glyph-name="omicrontonosgreek" unicode="&#x3cc;" horiz-adv-x="1207" 
d="M603 -21q-235 0 -372 151t-137 415q0 263 138 414t371 151q234 0 372 -150.5t138 -414.5t-137.5 -415t-372.5 -151zM603 170q136 0 212 98.5t76 276.5q0 177 -76.5 275.5t-211.5 98.5q-134 0 -211 -98.5t-77 -275.5t76.5 -276t211.5 -99zM499 1265l86 355h240l-139 -355
h-187z" />
    <glyph glyph-name="upsilontonosgreek" unicode="&#x3cd;" horiz-adv-x="1189" 
d="M451 1265l86 355h240l-139 -355h-187zM587 -21q-217 0 -332 116.5t-115 335.5v658h210v-637q0 -140 57.5 -207t178.5 -67q130 0 201.5 97.5t71.5 271.5q0 169 -21.5 285t-80.5 257h216q47 -95 74.5 -237t27.5 -287q0 -277 -130 -431.5t-358 -154.5z" />
    <glyph glyph-name="omegatonosgreek" unicode="&#x3ce;" horiz-adv-x="1610" 
d="M491 -21q-185 0 -285 137t-100 393q0 167 47 321.5t129 258.5h225q-95 -134 -140 -274.5t-45 -303.5q0 -333 192 -333q87 0 137.5 65.5t50.5 179.5v354h206v-354q0 -114 50 -179.5t136 -65.5q98 0 146 82t48 251q0 164 -45 304t-141 274h226q82 -104 129 -258.5
t47 -321.5q0 -256 -100 -393t-285 -137q-215 0 -306 222h-16q-91 -222 -306 -222zM702 1265l86 355h240l-139 -355h-187z" />
    <glyph glyph-name="Iocyrillic" unicode="&#x401;" horiz-adv-x="1259" 
d="M436 1577q-57 0 -95.5 38.5t-38.5 95.5t38.5 96t95.5 39q56 0 94.5 -39t38.5 -96t-38.5 -95.5t-94.5 -38.5zM863 1577q-56 0 -95 38.5t-39 95.5t39 96t95 39t94.5 -39t38.5 -96t-38.5 -95.5t-94.5 -38.5zM1107 204v-204h-916v1443h916v-204h-692v-408h655v-194h-655v-433
h692z" />
    <glyph glyph-name="Djecyrillic" unicode="&#x402;" horiz-adv-x="1749" 
d="M1168 -40q-40 0 -74 4t-48 8l-14 5v198q41 -15 124 -15q115 0 184.5 68.5t69.5 197.5q0 117 -74 195t-216 78q-63 0 -118 -15t-90.5 -36t-64.5 -48.5t-43 -48t-23 -39.5v-512h-224v1239h-454v204h1131v-204h-453v-466h16q134 134 351 134q118 0 212.5 -38t153 -103
t89.5 -149.5t31 -180.5q0 -214 -125 -345t-341 -131z" />
    <glyph glyph-name="Gjecyrillic" unicode="&#x403;" horiz-adv-x="1183" 
d="M478 1575l297 306h258l-325 -306h-230zM416 0h-225v1443h882v-205h-657v-1238z" />
    <glyph glyph-name="Ecyrillic" unicode="&#x404;" horiz-adv-x="1529" 
d="M1404 436q-30 -212 -196.5 -341.5t-411.5 -129.5q-305 0 -483 203t-178 553q0 351 177.5 554t483.5 203q242 0 411.5 -138.5t196.5 -356.5h-223q-32 130 -136 208t-249 78q-178 0 -292 -117t-134 -319h614v-196h-617q15 -213 130.5 -338t299.5 -125q146 0 250 71t134 191
h223z" />
    <glyph glyph-name="Dzecyrillic" unicode="&#x405;" horiz-adv-x="1353" 
d="M123 388h222q14 -103 107.5 -163.5t238.5 -60.5q135 0 223.5 62.5t88.5 158.5q0 82 -65.5 134.5t-209.5 86.5l-186 45q-196 46 -288 143t-92 256q0 193 144.5 310.5t380.5 117.5q220 0 365 -116t155 -298h-218q-16 100 -97.5 158t-207.5 58q-133 0 -214 -59t-81 -156
q0 -77 61.5 -125t202.5 -81l159 -39q222 -52 320 -147.5t98 -258.5q0 -207 -150 -328t-406 -121q-240 0 -389.5 115t-161.5 308z" />
    <glyph glyph-name="Icyrillic" unicode="&#x406;" horiz-adv-x="605" 
d="M415 0h-224v1443h224v-1443z" />
    <glyph glyph-name="Yicyrillic" unicode="&#x407;" horiz-adv-x="605" 
d="M415 0h-224v1443h224v-1443zM90 1577q-57 0 -95.5 38.5t-38.5 95.5t38.5 96t95.5 39q56 0 94.5 -39t38.5 -96t-38.5 -95.5t-94.5 -38.5zM517 1577q-56 0 -95 38.5t-39 95.5t39 96t95 39t94.5 -39t38.5 -96t-38.5 -95.5t-94.5 -38.5z" />
    <glyph glyph-name="Jecyrillic" unicode="&#x408;" horiz-adv-x="1168" 
d="M92 375h220q2 -89 62 -144t156 -55q108 0 166 63.5t58 183.5v1020h224v-1021q0 -217 -118.5 -337t-327.5 -120q-197 0 -318.5 112.5t-121.5 297.5z" />
    <glyph glyph-name="Ljecyrillic" unicode="&#x409;" horiz-adv-x="2200" 
d="M527 554q-8 -136 -32 -236.5t-69 -176.5t-117 -114t-172 -38q-49 0 -83 12v210q28 -7 58 -7q46 0 81 18.5t56.5 49t36 79t21.5 99t11 118.5l49 875h915v-511h326q213 0 347.5 -129.5t134.5 -336.5t-132.5 -336.5t-342.5 -129.5h-557v1239h-489zM1282 200h274
q146 0 225.5 69t79.5 197q0 129 -80 198.5t-226 69.5h-273v-534z" />
    <glyph glyph-name="Njecyrillic" unicode="&#x40a;" horiz-adv-x="2269" 
d="M1343 200h280q144 0 222.5 59.5t78.5 169.5q0 103 -79 159t-223 56h-279v-444zM415 641v-641h-224v1443h224v-601h704v601h224v-601h327q213 0 347.5 -115t134.5 -299q0 -190 -133 -309t-343 -119h-557v641h-704z" />
    <glyph glyph-name="Tshecyrillic" unicode="&#x40b;" horiz-adv-x="1790" 
d="M1109 699q-76 0 -138 -21t-100 -55t-58 -59.5t-32 -51.5v-512h-224v1239h-454v204h1131v-204h-453v-465h16q131 133 346 133q157 0 268.5 -68.5t164.5 -182t53 -259.5v-397h-224v382q0 145 -74.5 231t-221.5 86z" />
    <glyph glyph-name="Kjecyrillic" unicode="&#x40c;" horiz-adv-x="1406" 
d="M546 1575l297 306h258l-325 -306h-230zM425 818h43l570 625h265l-644 -700l696 -743h-284l-602 633h-44v-633h-224v1443h224v-625z" />
    <glyph glyph-name="Ushortcyrillic" unicode="&#x40e;" horiz-adv-x="1355" 
d="M321 1892h179q1 -76 50.5 -122.5t125.5 -46.5q77 0 127 46.5t51 122.5h179q0 -142 -97.5 -225t-259.5 -83t-258.5 83t-96.5 225zM355 -11q-63 0 -96 13v203q30 -9 83 -9q77 0 130.5 30t93.5 99l-488 1118h239l359 -871h17l349 871h234l-442 -1030q-47 -111 -89 -182.5
t-98 -130t-127.5 -85t-164.5 -26.5z" />
    <glyph glyph-name="Dzhecyrillic" unicode="&#x40f;" horiz-adv-x="1551" 
d="M671 0h-480v1443h224v-1239h722v1239h223v-1443h-480v-285h-209v285z" />
    <glyph glyph-name="Acyrillic" unicode="&#x410;" horiz-adv-x="1443" 
d="M1125 0l-132 383h-550l-133 -383h-230l521 1443h241l521 -1443h-238zM710 1181l-210 -610h436l-209 610h-17z" />
    <glyph glyph-name="Becyrillic" unicode="&#x411;" horiz-adv-x="1334" 
d="M1215 443q0 -197 -132.5 -320t-342.5 -123h-549v1443h884v-204h-660v-355h320q212 0 346 -122.5t134 -318.5zM415 200h268q145 0 224 63t79 181t-79.5 181.5t-224.5 63.5h-267v-489z" />
    <glyph glyph-name="Vecyrillic" unicode="&#x412;" horiz-adv-x="1393" 
d="M784 0h-593v1443h580q203 0 318.5 -96.5t115.5 -263.5q0 -113 -73 -202.5t-180 -107.5v-17q146 -15 235.5 -110.5t89.5 -236.5q0 -191 -131 -300t-362 -109zM415 1253v-421h266q148 0 224.5 53.5t76.5 156.5q0 100 -69.5 155.5t-193.5 55.5h-304zM415 190h324
q151 0 230 60t79 175q0 113 -82 171.5t-240 58.5h-311v-465z" />
    <glyph glyph-name="Gecyrillic" unicode="&#x413;" horiz-adv-x="1183" 
d="M416 0h-225v1443h882v-205h-657v-1238z" />
    <glyph glyph-name="Decyrillic" unicode="&#x414;" horiz-adv-x="1538" 
d="M503 567q-8 -131 -29 -211.5t-68 -137.5v-14h658v1035h-517zM245 0v-285h-205v489h105q74 45 107.5 134.5t42.5 240.5l53 864h940v-1239h180v-489h-205v285h-1018z" />
    <glyph glyph-name="Iecyrillic" unicode="&#x415;" horiz-adv-x="1259" 
d="M1107 204v-204h-916v1443h916v-204h-692v-408h655v-194h-655v-433h692z" />
    <glyph glyph-name="Zhecyrillic" unicode="&#x416;" horiz-adv-x="2115" 
d="M945 816v627h222v-627h44l526 627h260l-601 -701l653 -742h-279l-558 635h-45v-635h-222v635h-45l-559 -635h-275l649 737l-603 706h262l526 -627h45z" />
    <glyph glyph-name="Zecyrillic" unicode="&#x417;" horiz-adv-x="1294" 
d="M439 637v196h193q120 0 196 64t76 166q0 101 -72 160t-198 59t-203.5 -60t-87.5 -166h-212q11 195 148 308.5t362 113.5q213 0 348.5 -108t135.5 -280q0 -120 -72.5 -211.5t-189.5 -118.5v-17q143 -15 232 -108t89 -241q0 -121 -71 -219.5t-194 -154t-274 -55.5
q-235 0 -383.5 117t-158.5 310h215q10 -104 98.5 -165.5t228.5 -61.5q139 0 224 67t85 174q0 108 -83 169.5t-233 61.5h-199z" />
    <glyph glyph-name="Iicyrillic" unicode="&#x418;" horiz-adv-x="1572" 
d="M1159 0v1064h-17l-733 -1064h-218v1443h222v-1067h17l733 1067h218v-1443h-222z" />
    <glyph glyph-name="Iishortcyrillic" unicode="&#x419;" horiz-adv-x="1572" 
d="M423 1892h179q1 -76 50.5 -122.5t125.5 -46.5q77 0 127 46.5t51 122.5h179q0 -142 -97.5 -225t-259.5 -83t-258.5 83t-96.5 225zM1159 0v1064h-17l-733 -1064h-218v1443h222v-1067h17l733 1067h218v-1443h-222z" />
    <glyph glyph-name="Kacyrillic" unicode="&#x41a;" horiz-adv-x="1410" 
d="M415 818h43l570 625h265l-644 -700l696 -743h-284l-602 633h-44v-633h-224v1443h224v-625z" />
    <glyph glyph-name="Elcyrillic" unicode="&#x41b;" horiz-adv-x="1462" 
d="M1272 0h-224v1239h-489l-42 -685q-8 -136 -32 -236.5t-69 -176.5t-117 -114t-172 -38q-49 0 -83 12v210q28 -7 58 -7q46 0 81 18.5t56.5 49t36 79t21.5 99t11 118.5l49 875h915v-1443z" />
    <glyph glyph-name="Emcyrillic" unicode="&#x41c;" horiz-adv-x="1842" 
d="M399 0h-208v1443h262l459 -1096h17l460 1096h262v-1443h-208v1042h-14l-423 -1000h-170l-423 1000h-14v-1042z" />
    <glyph glyph-name="Encyrillic" unicode="&#x41d;" horiz-adv-x="1570" 
d="M1379 0h-223v633h-741v-633h-224v1443h224v-606h741v606h223v-1443z" />
    <glyph glyph-name="Ocyrillic" unicode="&#x41e;" horiz-adv-x="1617" 
d="M810 1478q312 0 492 -203.5t180 -552.5t-180 -553t-492 -204q-313 0 -493.5 203.5t-180.5 553.5q0 349 181.5 552.5t492.5 203.5zM810 1269q-204 0 -324.5 -148t-120.5 -399t119 -399.5t326 -148.5q205 0 324 148.5t119 399.5q0 252 -119 399.5t-324 147.5z" />
    <glyph glyph-name="Pecyrillic" unicode="&#x41f;" horiz-adv-x="1551" 
d="M1360 0h-222v1238h-722v-1238h-225v1443h1169v-1443z" />
    <glyph glyph-name="Ercyrillic" unicode="&#x420;" horiz-adv-x="1349" 
d="M191 1443h565q212 0 344 -133.5t132 -347.5q0 -211 -135 -343.5t-348 -132.5h-334v-486h-224v1443zM415 1245v-562h282q145 0 225.5 72.5t80.5 206.5q0 137 -79 210t-227 73h-282z" />
    <glyph glyph-name="Escyrillic" unicode="&#x421;" horiz-adv-x="1528" 
d="M787 -35q-301 0 -476 203t-175 553q0 351 174.5 554t475.5 203q238 0 405.5 -139.5t194.5 -360.5h-223q-32 133 -133.5 212t-243.5 79q-194 0 -307.5 -147.5t-113.5 -400.5q0 -252 113.5 -399.5t308.5 -147.5q143 0 244.5 72t131.5 194h223q-30 -214 -194 -344.5
t-405 -130.5z" />
    <glyph glyph-name="Tecyrillic" unicode="&#x422;" horiz-adv-x="1337" 
d="M781 0h-224v1239h-454v204h1131v-204h-453v-1239z" />
    <glyph glyph-name="Ucyrillic" unicode="&#x423;" horiz-adv-x="1355" 
d="M355 -11q-63 0 -96 13v203q30 -9 83 -9q77 0 130.5 30t93.5 99l-488 1118h239l359 -871h17l349 871h234l-442 -1030q-47 -111 -89 -182.5t-98 -130t-127.5 -85t-164.5 -26.5z" />
    <glyph glyph-name="Efcyrillic" unicode="&#x424;" horiz-adv-x="1759" 
d="M770 328v795q-194 -8 -308 -113.5t-114 -283.5t114 -284.5t308 -113.5zM1410 725q0 178 -113.5 284.5t-307.5 113.5v-795q193 8 307 113.5t114 283.5zM769 128q-295 8 -471.5 167t-176.5 431q0 181 82 314.5t227.5 205t338.5 77.5v145h221v-145q294 -8 470 -167t176 -431
q0 -181 -81.5 -314.5t-226.5 -205t-338 -77.5v-153h-221v153z" />
    <glyph glyph-name="Xacyrillic" unicode="&#x425;" horiz-adv-x="1447" 
d="M99 0l482 726l-477 717h267l351 -544h17l357 544h252l-490 -723l481 -720h-262l-354 534h-17l-359 -534h-248z" />
    <glyph glyph-name="Tsecyrillic" unicode="&#x426;" horiz-adv-x="1611" 
d="M1541 -285h-205v285h-1145v1443h224v-1239h722v1239h224v-1239h180v-489z" />
    <glyph glyph-name="Checyrillic" unicode="&#x427;" horiz-adv-x="1457" 
d="M1267 0h-224v650h-17q-139 -132 -361 -132q-164 0 -285.5 70t-182.5 189.5t-61 272.5v393h224v-373q0 -154 84.5 -248t241.5 -94q128 0 222 54t135 138v523h224v-1443z" />
    <glyph glyph-name="Shacyrillic" unicode="&#x428;" horiz-adv-x="2017" 
d="M191 0v1443h224v-1239h481v1239h224v-1239h482v1239h224v-1443h-1635z" />
    <glyph glyph-name="Shchacyrillic" unicode="&#x429;" horiz-adv-x="2076" 
d="M2006 -285h-205v285h-1610v1443h224v-1239h481v1239h224v-1239h482v1239h224v-1239h180v-489z" />
    <glyph glyph-name="Hardsigncyrillic" unicode="&#x42a;" horiz-adv-x="1572" 
d="M987 0h-558v1239h-331v204h555v-511h327q213 0 347.5 -129.5t134.5 -336.5t-132.5 -336.5t-342.5 -129.5zM653 200h275q146 0 225.5 69t79.5 197q0 129 -80 198.5t-226 69.5h-274v-534z" />
    <glyph glyph-name="Yericyrillic" unicode="&#x42b;" horiz-adv-x="1827" 
d="M1637 0h-224v1443h224v-1443zM199 0v1443h224v-511h326q213 0 348 -129.5t135 -336.5t-132.5 -336.5t-343.5 -129.5h-557zM423 200h274q146 0 225.5 69t79.5 197q0 129 -80 198.5t-225 69.5h-274v-534z" />
    <glyph glyph-name="Softsigncyrillic" unicode="&#x42c;" horiz-adv-x="1341" 
d="M191 0v1443h224v-511h326q213 0 348 -129.5t135 -336.5t-132.5 -336.5t-343.5 -129.5h-557zM415 200h274q146 0 225.5 69t79.5 197q0 129 -80 198.5t-225 69.5h-274v-534z" />
    <glyph glyph-name="Ereversedcyrillic" unicode="&#x42d;" horiz-adv-x="1529" 
d="M740 -35q-248 0 -416.5 129.5t-198.5 341.5h223q30 -120 136 -191t256 -71q181 0 294.5 124t127.5 339h-617v196h616q-20 204 -132 320t-288 116q-148 0 -254.5 -78t-137.5 -208h-223q17 143 101 256t218.5 176t295.5 63q302 0 477.5 -202.5t175.5 -551.5
q0 -352 -176 -555.5t-478 -203.5z" />
    <glyph glyph-name="IUcyrillic" unicode="&#x42e;" horiz-adv-x="2119" 
d="M1322 -35q-289 0 -464.5 178.5t-196.5 489.5h-246v-633h-224v1443h224v-606h248q29 299 204 470t455 171q306 0 483.5 -203.5t177.5 -552.5t-177 -553t-484 -204zM1321 1269q-200 0 -317.5 -148t-117.5 -399t116.5 -399.5t318.5 -148.5q200 0 316.5 148.5t116.5 399.5
q0 252 -116.5 399.5t-316.5 147.5z" />
    <glyph glyph-name="IAcyrillic" unicode="&#x42f;" horiz-adv-x="1403" 
d="M989 731v514h-285q-143 0 -221.5 -67.5t-78.5 -189.5t78.5 -189.5t221.5 -67.5h285zM737 539l-378 -539h-257l401 570q-150 40 -239.5 151.5t-89.5 267.5q0 202 134.5 328t350.5 126h553v-1443h-223v539h-252z" />
    <glyph glyph-name="acyrillic" unicode="&#x430;" horiz-adv-x="1189" 
d="M522 163q121 0 201.5 68t80.5 170v91l-266 -17q-112 -7 -165 -46t-53 -111t56 -113.5t146 -41.5zM467 -18q-160 0 -261.5 89.5t-101.5 236.5q0 146 105 229.5t300 95.5l295 17v94q0 87 -57 133.5t-166 46.5q-90 0 -149.5 -31.5t-77.5 -89.5h-208q16 140 137.5 223.5
t307.5 83.5q204 0 315.5 -96.5t111.5 -269.5v-744h-207v153h-17q-49 -82 -134.5 -126.5t-192.5 -44.5z" />
    <glyph glyph-name="becyrillic" unicode="&#x431;" horiz-adv-x="1265" 
d="M632 170q142 0 219.5 94t77.5 266q0 164 -77.5 254t-219.5 90t-219.5 -90t-77.5 -254q0 -172 77.5 -266t219.5 -94zM289 855h17q51 95 143 149.5t223 54.5q216 0 347.5 -141.5t131.5 -384.5q0 -258 -138.5 -406t-378.5 -148q-251 0 -385.5 164t-134.5 490
q0 203 28.5 349.5t94 253.5t174 162t265.5 61l119 5q76 4 147 17t103 23.5t34 12.5v-190q-7 -5 -24 -13.5t-86.5 -24t-161.5 -19.5l-119 -4q-104 -4 -176.5 -32t-117.5 -83t-68.5 -125t-36.5 -171z" />
    <glyph glyph-name="vecyrillic" unicode="&#x432;" horiz-adv-x="1165" 
d="M618 924h-241v-282h217q192 0 192 142q0 66 -42.5 103t-125.5 37zM609 484h-232v-319h259q95 0 145 41t50 118q0 160 -222 160zM164 0v1089h495q159 0 248.5 -74.5t89.5 -202.5q0 -83 -52.5 -149t-131.5 -81v-17q105 -12 169 -81.5t64 -169.5q0 -144 -102 -229t-280 -85
h-500z" />
    <glyph glyph-name="gecyrillic" unicode="&#x433;" horiz-adv-x="971" 
d="M881 908h-502v-908h-215v1089h717v-181z" />
    <glyph glyph-name="decyrillic" unicode="&#x434;" horiz-adv-x="1295" 
d="M859 181v727h-383l-30 -410q-17 -205 -85 -300v-17h498zM235 -285h-200v466h88q108 66 126 328l40 580h784v-908h170v-466h-200v285h-808v-285z" />
    <glyph glyph-name="iecyrillic" unicode="&#x435;" horiz-adv-x="1216" 
d="M615 927q-119 0 -196 -77t-86 -205h550q-4 129 -76.5 205.5t-191.5 76.5zM882 294h207q-37 -147 -161.5 -231t-310.5 -84q-234 0 -368.5 150.5t-134.5 411.5t136 415t366 154q227 0 356.5 -146t129.5 -403v-75h-769v-12q5 -144 83 -228t207 -84q197 0 259 132z" />
    <glyph glyph-name="zhecyrillic" unicode="&#x436;" horiz-adv-x="1695" 
d="M64 0l450 581l-433 508h251l355 -446h55v446h209v-446h55l355 446h248l-430 -505l453 -584h-262l-363 480h-56v-480h-209v480h-56l-363 -480h-259z" />
    <glyph glyph-name="zecyrillic" unicode="&#x437;" horiz-adv-x="1110" 
d="M555 -20q-185 0 -308.5 85t-138.5 244h214q17 -71 78 -108.5t155 -37.5q107 0 166.5 43.5t59.5 117.5q0 155 -225 155h-160v167h157q190 0 190 141q0 63 -48 102t-142 39q-91 0 -149.5 -36.5t-68.5 -100.5h-208q17 147 130 233t295 86q192 0 297 -80.5t105 -220.5
q0 -82 -47.5 -143t-124.5 -80v-17q105 -24 159.5 -88.5t54.5 -156.5q0 -156 -120 -250t-321 -94z" />
    <glyph glyph-name="iicyrillic" unicode="&#x438;" horiz-adv-x="1282" 
d="M377 0h-213v1089h213v-749h17l511 749h213v-1089h-213v753h-17z" />
    <glyph glyph-name="iishortcyrillic" unicode="&#x439;" horiz-adv-x="1282" 
d="M266 1582h179q0 -83 49 -141t128 -58q81 0 129.5 58t49.5 141h178q0 -147 -99 -242.5t-258 -95.5t-257.5 95.5t-98.5 242.5zM377 0h-213v1089h213v-749h17l511 749h213v-1089h-213v753h-17z" />
    <glyph glyph-name="kacyrillic" unicode="&#x43a;" horiz-adv-x="1157" 
d="M379 647h48l393 442h253l-469 -506l489 -583h-268l-397 476h-49v-476h-215v1089h215v-442z" />
    <glyph glyph-name="elcyrillic" unicode="&#x43b;" horiz-adv-x="1214" 
d="M460 498q-8 -123 -28 -211.5t-58.5 -158t-101.5 -104.5t-151 -35q-43 0 -74 12v201q27 -8 58 -8q75 0 110.5 81t46.5 234l38 580h750v-1089h-215v908h-345z" />
    <glyph glyph-name="emcyrillic" unicode="&#x43c;" horiz-adv-x="1581" 
d="M373 0h-209v1089h270l351 -779h17l352 779h262v-1089h-209v751h-19l-319 -707h-158l-319 707h-19v-751z" />
    <glyph glyph-name="encyrillic" unicode="&#x43d;" horiz-adv-x="1268" 
d="M164 0v1089h215v-436h510v436h215v-1089h-215v472h-510v-472h-215z" />
    <glyph glyph-name="ocyrillic" unicode="&#x43e;" horiz-adv-x="1255" 
d="M628 170q139 0 215.5 98.5t76.5 276.5q0 177 -76.5 275.5t-215.5 98.5q-140 0 -216 -98t-76 -276q0 -179 76 -277t216 -98zM628 -21q-240 0 -377 151t-137 415q0 263 137.5 414t376.5 151q238 0 375.5 -151t137.5 -414q0 -264 -137 -415t-376 -151z" />
    <glyph glyph-name="pecyrillic" unicode="&#x43f;" horiz-adv-x="1258" 
d="M879 0v908h-500v-908h-215v1089h930v-1089h-215z" />
    <glyph glyph-name="ercyrillic" unicode="&#x440;" horiz-adv-x="1295" 
d="M730 1107q208 0 330 -151.5t122 -410.5t-121.5 -411t-328.5 -152q-116 0 -204 48.5t-131 134.5h-17v-518h-215v1442h207v-180h16q49 93 140 145.5t202 52.5zM669 175q137 0 214.5 98.5t77.5 271.5t-77.5 271t-213.5 98t-215 -99.5t-79 -270.5q0 -170 79 -269.5t214 -99.5
z" />
    <glyph glyph-name="escyrillic" unicode="&#x441;" horiz-adv-x="1189" 
d="M1090 733h-209q-20 83 -86.5 134t-170.5 51q-135 0 -212.5 -98t-77.5 -272q0 -176 77.5 -276.5t212.5 -100.5q103 0 169.5 46t87.5 133h209q-21 -168 -144 -269.5t-321 -101.5q-238 0 -374.5 151.5t-136.5 417.5q0 262 136 412t374 150q199 0 321.5 -104t144.5 -273z" />
    <glyph glyph-name="tecyrillic" unicode="&#x442;" horiz-adv-x="1053" 
d="M977 1089v-181h-343v-908h-215v908h-343v181h901z" />
    <glyph glyph-name="ucyrillic" unicode="&#x443;" horiz-adv-x="1172" 
d="M274 -396q-64 0 -89 5v185q23 -4 70 -4q77 0 123 35.5t74 117.5l16 53l-394 1093h234l273 -865h17l272 865h228l-406 -1134q-70 -199 -160.5 -275t-257.5 -76z" />
    <glyph glyph-name="efcyrillic" unicode="&#x444;" horiz-adv-x="1577" 
d="M684 169v751q-162 -4 -257 -104t-95 -271q0 -172 94.5 -271.5t257.5 -104.5zM1244 545q0 171 -94.5 270.5t-256.5 104.5v-751q161 4 256 104.5t95 271.5zM683 -14q-260 5 -414.5 155.5t-154.5 403.5q0 252 155 402.5t414 155.5v346h211v-346q259 -5 414 -155.5
t155 -403.5q0 -252 -155.5 -402.5t-413.5 -155.5v-339h-211v339z" />
    <glyph glyph-name="hacyrillic" unicode="&#x445;" horiz-adv-x="1137" 
d="M573 386h-16l-238 -386h-236l361 542l-364 547h251l234 -384h17l232 384h239l-359 -538l363 -551h-247z" />
    <glyph glyph-name="tsecyrillic" unicode="&#x446;" horiz-adv-x="1307" 
d="M1255 -285h-199v285h-892v1089h215v-908h491v908h215v-908h170v-466z" />
    <glyph glyph-name="checyrillic" unicode="&#x447;" horiz-adv-x="1203" 
d="M1039 0h-215v478h-17q-112 -110 -286 -110q-175 0 -276 107.5t-101 288.5v325h215v-306q0 -102 54 -160.5t149 -58.5q55 0 102.5 13.5t78.5 34.5t50 39.5t31 36.5v401h215v-1089z" />
    <glyph glyph-name="shacyrillic" unicode="&#x448;" horiz-adv-x="1723" 
d="M164 0v1089h215v-908h375v908h215v-908h375v908h215v-1089h-1395z" />
    <glyph glyph-name="shchacyrillic" unicode="&#x449;" horiz-adv-x="1778" 
d="M1726 -285h-199v285h-1363v1089h215v-908h375v908h215v-908h375v908h215v-908h167v-466z" />
    <glyph glyph-name="hardsigncyrillic" unicode="&#x44a;" horiz-adv-x="1285" 
d="M785 0h-422v908h-288v181h503v-334h207q188 0 300 -102.5t112 -274.5q0 -173 -112 -275.5t-300 -102.5zM768 575h-190v-394h190q98 0 156.5 54t58.5 143t-59 143t-156 54z" />
    <glyph glyph-name="yericyrillic" unicode="&#x44b;" horiz-adv-x="1511" 
d="M1132 0v1089h215v-1089h-215zM578 575h-191v-394h191q97 0 155.5 54t58.5 143t-58.5 143t-155.5 54zM172 0v1089h215v-334h207q189 0 301 -102t112 -275t-112 -275.5t-301 -102.5h-422z" />
    <glyph glyph-name="softsigncyrillic" unicode="&#x44c;" horiz-adv-x="1094" 
d="M570 575h-191v-394h191q97 0 155.5 54t58.5 143t-58.5 143t-155.5 54zM164 0v1089h215v-334h207q189 0 301 -102t112 -275t-112 -275.5t-301 -102.5h-422z" />
    <glyph glyph-name="ereversedcyrillic" unicode="&#x44d;" horiz-adv-x="1204" 
d="M575 -20q-199 0 -323 101t-146 267h209q21 -85 89.5 -131t171.5 -46q123 0 203 83t90 223h-467v166h464q-13 127 -92.5 201t-197.5 74q-105 0 -173 -50t-88 -130h-209q23 164 147.5 268t322.5 104q234 0 374 -152.5t140 -409.5q0 -262 -139.5 -415t-375.5 -153z" />
    <glyph glyph-name="iucyrillic" unicode="&#x44e;" horiz-adv-x="1684" 
d="M1065 -21q-218 0 -351 130.5t-151 362.5h-184v-472h-215v1089h215v-436h188q26 215 157.5 336t340.5 121q235 0 370.5 -150.5t135.5 -414.5q0 -265 -135.5 -415.5t-370.5 -150.5zM1065 170q136 0 210 98t74 277q0 178 -74 276t-210 98t-210.5 -98t-74.5 -276
q0 -179 74.5 -277t210.5 -98z" />
    <glyph glyph-name="iacyrillic" unicode="&#x44f;" horiz-adv-x="1131" 
d="M559 546h195v362h-195q-98 0 -155.5 -50t-57.5 -136q0 -78 58.5 -127t154.5 -49zM754 0v373h-162l-264 -373h-250l297 412q-113 32 -177.5 114.5t-64.5 194.5q0 169 113 268.5t302 99.5h418v-1089h-212z" />
    <glyph glyph-name="iocyrillic" unicode="&#x451;" horiz-adv-x="1216" 
d="M615 927q-119 0 -196 -77t-86 -205h550q-4 129 -76.5 205.5t-191.5 76.5zM882 294h207q-37 -147 -161.5 -231t-310.5 -84q-234 0 -368.5 150.5t-134.5 411.5t136 415t366 154q227 0 356.5 -146t129.5 -403v-75h-769v-12q5 -144 83 -228t207 -84q197 0 259 132zM403 1238
q-57 0 -95.5 38.5t-38.5 95.5t38.5 96t95.5 39q56 0 94.5 -39t38.5 -96t-38.5 -95.5t-94.5 -38.5zM830 1238q-56 0 -95 38.5t-39 95.5t39 96t95 39t94.5 -39t38.5 -96t-38.5 -95.5t-94.5 -38.5z" />
    <glyph glyph-name="djecyrillic" unicode="&#x452;" horiz-adv-x="1303" 
d="M1141 -62q0 -166 -86.5 -245.5t-264.5 -79.5q-43 0 -47 1v180h29q85 0 120 34t35 114v708q0 130 -63 196t-185 66q-131 0 -210 -76t-79 -200v-636h-215v1275h-134v136h134v152h213v-152h256v-136h-256v-361h17q40 91 132 143t215 52q184 0 286.5 -106t102.5 -300v-765z
" />
    <glyph glyph-name="gjecyrillic" unicode="&#x453;" horiz-adv-x="971" 
d="M377 1271l251 344h252l-281 -344h-222zM889 908h-502v-908h-215v1089h717v-181z" />
    <glyph glyph-name="ecyrillic" unicode="&#x454;" horiz-adv-x="1191" 
d="M1092 348q-22 -166 -145.5 -267t-320.5 -101q-236 0 -374 153t-138 415q0 257 138 409.5t373 152.5q196 0 320 -104.5t146 -267.5h-209q-20 80 -87 130t-170 50q-116 0 -194 -73t-93 -199h458v-167h-461q8 -142 87 -225t203 -83q102 0 169 46t88 131h210z" />
    <glyph glyph-name="dzecyrillic" unicode="&#x455;" horiz-adv-x="1124" 
d="M141 781q0 144 119 236.5t304 92.5q184 0 297 -81t129 -225h-206q-15 61 -72.5 96t-147.5 35q-91 0 -151 -39.5t-60 -102.5q0 -49 42 -81t131 -52l181 -42q157 -36 230.5 -107t73.5 -190q0 -152 -127 -247t-324 -95q-194 0 -313.5 82.5t-133.5 227.5h215q21 -64 81 -100
t156 -36q101 0 165 41t64 106q0 95 -160 133l-190 44q-156 37 -229.5 110t-73.5 194z" />
    <glyph glyph-name="icyrillic" unicode="&#x456;" horiz-adv-x="563" 
d="M170 0v1089h214v-1089h-214zM277 1280q-60 0 -99.5 37.5t-39.5 93.5t39.5 94t99.5 38t99.5 -38t39.5 -94t-39.5 -93.5t-99.5 -37.5z" />
    <glyph glyph-name="yicyrillic" unicode="&#x457;" horiz-adv-x="564" 
d="M173 0v1089h215v-1089h-215zM68 1238q-57 0 -95.5 38.5t-38.5 95.5t38.5 96t95.5 39q56 0 94.5 -39t38.5 -96t-38.5 -95.5t-94.5 -38.5zM495 1238q-56 0 -95 38.5t-39 95.5t39 96t95 39t94.5 -39t38.5 -96t-38.5 -95.5t-94.5 -38.5z" />
    <glyph glyph-name="jecyrillic" unicode="&#x458;" horiz-adv-x="564" 
d="M384 1089v-1149q0 -167 -86.5 -247t-264.5 -80q-43 0 -48 1v180h30q85 0 120 34t35 114v1147h214zM277 1280q-60 0 -99.5 37.5t-39.5 93.5t39.5 94t99.5 38t99.5 -38t39.5 -94t-39.5 -93.5t-99.5 -37.5z" />
    <glyph glyph-name="ljecyrillic" unicode="&#x459;" horiz-adv-x="1773" 
d="M468 498q-8 -123 -28 -211.5t-58.5 -158t-101.5 -104.5t-151 -35q-42 0 -73 12v201q27 -8 57 -8q75 0 110.5 81t46.5 234l38 580h750v-334h207q189 0 301 -102t112 -275t-112 -275.5t-301 -102.5h-422v908h-345zM1249 575h-191v-394h191q97 0 155.5 54t58.5 143
t-58.5 143t-155.5 54z" />
    <glyph glyph-name="njecyrillic" unicode="&#x45a;" horiz-adv-x="1801" 
d="M1289 501h-204v-322h204q92 0 147.5 44.5t55.5 116.5q0 73 -55.5 117t-147.5 44zM870 0v499h-491v-499h-215v1089h215v-411h491v411h215v-409h215q185 0 295 -92t110 -248t-110 -248t-295 -92h-430z" />
    <glyph glyph-name="tshecyrillic" unicode="&#x45b;" horiz-adv-x="1303" 
d="M388 914h17q40 91 132 143t215 52q184 0 286.5 -106t102.5 -300v-703h-214v650q0 130 -63 196t-185 66q-131 0 -210 -76t-79 -200v-636h-215v1275h-134v136h134v152h213v-152h256v-136h-256v-361z" />
    <glyph glyph-name="kjecyrillic" unicode="&#x45c;" horiz-adv-x="1157" 
d="M448 1271l251 344h252l-281 -344h-222zM379 647h48l393 442h253l-469 -506l489 -583h-268l-397 476h-49v-476h-215v1089h215v-442z" />
    <glyph glyph-name="ushortcyrillic" unicode="&#x45e;" horiz-adv-x="1172" 
d="M237 1582h179q0 -83 49 -141t128 -58q81 0 129.5 58t49.5 141h178q0 -147 -99 -242.5t-258 -95.5t-257.5 95.5t-98.5 242.5zM274 -396q-64 0 -89 5v185q23 -4 70 -4q77 0 123 35.5t74 117.5l16 53l-394 1093h234l273 -865h17l272 865h228l-406 -1134
q-70 -199 -160.5 -275t-257.5 -76z" />
    <glyph glyph-name="dzhecyrillic" unicode="&#x45f;" horiz-adv-x="1258" 
d="M1094 0h-365v-285h-200v285h-365v1089h215v-908h500v908h215v-1089z" />
    <glyph glyph-name="Geupturncyrillic" unicode="&#x490;" horiz-adv-x="1183" 
d="M416 1238v-1238h-225v1443h673v285h209v-490h-657z" />
    <glyph glyph-name="geupturncyrillic" unicode="&#x491;" horiz-adv-x="971" 
d="M881 908h-502v-908h-215v1089h517v285h200v-466z" />
    <glyph glyph-name="baht" unicode="&#xe3f;" horiz-adv-x="1359" 
d="M687 654v-464q139 4 210.5 64t71.5 171q0 215 -282 229zM383 190h167v465h-167v-465zM383 1253v-421h167v421h-167zM687 1251v-414q108 14 163.5 65.5t55.5 139.5q0 91 -57.5 145.5t-161.5 63.5zM873 773v-17q146 -15 235.5 -110.5t89.5 -236.5q0 -191 -131 -300
t-361 -109h-19v-136h-137v136h-389v1443h389v152h137v-152h5q203 0 319 -96.5t116 -263.5q0 -113 -73.5 -202.5t-180.5 -107.5z" />
    <glyph glyph-name="Aringbelow" unicode="&#x1e00;" horiz-adv-x="1423" 
d="M1115 0l-132 383h-550l-133 -383h-230l521 1443h241l521 -1443h-238zM700 1181l-210 -610h436l-209 610h-17zM707 -572q-99 0 -168 67.5t-69 166.5t68.5 166t168.5 67t168.5 -67t68.5 -166t-69 -166.5t-168 -67.5zM707 -453q50 0 83 32.5t33 82.5q0 49 -33 81.5t-83 32.5
t-83 -32.5t-33 -81.5q0 -50 33 -82.5t83 -32.5z" />
    <glyph glyph-name="aringbelow" unicode="&#x1e01;" horiz-adv-x="1158" 
d="M512 163q121 0 201.5 68t80.5 170v91l-266 -17q-112 -7 -165 -46t-53 -111t56 -113.5t146 -41.5zM457 -18q-160 0 -261.5 89.5t-101.5 236.5q0 146 105 229.5t300 95.5l295 17v94q0 87 -57 133.5t-166 46.5q-90 0 -149.5 -31.5t-77.5 -89.5h-208q16 140 137.5 223.5
t307.5 83.5q204 0 315.5 -96.5t111.5 -269.5v-744h-207v153h-17q-49 -82 -134.5 -126.5t-192.5 -44.5zM558 -572q-99 0 -168 67.5t-69 166.5t68.5 166t168.5 67t168.5 -67t68.5 -166t-69 -166.5t-168 -67.5zM558 -453q50 0 83 32.5t33 82.5q0 49 -33 81.5t-83 32.5
t-83 -32.5t-33 -81.5q0 -50 33 -82.5t83 -32.5z" />
    <glyph glyph-name="Bdotaccent" unicode="&#x1e02;" horiz-adv-x="1373" 
d="M618 1577q-57 0 -95.5 39.5t-38.5 97.5t38.5 97.5t95.5 39.5t95.5 -39.5t38.5 -97.5t-38.5 -97.5t-95.5 -39.5zM774 0h-593v1443h580q203 0 318.5 -96.5t115.5 -263.5q0 -113 -73 -202.5t-180 -107.5v-17q146 -15 235.5 -110.5t89.5 -236.5q0 -191 -131 -300t-362 -109z
M405 1253v-421h266q148 0 224.5 53.5t76.5 156.5q0 100 -69.5 155.5t-193.5 55.5h-304zM405 190h324q151 0 230 60t79 175q0 113 -82 171.5t-240 58.5h-311v-465z" />
    <glyph glyph-name="bdotaccent" unicode="&#x1e03;" horiz-adv-x="1285" 
d="M274 1648q-57 0 -95.5 39.5t-38.5 97.5t38.5 97.5t95.5 39.5t95.5 -39.5t38.5 -97.5t-38.5 -97.5t-95.5 -39.5zM733 -18q-114 0 -204.5 50t-139.5 140h-16v-172h-207v1514h215v-598h17q43 89 133 140t202 51q207 0 328.5 -151.5t121.5 -410.5t-122 -411t-328 -152z
M671 914q-135 0 -214 -99.5t-80 -270.5q1 -171 79.5 -270t214.5 -99t213.5 98.5t77.5 271.5q0 172 -77.5 270.5t-213.5 98.5z" />
    <glyph glyph-name="Bdotbelow" unicode="&#x1e04;" horiz-adv-x="1373" 
d="M619 -409q-58 0 -96 37t-38 92t38 92t96 37t96 -37t38 -92t-38 -92t-96 -37zM774 0h-593v1443h580q203 0 318.5 -96.5t115.5 -263.5q0 -113 -73 -202.5t-180 -107.5v-17q146 -15 235.5 -110.5t89.5 -236.5q0 -191 -131 -300t-362 -109zM405 1253v-421h266
q148 0 224.5 53.5t76.5 156.5q0 100 -69.5 155.5t-193.5 55.5h-304zM405 190h324q151 0 230 60t79 175q0 113 -82 171.5t-240 58.5h-311v-465z" />
    <glyph glyph-name="bdotbelow" unicode="&#x1e05;" horiz-adv-x="1285" 
d="M659 -409q-58 0 -96 37t-38 92t38 92t96 37t96 -37t38 -92t-38 -92t-96 -37zM733 -18q-114 0 -204.5 50t-139.5 140h-16v-172h-207v1514h215v-598h17q43 89 133 140t202 51q207 0 328.5 -151.5t121.5 -410.5t-122 -411t-328 -152zM671 914q-135 0 -214 -99.5t-80 -270.5
q1 -171 79.5 -270t214.5 -99t213.5 98.5t77.5 271.5q0 172 -77.5 270.5t-213.5 98.5z" />
    <glyph glyph-name="Blinebelow" unicode="&#x1e06;" horiz-adv-x="1373" 
d="M774 0h-593v1443h580q203 0 318.5 -96.5t115.5 -263.5q0 -113 -73 -202.5t-180 -107.5v-17q146 -15 235.5 -110.5t89.5 -236.5q0 -191 -131 -300t-362 -109zM405 1253v-421h266q148 0 224.5 53.5t76.5 156.5q0 100 -69.5 155.5t-193.5 55.5h-304zM405 190h324
q151 0 230 60t79 175q0 113 -82 171.5t-240 58.5h-311v-465zM969 -372h-700v156h700v-156z" />
    <glyph glyph-name="blinebelow" unicode="&#x1e07;" horiz-adv-x="1285" 
d="M1009 -372h-700v156h700v-156zM733 -18q-114 0 -204.5 50t-139.5 140h-16v-172h-207v1514h215v-598h17q43 89 133 140t202 51q207 0 328.5 -151.5t121.5 -410.5t-122 -411t-328 -152zM671 914q-135 0 -214 -99.5t-80 -270.5q1 -171 79.5 -270t214.5 -99t213.5 98.5
t77.5 271.5q0 172 -77.5 270.5t-213.5 98.5z" />
    <glyph glyph-name="Ccedillaacute" unicode="&#x1e08;" horiz-adv-x="1485" 
d="M1209 1890l-325 -306h-230l297 306h258zM1372 978h-223q-32 133 -133.5 212t-243.5 79q-194 0 -307.5 -147.5t-113.5 -400.5q0 -252 113.5 -399.5t308.5 -147.5q143 0 244.5 72t131.5 194h223q-28 -196 -169.5 -323.5t-353.5 -147.5l-39 -98q99 -2 153.5 -46t54.5 -123
q0 -90 -67 -143t-185 -53q-87 0 -147 18v119q46 -14 120 -14q116 0 116 67q0 32 -33 46.5t-109 14.5h-59v98l46 113q-269 25 -423.5 225t-154.5 528q0 351 174.5 554t475.5 203q238 0 405.5 -139.5t194.5 -360.5z" />
    <glyph glyph-name="ccedillaacute" unicode="&#x1e09;" horiz-adv-x="1167" 
d="M985 1615l-281 -344h-222l251 344h252zM1078 733h-209q-20 83 -86.5 134t-170.5 51q-135 0 -212.5 -98t-77.5 -272q0 -176 77.5 -276.5t212.5 -100.5q103 0 169.5 46t87.5 133h209q-19 -149 -119 -247t-263 -119l-45 -113q99 -2 153.5 -46t54.5 -123q0 -90 -67 -143
t-185 -53q-87 0 -147 18v119q46 -14 120 -14q116 0 116 67q0 32 -33 46.5t-109 14.5h-59v98l52 127q-209 21 -327 170t-118 396q0 262 136 412t374 150q199 0 321.5 -104t144.5 -273z" />
    <glyph glyph-name="Ddotaccent" unicode="&#x1e0a;" horiz-adv-x="1502" 
d="M610 1577q-57 0 -95.5 39.5t-38.5 97.5t38.5 97.5t95.5 39.5t95.5 -39.5t38.5 -97.5t-38.5 -97.5t-95.5 -39.5zM181 1443h521q321 0 500 -188.5t179 -528.5q0 -346 -178 -536t-501 -190h-521v1443zM405 1239v-1035h272q227 0 351.5 135.5t124.5 383.5q0 244 -125.5 380
t-350.5 136h-272z" />
    <glyph glyph-name="ddotaccent" unicode="&#x1e0b;" horiz-adv-x="1285" 
d="M1012 1648q-57 0 -95.5 39.5t-38.5 97.5t38.5 97.5t95.5 39.5t95.5 -39.5t38.5 -97.5t-38.5 -97.5t-95.5 -39.5zM554 -18q-208 0 -330 152t-122 411q0 258 122.5 410t329.5 152q112 0 201 -50.5t133 -140.5h16v598h215v-1514h-206v172h-17q-49 -89 -139.5 -139.5
t-202.5 -50.5zM615 914q-136 0 -213.5 -98.5t-77.5 -270.5q0 -173 77.5 -271.5t213.5 -98.5t214.5 99t78.5 270q0 170 -79 270t-214 100z" />
    <glyph glyph-name="Ddotbelow" unicode="&#x1e0c;" horiz-adv-x="1502" 
d="M610 -409q-58 0 -96 37t-38 92t38 92t96 37t96 -37t38 -92t-38 -92t-96 -37zM181 1443h521q321 0 500 -188.5t179 -528.5q0 -346 -178 -536t-501 -190h-521v1443zM405 1239v-1035h272q227 0 351.5 135.5t124.5 383.5q0 244 -125.5 380t-350.5 136h-272z" />
    <glyph glyph-name="ddotbelow" unicode="&#x1e0d;" horiz-adv-x="1285" 
d="M681 -409q-58 0 -96 37t-38 92t38 92t96 37t96 -37t38 -92t-38 -92t-96 -37zM554 -18q-208 0 -330 152t-122 411q0 258 122.5 410t329.5 152q112 0 201 -50.5t133 -140.5h16v598h215v-1514h-206v172h-17q-49 -89 -139.5 -139.5t-202.5 -50.5zM615 914
q-136 0 -213.5 -98.5t-77.5 -270.5q0 -173 77.5 -271.5t213.5 -98.5t214.5 99t78.5 270q0 170 -79 270t-214 100z" />
    <glyph glyph-name="Dlinebelow" unicode="&#x1e0e;" horiz-adv-x="1502" 
d="M960 -372h-700v156h700v-156zM181 1443h521q321 0 500 -188.5t179 -528.5q0 -346 -178 -536t-501 -190h-521v1443zM405 1239v-1035h272q227 0 351.5 135.5t124.5 383.5q0 244 -125.5 380t-350.5 136h-272z" />
    <glyph glyph-name="dlinebelow" unicode="&#x1e0f;" horiz-adv-x="1285" 
d="M1031 -372h-700v156h700v-156zM554 -18q-208 0 -330 152t-122 411q0 258 122.5 410t329.5 152q112 0 201 -50.5t133 -140.5h16v598h215v-1514h-206v172h-17q-49 -89 -139.5 -139.5t-202.5 -50.5zM615 914q-136 0 -213.5 -98.5t-77.5 -270.5q0 -173 77.5 -271.5
t213.5 -98.5t214.5 99t78.5 270q0 170 -79 270t-214 100z" />
    <glyph glyph-name="Dcommaaccent" unicode="&#x1e10;" horiz-adv-x="1502" 
d="M610 -514h-200l113 368h222zM181 1443h521q321 0 500 -188.5t179 -528.5q0 -346 -178 -536t-501 -190h-521v1443zM405 1239v-1035h272q227 0 351.5 135.5t124.5 383.5q0 244 -125.5 380t-350.5 136h-272z" />
    <glyph glyph-name="dcommaaccent" unicode="&#x1e11;" horiz-adv-x="1285" 
d="M681 -514h-200l113 368h222zM554 -18q-208 0 -330 152t-122 411q0 258 122.5 410t329.5 152q112 0 201 -50.5t133 -140.5h16v598h215v-1514h-206v172h-17q-49 -89 -139.5 -139.5t-202.5 -50.5zM615 914q-136 0 -213.5 -98.5t-77.5 -270.5q0 -173 77.5 -271.5t213.5 -98.5
t214.5 99t78.5 270q0 170 -79 270t-214 100z" />
    <glyph glyph-name="Dcircumflexbelow" unicode="&#x1e12;" horiz-adv-x="1502" 
d="M181 1443h521q321 0 500 -188.5t179 -528.5q0 -346 -178 -536t-501 -190h-521v1443zM405 1239v-1035h272q227 0 351.5 135.5t124.5 383.5q0 244 -125.5 380t-350.5 136h-272zM716 -146l295 -286h-232l-161 164h-16l-161 -164h-232l295 286h212z" />
    <glyph glyph-name="dcircumflexbelow" unicode="&#x1e13;" horiz-adv-x="1285" 
d="M554 -18q-208 0 -330 152t-122 411q0 258 122.5 410t329.5 152q112 0 201 -50.5t133 -140.5h16v598h215v-1514h-206v172h-17q-49 -89 -139.5 -139.5t-202.5 -50.5zM615 914q-136 0 -213.5 -98.5t-77.5 -270.5q0 -173 77.5 -271.5t213.5 -98.5t214.5 99t78.5 270
q0 170 -79 270t-214 100zM787 -146l295 -286h-232l-161 164h-16l-161 -164h-232l295 286h212z" />
    <glyph glyph-name="Emacrongrave" unicode="&#x1e14;" horiz-adv-x="1239" 
d="M989 1616h-700v151h700v-151zM751 1891h-215l-225 241h242zM1097 204v-204h-916v1443h916v-204h-692v-408h655v-194h-655v-433h692z" />
    <glyph glyph-name="emacrongrave" unicode="&#x1e15;" horiz-adv-x="1192" 
d="M603 927q-119 0 -196 -77t-86 -205h550q-4 129 -76.5 205.5t-191.5 76.5zM870 294h207q-37 -147 -161.5 -231t-310.5 -84q-234 0 -368.5 150.5t-134.5 411.5t136 415t366 154q227 0 356.5 -146t129.5 -403v-75h-769v-12q5 -144 83 -228t207 -84q197 0 259 132zM732 1591
h-213l-235 297h244zM952 1282h-696v155h696v-155z" />
    <glyph glyph-name="Emacronacute" unicode="&#x1e16;" horiz-adv-x="1239" 
d="M989 1615h-700v151h700v-151zM527 1890l198 241h242l-225 -241h-215zM1097 204v-204h-916v1443h916v-204h-692v-408h655v-194h-655v-433h692z" />
    <glyph glyph-name="emacronacute" unicode="&#x1e17;" horiz-adv-x="1192" 
d="M603 927q-119 0 -196 -77t-86 -205h550q-4 129 -76.5 205.5t-191.5 76.5zM870 294h207q-37 -147 -161.5 -231t-310.5 -84q-234 0 -368.5 150.5t-134.5 411.5t136 415t366 154q227 0 356.5 -146t129.5 -403v-75h-769v-12q5 -144 83 -228t207 -84q197 0 259 132zM476 1591
l204 297h244l-235 -297h-213zM952 1282h-696v155h696v-155z" />
    <glyph glyph-name="Ecircumflexbelow" unicode="&#x1e18;" horiz-adv-x="1239" 
d="M1097 204v-204h-916v1443h916v-204h-692v-408h655v-194h-655v-433h692zM745 -146l295 -286h-232l-161 164h-16l-161 -164h-232l295 286h212z" />
    <glyph glyph-name="ecircumflexbelow" unicode="&#x1e19;" horiz-adv-x="1192" 
d="M603 927q-119 0 -196 -77t-86 -205h550q-4 129 -76.5 205.5t-191.5 76.5zM870 294h207q-37 -147 -161.5 -231t-310.5 -84q-234 0 -368.5 150.5t-134.5 411.5t136 415t366 154q227 0 356.5 -146t129.5 -403v-75h-769v-12q5 -144 83 -228t207 -84q197 0 259 132zM712 -146
l295 -286h-232l-161 164h-16l-161 -164h-232l295 286h212z" />
    <glyph glyph-name="Etildebelow" unicode="&#x1e1a;" horiz-adv-x="1239" 
d="M792 -425q-45 0 -82.5 15.5t-63 38t-48 45t-48.5 38t-54 15.5q-43 0 -66 -31.5t-25 -104.5h-153q0 136 63.5 211t170.5 75q47 0 87 -15.5t66.5 -38t49.5 -45t46.5 -38t46.5 -15.5q86 0 92 134h152q0 -132 -64 -208t-170 -76zM1097 204v-204h-916v1443h916v-204h-692v-408
h655v-194h-655v-433h692z" />
    <glyph glyph-name="etildebelow" unicode="&#x1e1b;" horiz-adv-x="1192" 
d="M759 -425q-45 0 -82.5 15.5t-63 38t-48 45t-48.5 38t-54 15.5q-43 0 -66 -31.5t-25 -104.5h-153q0 136 63.5 211t170.5 75q47 0 87 -15.5t66.5 -38t49.5 -45t46.5 -38t46.5 -15.5q86 0 92 134h152q0 -132 -64 -208t-170 -76zM603 927q-119 0 -196 -77t-86 -205h550
q-4 129 -76.5 205.5t-191.5 76.5zM870 294h207q-37 -147 -161.5 -231t-310.5 -84q-234 0 -368.5 150.5t-134.5 411.5t136 415t366 154q227 0 356.5 -146t129.5 -403v-75h-769v-12q5 -144 83 -228t207 -84q197 0 259 132z" />
    <glyph glyph-name="Ecedillabreve" unicode="&#x1e1c;" horiz-adv-x="1239" 
d="M843 1891h173q0 -142 -101.5 -228t-275.5 -86t-275.5 86t-101.5 228h173q1 -78 56 -123.5t148 -45.5t148 45.5t56 123.5zM1097 1239h-692v-408h655v-194h-655v-433h692v-204h-369l-51 -129q99 -2 153.5 -46t54.5 -123q0 -90 -67 -143t-185 -53q-87 0 -147 18v119
q46 -14 120 -14q116 0 116 67q0 32 -33 46.5t-109 14.5h-59v98l59 145h-399v1443h916v-204z" />
    <glyph glyph-name="ecedillabreve" unicode="&#x1e1d;" horiz-adv-x="1192" 
d="M806 1576h173q0 -150 -102 -244t-275 -94t-275 94t-102 244h173q1 -85 55 -137.5t149 -52.5t149 52.5t55 137.5zM321 645h550q-4 129 -76.5 205.5t-191.5 76.5t-196 -77t-86 -205zM1090 486h-769v-12q5 -144 83 -228t207 -84q197 0 259 132h207q-32 -129 -133.5 -210.5
t-254.5 -99.5l-45 -113q99 -2 153.5 -46t54.5 -123q0 -90 -67 -143t-185 -53q-87 0 -147 18v119q46 -14 120 -14q116 0 116 67q0 32 -33 46.5t-109 14.5h-59v98l52 127q-205 21 -321.5 169t-116.5 390q0 261 136 415t366 154q227 0 356.5 -146t129.5 -403v-75z" />
    <glyph glyph-name="Fdotaccent" unicode="&#x1e1e;" horiz-adv-x="1191" 
d="M631 1577q-57 0 -95.5 39.5t-38.5 97.5t38.5 97.5t95.5 39.5t95.5 -39.5t38.5 -97.5t-38.5 -97.5t-95.5 -39.5zM405 0h-224v1443h901v-204h-677v-443h620v-198h-620v-598z" />
    <glyph glyph-name="fdotaccent" unicode="&#x1e1f;" horiz-adv-x="763" 
d="M441 1627q-57 0 -95.5 39.5t-38.5 97.5t38.5 97.5t95.5 39.5t95.5 -39.5t38.5 -97.5t-38.5 -97.5t-95.5 -39.5zM232 0v903h-179v181h179v108q0 164 84 238t257 74q60 0 121 -10v-172q-46 8 -96 8q-153 0 -153 -150v-96h241v-181h-239v-903h-215z" />
    <glyph glyph-name="Gmacron" unicode="&#x1e20;" horiz-adv-x="1539" 
d="M1412 571q0 -277 -169.5 -441.5t-453.5 -164.5q-307 0 -487 204t-180 553q0 345 181 550.5t484 205.5q246 0 412 -129.5t203 -348.5h-225q-42 131 -142 200t-248 69q-200 0 -318 -147.5t-118 -397.5q0 -255 118.5 -402.5t322.5 -147.5q177 0 288 99t112 259v31h-372v188
h592v-180zM1137 1625h-700v156h700v-156z" />
    <glyph glyph-name="gmacron" unicode="&#x1e21;" horiz-adv-x="1274" 
d="M960 1299h-696v155h696v-155zM907 558q0 163 -79 259.5t-216 96.5t-213 -95.5t-76 -260.5t76 -260.5t213 -95.5t216 96t79 260zM615 -416q-202 0 -328 83.5t-143 223.5h220q14 -60 80.5 -95t173.5 -35q134 0 209.5 60.5t75.5 168.5v209h-16q-49 -88 -136 -135.5
t-200 -47.5q-207 0 -328.5 147.5t-121.5 393.5q0 250 122 400t330 150q112 0 204 -51.5t138 -140.5h17v174h206v-1098q0 -187 -136 -297t-367 -110z" />
    <glyph glyph-name="Hdotaccent" unicode="&#x1e22;" horiz-adv-x="1550" 
d="M1369 0h-223v633h-741v-633h-224v1443h224v-606h741v606h223v-1443zM775 1577q-57 0 -95.5 39.5t-38.5 97.5t38.5 97.5t95.5 39.5t95.5 -39.5t38.5 -97.5t-38.5 -97.5t-95.5 -39.5z" />
    <glyph glyph-name="hdotaccent" unicode="&#x1e23;" horiz-adv-x="1271" 
d="M166 0v1514h213v-600h17q40 92 130 143.5t213 51.5q184 0 284.5 -106t100.5 -300v-703h-215v650q0 262 -243 262q-131 0 -208 -75.5t-77 -200.5v-636h-215zM273 1648q-57 0 -95.5 39.5t-38.5 97.5t38.5 97.5t95.5 39.5t95.5 -39.5t38.5 -97.5t-38.5 -97.5t-95.5 -39.5z
" />
    <glyph glyph-name="Hdotbelow" unicode="&#x1e24;" horiz-adv-x="1550" 
d="M1369 0h-223v633h-741v-633h-224v1443h224v-606h741v606h223v-1443zM775 -409q-58 0 -96 37t-38 92t38 92t96 37t96 -37t38 -92t-38 -92t-96 -37z" />
    <glyph glyph-name="hdotbelow" unicode="&#x1e25;" horiz-adv-x="1271" 
d="M166 0v1514h213v-600h17q40 92 130 143.5t213 51.5q184 0 284.5 -106t100.5 -300v-703h-215v650q0 262 -243 262q-131 0 -208 -75.5t-77 -200.5v-636h-215zM649 -409q-58 0 -96 37t-38 92t38 92t96 37t96 -37t38 -92t-38 -92t-96 -37z" />
    <glyph glyph-name="Hdieresis" unicode="&#x1e26;" horiz-adv-x="1550" 
d="M1369 0h-223v633h-741v-633h-224v1443h224v-606h741v606h223v-1443zM562 1577q-57 0 -95.5 38.5t-38.5 95.5t38.5 96t95.5 39q56 0 94.5 -39t38.5 -96t-38.5 -95.5t-94.5 -38.5zM989 1577q-56 0 -95 38.5t-39 95.5t39 96t95 39t94.5 -39t38.5 -96t-38.5 -95.5
t-94.5 -38.5z" />
    <glyph glyph-name="hdieresis" unicode="&#x1e27;" horiz-adv-x="1271" 
d="M166 0v1514h213v-600h17q40 92 130 143.5t213 51.5q184 0 284.5 -106t100.5 -300v-703h-215v650q0 262 -243 262q-131 0 -208 -75.5t-77 -200.5v-636h-215zM60 1648q-57 0 -95.5 38.5t-38.5 95.5t38.5 96t95.5 39q56 0 94.5 -39t38.5 -96t-38.5 -95.5t-94.5 -38.5z
M487 1648q-56 0 -95 38.5t-39 95.5t39 96t95 39t94.5 -39t38.5 -96t-38.5 -95.5t-94.5 -38.5z" />
    <glyph glyph-name="Hcedilla" unicode="&#x1e28;" horiz-adv-x="1550" 
d="M181 1443h224v-606h741v606h223v-1443h-223v633h-741v-631l-53 -131q99 -2 154 -46t55 -123q0 -90 -67 -143t-185 -53q-87 0 -147 18v119q46 -14 120 -14q116 0 116 67q0 32 -33 46.5t-109 14.5h-59v98l59 145h-75v1443z" />
    <glyph glyph-name="hcedilla" unicode="&#x1e29;" horiz-adv-x="1271" 
d="M166 1514h213v-600h17q40 91 130.5 143t212.5 52q185 0 285 -106.5t100 -299.5v-703h-215v650q0 262 -243 262q-131 0 -208 -76t-77 -200v-634l-54 -134q98 -1 153.5 -45.5t55.5 -123.5q0 -90 -66.5 -142.5t-185.5 -52.5q-86 0 -146 17v120q40 -14 120 -14q116 0 116 66
q0 33 -33 47.5t-109 14.5h-60v97l61 148h-67v1514z" />
    <glyph glyph-name="Hbrevebelow" unicode="&#x1e2a;" horiz-adv-x="1550" 
d="M398 -117h174q0 -75 54.5 -120t148.5 -45t148.5 45t54.5 120h174q0 -137 -101.5 -222t-275.5 -85t-275.5 85t-101.5 222zM1369 0h-223v633h-741v-633h-224v1443h224v-606h741v606h223v-1443z" />
    <glyph glyph-name="hbrevebelow" unicode="&#x1e2b;" horiz-adv-x="1271" 
d="M272 -117h174q0 -75 54.5 -120t148.5 -45t148.5 45t54.5 120h174q0 -137 -101.5 -222t-275.5 -85t-275.5 85t-101.5 222zM166 0v1514h213v-600h17q40 92 130 143.5t213 51.5q184 0 284.5 -106t100.5 -300v-703h-215v650q0 262 -243 262q-131 0 -208 -75.5t-77 -200.5
v-636h-215z" />
    <glyph glyph-name="Itildebelow" unicode="&#x1e2c;" horiz-adv-x="585" 
d="M405 0h-224v1443h224v-1443zM446 -425q-45 0 -82.5 15.5t-63 38t-48 45t-48.5 38t-54 15.5q-43 0 -66 -31.5t-25 -104.5h-153q0 136 63.5 211t170.5 75q47 0 87 -15.5t66.5 -38t49.5 -45t46.5 -38t46.5 -15.5q86 0 92 134h152q0 -132 -64 -208t-170 -76z" />
    <glyph glyph-name="itildebelow" unicode="&#x1e2d;" horiz-adv-x="534" 
d="M160 0v1089h214v-1089h-214zM267 1280q-60 0 -99.5 37.5t-39.5 93.5t39.5 94t99.5 38t99.5 -38t39.5 -94t-39.5 -93.5t-99.5 -37.5zM420 -425q-45 0 -82.5 15.5t-63 38t-48 45t-48.5 38t-54 15.5q-43 0 -66 -31.5t-25 -104.5h-153q0 136 63.5 211t170.5 75q47 0 87 -15.5
t66.5 -38t49.5 -45t46.5 -38t46.5 -15.5q86 0 92 134h152q0 -132 -64 -208t-170 -76z" />
    <glyph glyph-name="Idieresisacute" unicode="&#x1e2e;" horiz-adv-x="585" 
d="M405 0h-224v1443h224v-1443zM193 1901l207 231h251l-258 -231h-200zM80 1577q-57 0 -95.5 38.5t-38.5 95.5t38.5 96t95.5 39q56 0 94.5 -39t38.5 -96t-38.5 -95.5t-94.5 -38.5zM507 1577q-56 0 -95 38.5t-39 95.5t39 96t95 39t94.5 -39t38.5 -96t-38.5 -95.5t-94.5 -38.5
z" />
    <glyph glyph-name="idieresisacute" unicode="&#x1e2f;" horiz-adv-x="544" 
d="M162 1604l196 306h228l-229 -306h-195zM59 1241q-57 0 -95.5 38.5t-38.5 95.5t38.5 96t95.5 39q56 0 94.5 -39t38.5 -96t-38.5 -95.5t-94.5 -38.5zM486 1241q-56 0 -95 38.5t-39 95.5t39 96t95 39t94.5 -39t38.5 -96t-38.5 -95.5t-94.5 -38.5zM164 0v1089h215v-1089h-215
z" />
    <glyph glyph-name="Kacute" unicode="&#x1e30;" horiz-adv-x="1386" 
d="M552 1582l297 306h258l-325 -306h-230zM405 0h-224v1443h224v-676h16l597 676h265l-558 -627l606 -816h-280l-484 655l-162 -181v-474z" />
    <glyph glyph-name="kacute" unicode="&#x1e31;" horiz-adv-x="1155" 
d="M156 1653l297 306h258l-325 -306h-230zM398 635l432 454h254l-448 -467l478 -622h-264l-374 480l-95 -90v-390h-215v1514h215v-879h17z" />
    <glyph glyph-name="Kdotbelow" unicode="&#x1e32;" horiz-adv-x="1386" 
d="M670 -409q-58 0 -96 37t-38 92t38 92t96 37t96 -37t38 -92t-38 -92t-96 -37zM405 0h-224v1443h224v-676h16l597 676h265l-558 -627l606 -816h-280l-484 655l-162 -181v-474z" />
    </font>
</defs>
</svg>
